<svg width="400" height="520" viewBox="0 0 400 535" fill="none" xmlns="http://www.w3.org/2000/svg"><g id="region-5">
<g id="CBI_id">
<g id="CBI_10" style="pointer-events: all; cursor: pointer; transform: scale(1);">
<g id="text">
<circle cx="140" cy="415" r="18" fill="rgb(146, 146, 157)"/>
<path id="1" d="M133.924 410.7L131.084 413.2L129.384 411.24L134.004 407.34H136.804V421.5H133.924V410.7ZM140.66 414.42C140.66 413.58 140.733 412.727 140.88 411.86C141.04 410.993 141.313 410.207 141.7 409.5C142.1 408.793 142.64 408.22 143.32 407.78C144 407.327 144.867 407.1 145.92 407.1C146.973 407.1 147.84 407.327 148.52 407.78C149.2 408.22 149.733 408.793 150.12 409.5C150.52 410.207 150.793 410.993 150.94 411.86C151.1 412.727 151.18 413.58 151.18 414.42C151.18 415.26 151.1 416.113 150.94 416.98C150.793 417.847 150.52 418.633 150.12 419.34C149.733 420.047 149.2 420.627 148.52 421.08C147.84 421.52 146.973 421.74 145.92 421.74C144.867 421.74 144 421.52 143.32 421.08C142.64 420.627 142.1 420.047 141.7 419.34C141.313 418.633 141.04 417.847 140.88 416.98C140.733 416.113 140.66 415.26 140.66 414.42ZM143.66 414.42C143.66 414.793 143.673 415.24 143.7 415.76C143.74 416.28 143.833 416.78 143.98 417.26C144.127 417.74 144.347 418.147 144.64 418.48C144.947 418.813 145.373 418.98 145.92 418.98C146.453 418.98 146.873 418.813 147.18 418.48C147.487 418.147 147.713 417.74 147.86 417.26C148.007 416.78 148.093 416.28 148.12 415.76C148.16 415.24 148.18 414.793 148.18 414.42C148.18 414.047 148.16 413.6 148.12 413.08C148.093 412.56 148.007 412.06 147.86 411.58C147.713 411.1 147.487 410.693 147.18 410.36C146.873 410.027 146.453 409.86 145.92 409.86C145.373 409.86 144.947 410.027 144.64 410.36C144.347 410.693 144.127 411.1 143.98 411.58C143.833 412.06 143.74 412.56 143.7 413.08C143.673 413.6 143.66 414.047 143.66 414.42Z" fill="#FFFBF8"></path></g></g>

<g id="CBI_9" style="pointer-events: all; cursor: pointer; transform: scale(1);">
<g id="text_2">
<circle cx="100" cy="415" r="18" fill="rgb(146, 146, 157)"/>
<path id="1_2" d="M100.182 416.44C100.022 416.48 99.862 416.513 99.702 416.54C99.542 416.567 99.3754 416.58 99.202 416.58C98.5354 416.58 97.9287 416.46 97.382 416.22C96.8354 415.98 96.3687 415.653 95.982 415.24C95.5954 414.827 95.2954 414.34 95.082 413.78C94.8687 413.207 94.762 412.6 94.762 411.96C94.762 411.227 94.8954 410.567 95.162 409.98C95.442 409.38 95.8154 408.867 96.282 408.44C96.762 408.013 97.322 407.687 97.962 407.46C98.602 407.22 99.2954 407.1 100.042 407.1C100.775 407.1 101.462 407.22 102.102 407.46C102.755 407.687 103.315 408.013 103.782 408.44C104.262 408.867 104.635 409.38 104.902 409.98C105.182 410.567 105.322 411.227 105.322 411.96C105.322 412.467 105.275 412.933 105.182 413.36C105.089 413.773 104.962 414.167 104.802 414.54C104.655 414.913 104.475 415.273 104.262 415.62C104.062 415.953 103.849 416.3 103.622 416.66L100.522 421.5H96.862L100.182 416.44ZM97.762 412.08C97.762 412.72 97.9687 413.253 98.382 413.68C98.8087 414.093 99.362 414.3 100.042 414.3C100.722 414.3 101.269 414.093 101.682 413.68C102.109 413.253 102.322 412.72 102.322 412.08C102.322 411.44 102.109 410.913 101.682 410.5C101.269 410.073 100.722 409.86 100.042 409.86C99.362 409.86 98.8087 410.073 98.382 410.5C97.9687 410.913 97.762 411.44 97.762 412.08Z" fill="#FFFBF8"></path></g></g>

<g id="CBI_8" style="pointer-events: all; cursor: pointer; transform: scale(1);">
<g id="text_3">
<circle cx="60" cy="415" r="18" fill="rgb(146, 146, 157)"/>
<path id="1_3" d="M55.262 411C55.262 410.347 55.382 409.78 55.622 409.3C55.8754 408.807 56.2154 408.4 56.642 408.08C57.082 407.747 57.5887 407.5 58.162 407.34C58.7354 407.18 59.3487 407.1 60.002 407.1C60.6554 407.1 61.2687 407.18 61.842 407.34C62.4154 407.5 62.9154 407.747 63.342 408.08C63.7687 408.4 64.1087 408.807 64.362 409.3C64.6154 409.78 64.742 410.347 64.742 411C64.742 411.773 64.5287 412.433 64.102 412.98C63.6887 413.527 63.102 413.913 62.342 414.14V414.18C63.1954 414.407 63.8487 414.82 64.302 415.42C64.7554 416.007 64.982 416.74 64.982 417.62C64.982 418.3 64.842 418.9 64.562 419.42C64.2954 419.94 63.9287 420.373 63.462 420.72C63.0087 421.053 62.482 421.307 61.882 421.48C61.282 421.653 60.6554 421.74 60.002 421.74C59.3487 421.74 58.722 421.653 58.122 421.48C57.522 421.307 56.9887 421.053 56.522 420.72C56.0687 420.373 55.702 419.94 55.422 419.42C55.1554 418.9 55.022 418.3 55.022 417.62C55.022 416.74 55.2487 416.007 55.702 415.42C56.1554 414.82 56.8087 414.407 57.662 414.18V414.14C56.902 413.913 56.3087 413.527 55.882 412.98C55.4687 412.433 55.262 411.773 55.262 411ZM58.262 411.42C58.262 411.86 58.422 412.233 58.742 412.54C59.062 412.847 59.482 413 60.002 413C60.522 413 60.942 412.847 61.262 412.54C61.582 412.233 61.742 411.86 61.742 411.42C61.742 410.993 61.582 410.627 61.262 410.32C60.942 410.013 60.522 409.86 60.002 409.86C59.482 409.86 59.062 410.013 58.742 410.32C58.422 410.627 58.262 410.993 58.262 411.42ZM58.022 417.2C58.022 417.693 58.202 418.113 58.562 418.46C58.922 418.807 59.402 418.98 60.002 418.98C60.602 418.98 61.082 418.807 61.442 418.46C61.802 418.113 61.982 417.693 61.982 417.2C61.982 416.693 61.802 416.267 61.442 415.92C61.082 415.573 60.602 415.4 60.002 415.4C59.402 415.4 58.922 415.573 58.562 415.92C58.202 416.267 58.022 416.693 58.022 417.2Z" fill="#FFFBF8"></path></g></g>

<g id="CBI_7" style="pointer-events: all; cursor: pointer; transform: scale(1);">
<g id="text_4">
<circle cx="20" cy="415" r="18" fill="rgb(146, 146, 157)"/>
<path id="1_4" d="M21.822 410.1H14.822V407.34H25.182V409.98L19.522 421.5H16.022L21.822 410.1Z" fill="#FFFBF8"></path></g></g>

<g id="CBI_6" style="pointer-events: all; cursor: pointer; transform: scale(1);">
<g id="text_5">
<circle cx="140" cy="375" r="18" fill="rgb(146, 146, 157)"/>
<path id="1_5" d="M139.822 372.4C139.982 372.36 140.142 372.327 140.302 372.3C140.462 372.273 140.629 372.26 140.802 372.26C141.469 372.26 142.075 372.38 142.622 372.62C143.169 372.86 143.635 373.187 144.022 373.6C144.409 374.013 144.709 374.507 144.922 375.08C145.135 375.64 145.242 376.24 145.242 376.88C145.242 377.613 145.102 378.28 144.822 378.88C144.555 379.467 144.182 379.973 143.702 380.4C143.235 380.827 142.675 381.16 142.022 381.4C141.382 381.627 140.695 381.74 139.962 381.74C139.215 381.74 138.522 381.627 137.882 381.4C137.242 381.16 136.682 380.827 136.202 380.4C135.735 379.973 135.362 379.467 135.082 378.88C134.815 378.28 134.682 377.613 134.682 376.88C134.682 376.373 134.729 375.913 134.822 375.5C134.915 375.073 135.035 374.673 135.182 374.3C135.342 373.927 135.522 373.573 135.722 373.24C135.935 372.893 136.155 372.54 136.382 372.18L139.482 367.34H143.142L139.822 372.4ZM142.242 376.76C142.242 376.12 142.029 375.593 141.602 375.18C141.189 374.753 140.642 374.54 139.962 374.54C139.282 374.54 138.729 374.753 138.302 375.18C137.889 375.593 137.682 376.12 137.682 376.76C137.682 377.4 137.889 377.933 138.302 378.36C138.729 378.773 139.282 378.98 139.962 378.98C140.642 378.98 141.189 378.773 141.602 378.36C142.029 377.933 142.242 377.4 142.242 376.76Z" fill="#FFFBF8"></path></g></g>

<g id="CBI_5" style="pointer-events: all; cursor: pointer; transform: scale(1);">
<g id="text_6">
<circle cx="100" cy="375" r="18" fill="rgb(146, 146, 157)"/>
<path id="1_6" d="M104.422 369.98H98.802L98.742 372.16C99.0487 372.053 99.4687 372 100.002 372C100.722 372 101.382 372.107 101.982 372.32C102.582 372.533 103.095 372.847 103.522 373.26C103.962 373.66 104.302 374.153 104.542 374.74C104.782 375.313 104.902 375.96 104.902 376.68C104.902 377.48 104.762 378.193 104.482 378.82C104.215 379.447 103.842 379.98 103.362 380.42C102.882 380.847 102.309 381.173 101.642 381.4C100.989 381.627 100.275 381.74 99.502 381.74C98.2754 381.74 97.2487 381.44 96.422 380.84C95.5954 380.24 95.0287 379.333 94.722 378.12L97.862 377.4C97.942 377.907 98.1554 378.32 98.502 378.64C98.8487 378.947 99.282 379.1 99.802 379.1C100.442 379.1 100.949 378.9 101.322 378.5C101.709 378.1 101.902 377.593 101.902 376.98C101.902 376.513 101.802 376.133 101.602 375.84C101.415 375.533 101.162 375.293 100.842 375.12C100.535 374.933 100.189 374.807 99.802 374.74C99.4154 374.673 99.0287 374.64 98.642 374.64C98.1487 374.64 97.6487 374.687 97.142 374.78C96.6487 374.873 96.1687 375 95.702 375.16L95.862 367.34H104.422V369.98Z" fill="#FFFBF8"></path></g></g>

<g id="CBI_4" style="pointer-events: all; cursor: pointer; transform: scale(1);">
<g id="text_7">
<circle cx="60" cy="375" r="18" fill="rgb(146, 146, 157)"/>
<path id="1_7" d="M60.742 378.66H54.562V376.14L60.342 367.34H63.622V376.14H65.442V378.66H63.622V381.5H60.742V378.66ZM60.742 371.26H60.702L57.562 376.14H60.742V371.26Z" fill="#FFFBF8"></path></g></g>

<g id="CBI_3" style="pointer-events: all; cursor: pointer; transform: scale(1);">
<g id="text_8">
<circle cx="20" cy="375" r="18" fill="rgb(146, 146, 157)"/>
<path id="1_8" d="M18.402 372.92H19.382C19.662 372.92 19.9354 372.9 20.202 372.86C20.4687 372.82 20.7087 372.747 20.922 372.64C21.1487 372.52 21.3287 372.36 21.462 372.16C21.5954 371.947 21.662 371.673 21.662 371.34C21.662 370.913 21.4887 370.56 21.142 370.28C20.8087 370 20.3954 369.86 19.902 369.86C19.4354 369.86 19.0487 369.987 18.742 370.24C18.4354 370.493 18.2354 370.807 18.142 371.18L14.842 370.5C15.002 369.887 15.242 369.367 15.562 368.94C15.882 368.5 16.262 368.147 16.702 367.88C17.142 367.613 17.6287 367.42 18.162 367.3C18.7087 367.167 19.282 367.1 19.882 367.1C20.5087 367.1 21.1087 367.18 21.682 367.34C22.2687 367.487 22.782 367.727 23.222 368.06C23.662 368.38 24.0087 368.787 24.262 369.28C24.5287 369.773 24.662 370.36 24.662 371.04C24.662 371.827 24.4554 372.5 24.042 373.06C23.6287 373.62 23.0287 373.98 22.242 374.14V374.2C22.6687 374.253 23.042 374.38 23.362 374.58C23.6954 374.78 23.9754 375.027 24.202 375.32C24.4287 375.613 24.602 375.947 24.722 376.32C24.842 376.693 24.902 377.087 24.902 377.5C24.902 378.207 24.762 378.827 24.482 379.36C24.2154 379.893 23.8487 380.34 23.382 380.7C22.9287 381.047 22.3887 381.307 21.762 381.48C21.1487 381.653 20.4954 381.74 19.802 381.74C18.5354 381.74 17.442 381.447 16.522 380.86C15.6154 380.273 15.0154 379.347 14.722 378.08L17.882 377.34C17.9887 377.847 18.202 378.247 18.522 378.54C18.8554 378.833 19.342 378.98 19.982 378.98C20.6354 378.98 21.1154 378.813 21.422 378.48C21.742 378.133 21.902 377.693 21.902 377.16C21.902 376.76 21.8154 376.453 21.642 376.24C21.482 376.013 21.2687 375.847 21.002 375.74C20.7354 375.633 20.4354 375.573 20.102 375.56C19.7687 375.533 19.4354 375.52 19.102 375.52H18.402V372.92Z" fill="#FFFBF8"></path></g></g>

<g id="CBI_2" style="pointer-events: all; cursor: pointer; transform: scale(1);">
<g id="text_9">
<circle cx="140" cy="335" r="18" fill="rgb(146, 146, 157)"/>
<path id="1_9" d="M135.062 338.32L140.562 333.38C140.842 333.127 141.122 332.84 141.402 332.52C141.682 332.2 141.822 331.827 141.822 331.4C141.822 330.92 141.649 330.547 141.302 330.28C140.955 330 140.549 329.86 140.082 329.86C139.522 329.86 139.082 330.033 138.762 330.38C138.455 330.727 138.282 331.153 138.242 331.66L135.242 331.44C135.282 330.707 135.435 330.073 135.702 329.54C135.969 328.993 136.322 328.54 136.762 328.18C137.202 327.82 137.715 327.553 138.302 327.38C138.902 327.193 139.549 327.1 140.242 327.1C140.882 327.1 141.482 327.193 142.042 327.38C142.602 327.553 143.089 327.82 143.502 328.18C143.915 328.527 144.235 328.967 144.462 329.5C144.702 330.033 144.822 330.653 144.822 331.36C144.822 331.813 144.775 332.227 144.682 332.6C144.589 332.96 144.455 333.293 144.282 333.6C144.122 333.893 143.929 334.167 143.702 334.42C143.475 334.673 143.229 334.92 142.962 335.16L138.662 338.86H144.942V341.5H135.062V338.32Z" fill="#FFFBF8"></path></g></g>

<g id="CBI_1" style="pointer-events: all; cursor: pointer; transform: scale(1);">
<g id="text_10">
<circle cx="100" cy="335" r="18" fill="rgb(146, 146, 157)"/>
<path id="1_10" d="M99.842 330.7L97.002 333.2L95.302 331.24L99.922 327.34H102.722V341.5H99.842V330.7Z" fill="#FFFBF8"></path></g></g>


<g id="CBI_name" style="cursor: pointer;"><rect x="2" y="316" width="70" height="35" rx="4" fill="white"></rect><path id="เชียงใหม่" d="M17.6553 336.129C17.6553 335.578 17.5908 335.145 17.4619 334.828C17.3389 334.506 17.1602 334.263 16.9258 334.099C16.6914 333.929 16.4043 333.82 16.0645 333.773C15.7305 333.727 15.3525 333.697 14.9307 333.686L14.9043 331.523C15.4785 331.523 15.959 331.436 16.3457 331.26C16.7383 331.078 17.0518 330.809 17.2861 330.451C17.5264 330.094 17.6963 329.648 17.7959 329.115C17.9014 328.576 17.957 327.952 17.9629 327.243H20.9512C20.9453 327.782 20.9043 328.318 20.8281 328.852C20.752 329.385 20.6172 329.889 20.4238 330.363C20.2305 330.832 19.9697 331.254 19.6416 331.629C19.3135 332.004 18.9004 332.306 18.4023 332.534C18.7539 332.64 19.0527 332.777 19.2988 332.947C19.5449 333.111 19.75 333.296 19.9141 333.501C20.0781 333.706 20.207 333.923 20.3008 334.151C20.3945 334.38 20.4648 334.611 20.5117 334.846C20.5586 335.074 20.585 335.3 20.5908 335.522C20.6025 335.739 20.6084 335.941 20.6084 336.129L20.5996 337.324C20.6055 337.898 20.5381 338.423 20.3975 338.897C20.2568 339.372 20.0605 339.797 19.8086 340.172C19.5625 340.541 19.2666 340.863 18.9209 341.139C18.5752 341.414 18.1973 341.643 17.7871 341.824C17.3828 342.006 16.9521 342.141 16.4951 342.229C16.0439 342.316 15.584 342.36 15.1152 342.36C14.3945 342.36 13.6973 342.252 13.0234 342.035C12.3555 341.824 11.7607 341.508 11.2393 341.086C10.7236 340.658 10.3076 340.131 9.99121 339.504C9.6748 338.877 9.51367 338.15 9.50781 337.324L9.5166 336.129C9.5166 335.754 9.52832 335.426 9.55176 335.145C9.5752 334.863 9.60742 334.614 9.64844 334.397C9.69531 334.175 9.75684 333.976 9.83301 333.8C9.90918 333.618 10 333.442 10.1055 333.272C10.2168 333.103 10.3457 332.93 10.4922 332.754C10.6387 332.572 10.8086 332.367 11.002 332.139C11.1426 331.957 11.2686 331.793 11.3799 331.646C11.4971 331.494 11.5967 331.351 11.6787 331.216C11.7607 331.081 11.8281 330.946 11.8809 330.812C11.9336 330.671 11.9717 330.524 11.9951 330.372C12.0186 330.226 12.0127 330.091 11.9775 329.968C11.9482 329.845 11.8926 329.739 11.8105 329.651C11.7344 329.558 11.6377 329.487 11.5205 329.44C11.4092 329.388 11.2803 329.361 11.1338 329.361C10.9697 329.361 10.8086 329.373 10.6504 329.396C10.4922 329.42 10.3193 329.458 10.1318 329.511C9.94434 329.558 9.7334 329.622 9.49902 329.704C9.27051 329.78 9.00684 329.871 8.70801 329.977L8.72559 327.674C9.02441 327.568 9.31738 327.475 9.60449 327.393C9.8916 327.311 10.1582 327.243 10.4043 327.19C10.6504 327.132 10.8701 327.091 11.0635 327.067C11.2627 327.038 11.4209 327.023 11.5381 327.023C12.0947 327.023 12.5986 327.091 13.0498 327.226C13.5068 327.354 13.8906 327.554 14.2012 327.823C14.5117 328.093 14.7373 328.43 14.8779 328.834C15.0244 329.238 15.0654 329.716 15.001 330.267C14.96 330.536 14.8896 330.791 14.79 331.031C14.6904 331.271 14.5615 331.523 14.4033 331.787C14.2451 332.045 14.0547 332.329 13.832 332.64C13.6094 332.95 13.3545 333.311 13.0674 333.721C12.915 333.938 12.8008 334.134 12.7246 334.31C12.6484 334.479 12.5928 334.649 12.5576 334.819C12.5225 334.983 12.499 335.153 12.4873 335.329C12.4814 335.505 12.4697 335.701 12.4521 335.918L12.4785 336.885C12.4785 337.342 12.5459 337.749 12.6807 338.106C12.8213 338.458 13.0117 338.757 13.252 339.003C13.4922 339.243 13.7734 339.425 14.0957 339.548C14.4238 339.671 14.7725 339.732 15.1416 339.732C15.4932 339.732 15.8213 339.688 16.126 339.601C16.4307 339.507 16.6943 339.357 16.917 339.152C17.1455 338.941 17.3242 338.669 17.4531 338.335C17.582 338.001 17.6436 337.591 17.6377 337.104L17.6553 336.129ZM32.8779 334.837C32.6963 334.919 32.4971 334.989 32.2803 335.048C32.0635 335.106 31.8379 335.159 31.6035 335.206C31.3691 335.247 31.1289 335.285 30.8828 335.32C30.6367 335.355 30.3936 335.385 30.1533 335.408C29.8135 335.449 29.4736 335.496 29.1338 335.549C28.7998 335.596 28.4746 335.657 28.1582 335.733C27.8477 335.81 27.5576 335.906 27.2881 336.023C27.0244 336.141 26.793 336.287 26.5938 336.463C26.4004 336.633 26.248 336.838 26.1367 337.078C26.0254 337.318 25.9727 337.603 25.9785 337.931C25.9785 338.3 26.0547 338.61 26.207 338.862C26.3652 339.108 26.5703 339.308 26.8223 339.46C27.0801 339.606 27.3672 339.712 27.6836 339.776C28.0059 339.841 28.3311 339.873 28.6592 339.873C28.9287 339.873 29.21 339.85 29.5029 339.803C29.7959 339.756 30.0977 339.697 30.4082 339.627L30.3994 341.965C29.9893 342.07 29.6025 342.155 29.2393 342.22C28.876 342.29 28.4951 342.325 28.0967 342.325C27.4053 342.325 26.7461 342.249 26.1191 342.097C25.498 341.944 24.9502 341.701 24.4756 341.367C24.0068 341.027 23.6348 340.588 23.3594 340.049C23.084 339.51 22.9492 338.854 22.9551 338.08C22.9492 337.5 23.0137 336.99 23.1484 336.551C23.2891 336.111 23.4912 335.728 23.7549 335.399C24.0186 335.071 24.3408 334.793 24.7217 334.564C25.1025 334.336 25.5361 334.14 26.0225 333.976C26.5088 333.806 27.0449 333.662 27.6309 333.545C28.2168 333.428 28.8438 333.319 29.5117 333.22C29.9395 333.155 30.3555 333.094 30.7598 333.035C31.1641 332.971 31.5244 332.883 31.8408 332.771C32.1572 332.66 32.4092 332.514 32.5967 332.332C32.7842 332.15 32.8779 331.904 32.8779 331.594C32.8779 331.119 32.7871 330.738 32.6055 330.451C32.4297 330.164 32.1982 329.947 31.9111 329.801C31.6299 329.648 31.3105 329.549 30.9531 329.502C30.6016 329.455 30.25 329.432 29.8984 329.432C29.4297 329.432 28.9961 329.479 28.5977 329.572C28.1992 329.666 27.8535 329.824 27.5605 330.047C27.2676 330.264 27.0303 330.551 26.8486 330.908C26.6729 331.266 26.5703 331.711 26.541 332.244H23.5176C23.5352 331.582 23.626 330.993 23.79 330.478C23.96 329.956 24.1914 329.502 24.4844 329.115C24.7773 328.723 25.123 328.389 25.5215 328.113C25.9258 327.838 26.3682 327.615 26.8486 327.445C27.3291 327.275 27.8389 327.152 28.3779 327.076C28.9229 326.994 29.4824 326.953 30.0566 326.953C30.5137 326.953 30.9707 326.982 31.4277 327.041C31.8906 327.094 32.3359 327.188 32.7637 327.322C33.1914 327.451 33.5898 327.624 33.959 327.841C34.334 328.058 34.6592 328.33 34.9346 328.658C35.21 328.98 35.4238 329.364 35.5762 329.81C35.7344 330.255 35.8135 330.768 35.8135 331.348L35.8486 342H32.8955L32.8779 334.837ZM44.9629 339.697C45.6309 339.697 46.1846 339.589 46.624 339.372C47.0635 339.149 47.415 338.865 47.6787 338.52C47.9424 338.168 48.127 337.775 48.2324 337.342C48.3438 336.908 48.3994 336.48 48.3994 336.059V327.243H51.3877L51.3789 335.848C51.3789 336.398 51.3379 336.94 51.2559 337.474C51.1738 338.007 51.0361 338.514 50.8428 338.994C50.6553 339.475 50.4033 339.92 50.0869 340.33C49.7705 340.734 49.375 341.086 48.9004 341.385C48.4316 341.678 47.8721 341.906 47.2217 342.07C46.5771 342.24 45.8301 342.325 44.9805 342.325C44.125 342.325 43.3691 342.24 42.7129 342.07C42.0625 341.9 41.5 341.666 41.0254 341.367C40.5508 341.062 40.1553 340.705 39.8389 340.295C39.5225 339.879 39.2676 339.428 39.0742 338.941C38.8867 338.455 38.752 337.942 38.6699 337.403C38.5879 336.864 38.5469 336.319 38.5469 335.769L38.5732 327.243H41.5264V336.059C41.5264 336.48 41.5791 336.908 41.6846 337.342C41.7959 337.775 41.9834 338.168 42.2471 338.52C42.5107 338.865 42.8623 339.149 43.3018 339.372C43.7412 339.589 44.2949 339.697 44.9629 339.697ZM48.6367 349.198L48.6279 345.964H47.3271L47.3623 343.696H51.4229L51.4053 349.198H48.6367ZM56.459 337.104C56.5 337.591 56.5879 338.007 56.7227 338.353C56.8574 338.692 57.0449 338.971 57.2852 339.188C57.5312 339.398 57.8271 339.554 58.1729 339.653C58.5244 339.753 58.9346 339.803 59.4033 339.803C59.6729 339.803 59.96 339.776 60.2646 339.724C60.5752 339.671 60.8594 339.574 61.1172 339.434C61.3809 339.287 61.5977 339.091 61.7676 338.845C61.9375 338.599 62.0225 338.282 62.0225 337.896C62.0225 337.597 61.9609 337.345 61.8379 337.14C61.7148 336.929 61.5244 336.735 61.2666 336.56C61.0146 336.384 60.6924 336.214 60.2998 336.05C59.9072 335.88 59.4473 335.692 58.9199 335.487C58.4512 335.3 58 335.121 57.5664 334.951C57.1387 334.775 56.7373 334.597 56.3623 334.415C55.9932 334.228 55.6562 334.025 55.3516 333.809C55.0469 333.592 54.7861 333.352 54.5693 333.088C54.3525 332.818 54.1826 332.517 54.0596 332.183C53.9365 331.843 53.8721 331.456 53.8662 331.022C53.8604 330.548 53.9248 330.117 54.0596 329.73C54.2002 329.344 54.3906 329.001 54.6309 328.702C54.877 328.403 55.1641 328.143 55.4922 327.92C55.8262 327.697 56.1836 327.516 56.5645 327.375C56.9453 327.234 57.3408 327.129 57.751 327.059C58.1611 326.988 58.5713 326.953 58.9814 326.953C59.7842 326.953 60.5166 327.029 61.1787 327.182C61.8467 327.334 62.4238 327.595 62.9102 327.964C63.4023 328.333 63.7891 328.828 64.0703 329.449C64.3574 330.064 64.5244 330.841 64.5713 331.778H61.6182C61.5713 331.327 61.4834 330.949 61.3545 330.645C61.2256 330.334 61.0586 330.085 60.8535 329.897C60.6484 329.704 60.4053 329.566 60.124 329.484C59.8486 329.402 59.541 329.361 59.2012 329.361C58.9492 329.361 58.6914 329.391 58.4277 329.449C58.1641 329.508 57.9209 329.602 57.6982 329.73C57.4814 329.854 57.3027 330.021 57.1621 330.231C57.0215 330.437 56.9512 330.688 56.9512 330.987C56.9512 331.222 57.0127 331.427 57.1357 331.603C57.2588 331.778 57.4463 331.945 57.6982 332.104C57.9561 332.256 58.2812 332.411 58.6738 332.569C59.0664 332.728 59.5322 332.906 60.0713 333.105C61.0439 333.457 61.8496 333.794 62.4883 334.116C63.127 334.438 63.6309 334.781 64 335.145C64.375 335.508 64.6357 335.909 64.7822 336.349C64.9346 336.782 65.0078 337.286 65.002 337.86C65.0078 338.681 64.8643 339.372 64.5713 339.935C64.2842 340.497 63.8828 340.954 63.3672 341.306C62.8574 341.651 62.251 341.9 61.5479 342.053C60.8506 342.211 60.0977 342.29 59.2891 342.29C58.498 342.29 57.7598 342.196 57.0742 342.009C56.3945 341.827 55.7969 341.531 55.2812 341.121C54.7656 340.705 54.3496 340.169 54.0332 339.513C53.7168 338.851 53.5293 338.048 53.4707 337.104H56.459ZM54.9561 322.664H61.7236L61.6709 320.581H64.4746L64.4922 325.011H53.7607L54.9561 322.664Z" fill="#333332"></path></g></g>

<g id="province-25">
<g id="PRI_3" style="pointer-events: all; cursor: pointer; transform: scale(1);">
<g id="text_11">
<circle cx="260" cy="55" r="18" fill="rgb(146, 146, 157)"/>
<path id="1_11" d="M258.402 52.92H259.382C259.662 52.92 259.935 52.9 260.202 52.86C260.469 52.82 260.709 52.7467 260.922 52.64C261.149 52.52 261.329 52.36 261.462 52.16C261.595 51.9467 261.662 51.6733 261.662 51.34C261.662 50.9133 261.489 50.56 261.142 50.28C260.809 50 260.395 49.86 259.902 49.86C259.435 49.86 259.049 49.9867 258.742 50.24C258.435 50.4933 258.235 50.8067 258.142 51.18L254.842 50.5C255.002 49.8867 255.242 49.3667 255.562 48.94C255.882 48.5 256.262 48.1467 256.702 47.88C257.142 47.6133 257.629 47.42 258.162 47.3C258.709 47.1667 259.282 47.1 259.882 47.1C260.509 47.1 261.109 47.18 261.682 47.34C262.269 47.4867 262.782 47.7267 263.222 48.06C263.662 48.38 264.009 48.7867 264.262 49.28C264.529 49.7733 264.662 50.36 264.662 51.04C264.662 51.8267 264.455 52.5 264.042 53.06C263.629 53.62 263.029 53.98 262.242 54.14V54.2C262.669 54.2533 263.042 54.38 263.362 54.58C263.695 54.78 263.975 55.0267 264.202 55.32C264.429 55.6133 264.602 55.9467 264.722 56.32C264.842 56.6933 264.902 57.0867 264.902 57.5C264.902 58.2067 264.762 58.8267 264.482 59.36C264.215 59.8933 263.849 60.34 263.382 60.7C262.929 61.0467 262.389 61.3067 261.762 61.48C261.149 61.6533 260.495 61.74 259.802 61.74C258.535 61.74 257.442 61.4467 256.522 60.86C255.615 60.2733 255.015 59.3467 254.722 58.08L257.882 57.34C257.989 57.8467 258.202 58.2467 258.522 58.54C258.855 58.8333 259.342 58.98 259.982 58.98C260.635 58.98 261.115 58.8133 261.422 58.48C261.742 58.1333 261.902 57.6933 261.902 57.16C261.902 56.76 261.815 56.4533 261.642 56.24C261.482 56.0133 261.269 55.8467 261.002 55.74C260.735 55.6333 260.435 55.5733 260.102 55.56C259.769 55.5333 259.435 55.52 259.102 55.52H258.402V52.92Z" fill="#FFFBF8"></path></g></g>

<g id="PRI_2" style="pointer-events: all; cursor: pointer; transform: scale(1);">
<g id="text_12">
<circle cx="220" cy="55" r="18" fill="rgb(146, 146, 157)"/>
<path id="1_12" d="M215.062 58.32L220.562 53.38C220.842 53.1267 221.122 52.84 221.402 52.52C221.682 52.2 221.822 51.8267 221.822 51.4C221.822 50.92 221.649 50.5467 221.302 50.28C220.955 50 220.549 49.86 220.082 49.86C219.522 49.86 219.082 50.0333 218.762 50.38C218.455 50.7267 218.282 51.1533 218.242 51.66L215.242 51.44C215.282 50.7067 215.435 50.0733 215.702 49.54C215.969 48.9933 216.322 48.54 216.762 48.18C217.202 47.82 217.715 47.5533 218.302 47.38C218.902 47.1933 219.549 47.1 220.242 47.1C220.882 47.1 221.482 47.1933 222.042 47.38C222.602 47.5533 223.089 47.82 223.502 48.18C223.915 48.5267 224.235 48.9667 224.462 49.5C224.702 50.0333 224.822 50.6533 224.822 51.36C224.822 51.8133 224.775 52.2267 224.682 52.6C224.589 52.96 224.455 53.2933 224.282 53.6C224.122 53.8933 223.929 54.1667 223.702 54.42C223.475 54.6733 223.229 54.92 222.962 55.16L218.662 58.86H224.942V61.5H215.062V58.32Z" fill="#FFFBF8"></path></g></g>

<g id="PRI_1" style="pointer-events: all; cursor: pointer; transform: scale(1);">
<g id="text_13">
<circle cx="180" cy="55" r="18" fill="rgb(146, 146, 157)"/>
<path id="1_13" d="M179.842 50.7L177.002 53.2L175.302 51.24L179.922 47.34H182.722V61.5H179.842V50.7Z" fill="#FFFBF8"></path></g></g><g id="PRI_name" style="cursor: pointer;"><rect x="161" width="112" height="35" rx="4" fill="white"></rect><path id="เชียงใหม่_2" d="M174.9 23.6973C175.568 23.6973 176.122 23.5889 176.562 23.3721C177.001 23.1494 177.353 22.8652 177.616 22.5195C177.88 22.168 178.064 21.7754 178.17 21.3418C178.281 20.9082 178.337 20.4805 178.337 20.0586V4.79199H181.325L181.316 19.8477C181.316 20.3984 181.275 20.9404 181.193 21.4736C181.111 22.0068 180.974 22.5137 180.78 22.9941C180.593 23.4746 180.341 23.9199 180.024 24.3301C179.708 24.7344 179.312 25.0859 178.838 25.3848C178.369 25.6777 177.81 25.9062 177.159 26.0703C176.515 26.2402 175.768 26.3252 174.918 26.3252C174.062 26.3252 173.307 26.2402 172.65 26.0703C172 25.9004 171.438 25.666 170.963 25.3672C170.488 25.0625 170.093 24.7051 169.776 24.2949C169.46 23.8789 169.205 23.4277 169.012 22.9414C168.824 22.4551 168.689 21.9424 168.607 21.4033C168.525 20.8643 168.484 20.3193 168.484 19.7686L168.511 11.2432H171.464V20.0586C171.464 20.4805 171.517 20.9082 171.622 21.3418C171.733 21.7754 171.921 22.168 172.185 22.5195C172.448 22.8652 172.8 23.1494 173.239 23.3721C173.679 23.5889 174.232 23.6973 174.9 23.6973ZM186.396 21.1045C186.438 21.5908 186.525 22.0068 186.66 22.3525C186.795 22.6924 186.982 22.9707 187.223 23.1875C187.469 23.3984 187.765 23.5537 188.11 23.6533C188.462 23.7529 188.872 23.8027 189.341 23.8027C189.61 23.8027 189.897 23.7764 190.202 23.7236C190.513 23.6709 190.797 23.5742 191.055 23.4336C191.318 23.2871 191.535 23.0908 191.705 22.8447C191.875 22.5986 191.96 22.2822 191.96 21.8955C191.96 21.5967 191.898 21.3447 191.775 21.1396C191.652 20.9287 191.462 20.7354 191.204 20.5596C190.952 20.3838 190.63 20.2139 190.237 20.0498C189.845 19.8799 189.385 19.6924 188.857 19.4873C188.389 19.2998 187.938 19.1211 187.504 18.9512C187.076 18.7754 186.675 18.5967 186.3 18.415C185.931 18.2275 185.594 18.0254 185.289 17.8086C184.984 17.5918 184.724 17.3516 184.507 17.0879C184.29 16.8184 184.12 16.5166 183.997 16.1826C183.874 15.8428 183.81 15.4561 183.804 15.0225C183.798 14.5479 183.862 14.1172 183.997 13.7305C184.138 13.3438 184.328 13.001 184.568 12.7021C184.814 12.4033 185.102 12.1426 185.43 11.9199C185.764 11.6973 186.121 11.5156 186.502 11.375C186.883 11.2344 187.278 11.1289 187.688 11.0586C188.099 10.9883 188.509 10.9531 188.919 10.9531C189.722 10.9531 190.454 11.0293 191.116 11.1816C191.784 11.334 192.361 11.5947 192.848 11.9639C193.34 12.333 193.727 12.8281 194.008 13.4492C194.295 14.0645 194.462 14.8408 194.509 15.7783H191.556C191.509 15.3271 191.421 14.9492 191.292 14.6445C191.163 14.334 190.996 14.085 190.791 13.8975C190.586 13.7041 190.343 13.5664 190.062 13.4844C189.786 13.4023 189.479 13.3613 189.139 13.3613C188.887 13.3613 188.629 13.3906 188.365 13.4492C188.102 13.5078 187.858 13.6016 187.636 13.7305C187.419 13.8535 187.24 14.0205 187.1 14.2314C186.959 14.4365 186.889 14.6885 186.889 14.9873C186.889 15.2217 186.95 15.4268 187.073 15.6025C187.196 15.7783 187.384 15.9453 187.636 16.1035C187.894 16.2559 188.219 16.4111 188.611 16.5693C189.004 16.7275 189.47 16.9062 190.009 17.1055C190.981 17.457 191.787 17.7939 192.426 18.1162C193.064 18.4385 193.568 18.7812 193.938 19.1445C194.312 19.5078 194.573 19.9092 194.72 20.3486C194.872 20.7822 194.945 21.2861 194.939 21.8604C194.945 22.6807 194.802 23.3721 194.509 23.9346C194.222 24.4971 193.82 24.9541 193.305 25.3057C192.795 25.6514 192.188 25.9004 191.485 26.0527C190.788 26.2109 190.035 26.29 189.227 26.29C188.436 26.29 187.697 26.1963 187.012 26.0088C186.332 25.8271 185.734 25.5312 185.219 25.1211C184.703 24.7051 184.287 24.1689 183.971 23.5127C183.654 22.8506 183.467 22.0479 183.408 21.1045H186.396ZM196.179 16.1035C196.179 15.5469 196.249 15.0342 196.39 14.5654C196.536 14.0908 196.732 13.6631 196.979 13.2822C197.23 12.9014 197.526 12.5674 197.866 12.2803C198.212 11.9873 198.587 11.7441 198.991 11.5508C199.396 11.3516 199.82 11.2021 200.266 11.1025C200.717 11.0029 201.174 10.9531 201.637 10.9531C202.398 10.9531 203.104 11.0586 203.755 11.2695C204.411 11.4746 204.977 11.791 205.451 12.2188C205.932 12.6406 206.307 13.1768 206.576 13.8271C206.846 14.4717 206.978 15.2305 206.972 16.1035L206.998 26H204.045L204.019 16.6045C204.03 15.5439 203.831 14.7705 203.421 14.2842C203.011 13.792 202.419 13.5459 201.646 13.5459C200.96 13.5459 200.406 13.7598 199.984 14.1875C199.562 14.6152 199.325 15.2539 199.272 16.1035H196.179ZM221.43 16.1035C221.424 16.4844 221.365 16.9268 221.254 17.4307C221.143 17.9346 220.996 18.4736 220.814 19.0479C220.639 19.6162 220.434 20.208 220.199 20.8232C219.971 21.4326 219.73 22.042 219.479 22.6514C219.232 23.2549 218.98 23.8438 218.723 24.418C218.465 24.9863 218.225 25.5137 218.002 26H214.293L211.92 19.4521H209.942V17.1055H214.231L216.227 22.9062C216.443 22.3848 216.672 21.8281 216.912 21.2363C217.152 20.6445 217.372 20.0586 217.571 19.4785C217.776 18.8926 217.946 18.3271 218.081 17.7822C218.216 17.2373 218.292 16.748 218.31 16.3145C218.321 15.3535 218.075 14.6328 217.571 14.1523C217.073 13.6719 216.326 13.4316 215.33 13.4316C214.533 13.4316 213.903 13.6133 213.44 13.9766C212.978 14.3398 212.652 14.9287 212.465 15.7432H209.222C209.345 15.0166 209.573 14.3574 209.907 13.7656C210.247 13.1738 210.684 12.6699 211.217 12.2539C211.756 11.8379 212.389 11.5186 213.115 11.2959C213.848 11.0674 214.674 10.9531 215.594 10.9531C216.051 10.9531 216.514 10.9883 216.982 11.0586C217.451 11.123 217.902 11.2344 218.336 11.3926C218.775 11.5449 219.186 11.75 219.566 12.0078C219.947 12.2598 220.278 12.5762 220.56 12.957C220.841 13.3379 221.058 13.7891 221.21 14.3105C221.368 14.8262 221.441 15.4238 221.43 16.1035ZM211.753 6.66406H218.521L218.468 4.58105H221.271L221.289 9.01074H210.558L211.753 6.66406ZM233.963 26L233.901 24.1982C233.38 24.9072 232.744 25.4463 231.994 25.8154C231.25 26.1787 230.371 26.3604 229.357 26.3604C228.32 26.3604 227.459 26.2227 226.773 25.9473C226.088 25.666 225.54 25.2734 225.13 24.7695C224.72 24.2656 224.43 23.6621 224.26 22.959C224.09 22.2559 224.005 21.4824 224.005 20.6387L224.022 11.2432H226.976L226.94 20.9199C226.946 21.3242 227.017 21.6934 227.151 22.0273C227.286 22.3613 227.474 22.6484 227.714 22.8887C227.96 23.123 228.253 23.3047 228.593 23.4336C228.938 23.5625 229.322 23.627 229.744 23.627C230.436 23.627 231.039 23.5186 231.555 23.3018C232.07 23.0791 232.495 22.7744 232.829 22.3877C233.169 21.9951 233.421 21.5322 233.585 20.999C233.755 20.4658 233.837 19.8887 233.831 19.2676L233.849 11.2432H236.837L236.846 26H233.963ZM245.951 23.6973C246.619 23.6973 247.173 23.5889 247.612 23.3721C248.052 23.1494 248.403 22.8652 248.667 22.5195C248.931 22.168 249.115 21.7754 249.221 21.3418C249.332 20.9082 249.388 20.4805 249.388 20.0586V11.2432H252.376L252.367 19.8477C252.367 20.3984 252.326 20.9404 252.244 21.4736C252.162 22.0068 252.024 22.5137 251.831 22.9941C251.644 23.4746 251.392 23.9199 251.075 24.3301C250.759 24.7344 250.363 25.0859 249.889 25.3848C249.42 25.6777 248.86 25.9062 248.21 26.0703C247.565 26.2402 246.818 26.3252 245.969 26.3252C245.113 26.3252 244.357 26.2402 243.701 26.0703C243.051 25.9004 242.488 25.666 242.014 25.3672C241.539 25.0625 241.144 24.7051 240.827 24.2949C240.511 23.8789 240.256 23.4277 240.062 22.9414C239.875 22.4551 239.74 21.9424 239.658 21.4033C239.576 20.8643 239.535 20.3193 239.535 19.7686L239.562 11.2432H242.515V20.0586C242.515 20.4805 242.567 20.9082 242.673 21.3418C242.784 21.7754 242.972 22.168 243.235 22.5195C243.499 22.8652 243.851 23.1494 244.29 23.3721C244.729 23.5889 245.283 23.6973 245.951 23.6973ZM249.625 33.1982L249.616 29.9639H248.315L248.351 27.6963H252.411L252.394 33.1982H249.625ZM257.447 21.1045C257.488 21.5908 257.576 22.0068 257.711 22.3525C257.846 22.6924 258.033 22.9707 258.273 23.1875C258.52 23.3984 258.815 23.5537 259.161 23.6533C259.513 23.7529 259.923 23.8027 260.392 23.8027C260.661 23.8027 260.948 23.7764 261.253 23.7236C261.563 23.6709 261.848 23.5742 262.105 23.4336C262.369 23.2871 262.586 23.0908 262.756 22.8447C262.926 22.5986 263.011 22.2822 263.011 21.8955C263.011 21.5967 262.949 21.3447 262.826 21.1396C262.703 20.9287 262.513 20.7354 262.255 20.5596C262.003 20.3838 261.681 20.2139 261.288 20.0498C260.896 19.8799 260.436 19.6924 259.908 19.4873C259.439 19.2998 258.988 19.1211 258.555 18.9512C258.127 18.7754 257.726 18.5967 257.351 18.415C256.981 18.2275 256.645 18.0254 256.34 17.8086C256.035 17.5918 255.774 17.3516 255.558 17.0879C255.341 16.8184 255.171 16.5166 255.048 16.1826C254.925 15.8428 254.86 15.4561 254.854 15.0225C254.849 14.5479 254.913 14.1172 255.048 13.7305C255.188 13.3438 255.379 13.001 255.619 12.7021C255.865 12.4033 256.152 12.1426 256.48 11.9199C256.814 11.6973 257.172 11.5156 257.553 11.375C257.934 11.2344 258.329 11.1289 258.739 11.0586C259.149 10.9883 259.56 10.9531 259.97 10.9531C260.772 10.9531 261.505 11.0293 262.167 11.1816C262.835 11.334 263.412 11.5947 263.898 11.9639C264.391 12.333 264.777 12.8281 265.059 13.4492C265.346 14.0645 265.513 14.8408 265.56 15.7783H262.606C262.56 15.3271 262.472 14.9492 262.343 14.6445C262.214 14.334 262.047 14.085 261.842 13.8975C261.637 13.7041 261.394 13.5664 261.112 13.4844C260.837 13.4023 260.529 13.3613 260.189 13.3613C259.938 13.3613 259.68 13.3906 259.416 13.4492C259.152 13.5078 258.909 13.6016 258.687 13.7305C258.47 13.8535 258.291 14.0205 258.15 14.2314C258.01 14.4365 257.939 14.6885 257.939 14.9873C257.939 15.2217 258.001 15.4268 258.124 15.6025C258.247 15.7783 258.435 15.9453 258.687 16.1035C258.944 16.2559 259.27 16.4111 259.662 16.5693C260.055 16.7275 260.521 16.9062 261.06 17.1055C262.032 17.457 262.838 17.7939 263.477 18.1162C264.115 18.4385 264.619 18.7812 264.988 19.1445C265.363 19.5078 265.624 19.9092 265.771 20.3486C265.923 20.7822 265.996 21.2861 265.99 21.8604C265.996 22.6807 265.853 23.3721 265.56 23.9346C265.272 24.4971 264.871 24.9541 264.355 25.3057C263.846 25.6514 263.239 25.9004 262.536 26.0527C261.839 26.2109 261.086 26.29 260.277 26.29C259.486 26.29 258.748 26.1963 258.062 26.0088C257.383 25.8271 256.785 25.5312 256.27 25.1211C255.754 24.7051 255.338 24.1689 255.021 23.5127C254.705 22.8506 254.518 22.0479 254.459 21.1045H257.447ZM255.944 6.66406H262.712L262.659 4.58105H265.463L265.48 9.01074H254.749L255.944 6.66406Z" fill="#333332"></path></g></g>


<g id="province-24">
<g id="CCO_4" style="pointer-events: all; cursor: pointer; transform: scale(1);">
<g id="text_14">
<circle cx="220" cy="195" r="18" fill="rgb(146, 146, 157)"/>
<path id="1_14" d="M220.742 197.66H214.562V195.14L220.342 186.34H223.622V195.14H225.442V197.66H223.622V200.5H220.742V197.66ZM220.742 190.26H220.702L217.562 195.14H220.742V190.26Z" fill="#FFFBF8"></path></g></g>

<g id="CCO_3" style="pointer-events: all; cursor: pointer; transform: scale(1);">
<g id="text_15">
<circle cx="260" cy="155" r="18" fill="rgb(146, 146, 157)"/>
<path id="1_15" d="M258.402 151.92H259.382C259.662 151.92 259.935 151.9 260.202 151.86C260.469 151.82 260.709 151.747 260.922 151.64C261.149 151.52 261.329 151.36 261.462 151.16C261.595 150.947 261.662 150.673 261.662 150.34C261.662 149.913 261.489 149.56 261.142 149.28C260.809 149 260.395 148.86 259.902 148.86C259.435 148.86 259.049 148.987 258.742 149.24C258.435 149.493 258.235 149.807 258.142 150.18L254.842 149.5C255.002 148.887 255.242 148.367 255.562 147.94C255.882 147.5 256.262 147.147 256.702 146.88C257.142 146.613 257.629 146.42 258.162 146.3C258.709 146.167 259.282 146.1 259.882 146.1C260.509 146.1 261.109 146.18 261.682 146.34C262.269 146.487 262.782 146.727 263.222 147.06C263.662 147.38 264.009 147.787 264.262 148.28C264.529 148.773 264.662 149.36 264.662 150.04C264.662 150.827 264.455 151.5 264.042 152.06C263.629 152.62 263.029 152.98 262.242 153.14V153.2C262.669 153.253 263.042 153.38 263.362 153.58C263.695 153.78 263.975 154.027 264.202 154.32C264.429 154.613 264.602 154.947 264.722 155.32C264.842 155.693 264.902 156.087 264.902 156.5C264.902 157.207 264.762 157.827 264.482 158.36C264.215 158.893 263.849 159.34 263.382 159.7C262.929 160.047 262.389 160.307 261.762 160.48C261.149 160.653 260.495 160.74 259.802 160.74C258.535 160.74 257.442 160.447 256.522 159.86C255.615 159.273 255.015 158.347 254.722 157.08L257.882 156.34C257.989 156.847 258.202 157.247 258.522 157.54C258.855 157.833 259.342 157.98 259.982 157.98C260.635 157.98 261.115 157.813 261.422 157.48C261.742 157.133 261.902 156.693 261.902 156.16C261.902 155.76 261.815 155.453 261.642 155.24C261.482 155.013 261.269 154.847 261.002 154.74C260.735 154.633 260.435 154.573 260.102 154.56C259.769 154.533 259.435 154.52 259.102 154.52H258.402V151.92Z" fill="#FFFBF8"></path></g></g>

<g id="CCO_2" style="pointer-events: all; cursor: pointer; transform: scale(1);">
<g id="text_16">
<circle cx="220" cy="155" r="18" fill="rgb(146, 146, 157)"/>
<path id="1_16" d="M215.062 157.32L220.562 152.38C220.842 152.127 221.122 151.84 221.402 151.52C221.682 151.2 221.822 150.827 221.822 150.4C221.822 149.92 221.649 149.547 221.302 149.28C220.955 149 220.549 148.86 220.082 148.86C219.522 148.86 219.082 149.033 218.762 149.38C218.455 149.727 218.282 150.153 218.242 150.66L215.242 150.44C215.282 149.707 215.435 149.073 215.702 148.54C215.969 147.993 216.322 147.54 216.762 147.18C217.202 146.82 217.715 146.553 218.302 146.38C218.902 146.193 219.549 146.1 220.242 146.1C220.882 146.1 221.482 146.193 222.042 146.38C222.602 146.553 223.089 146.82 223.502 147.18C223.915 147.527 224.235 147.967 224.462 148.5C224.702 149.033 224.822 149.653 224.822 150.36C224.822 150.813 224.775 151.227 224.682 151.6C224.589 151.96 224.455 152.293 224.282 152.6C224.122 152.893 223.929 153.167 223.702 153.42C223.475 153.673 223.229 153.92 222.962 154.16L218.662 157.86H224.942V160.5H215.062V157.32Z" fill="#FFFBF8"></path></g></g>

<g id="CCO_1" style="pointer-events: all; cursor: pointer; transform: scale(1);">
<g id="text_17">
<circle cx="180" cy="155" r="18" fill="rgb(146, 146, 157)"/>
<path id="1_17" d="M179.842 149.7L177.002 152.2L175.302 150.24L179.922 146.34H182.722V160.5H179.842V149.7Z" fill="#FFFBF8"></path></g></g><g id="CCO_name" style="cursor: pointer;"><rect x="162" y="99" width="116" height="35" rx="4" fill="white"></rect><path id="เชียงใหม่_3" d="M169.103 114.989C169.173 114.321 169.346 113.683 169.621 113.073C169.902 112.464 170.31 111.925 170.843 111.456C171.376 110.987 172.041 110.615 172.838 110.34C173.641 110.059 174.596 109.918 175.703 109.918C176.576 109.918 177.344 110 178.006 110.164C178.674 110.328 179.251 110.557 179.737 110.85C180.229 111.143 180.637 111.491 180.959 111.896C181.287 112.3 181.548 112.742 181.741 113.223C181.94 113.697 182.081 114.201 182.163 114.734C182.245 115.268 182.289 115.81 182.295 116.36V125H179.447L179.351 123.348C178.823 124.051 178.188 124.563 177.443 124.886C176.699 125.202 175.82 125.36 174.807 125.36C173.77 125.36 172.908 125.223 172.223 124.947C171.537 124.666 170.989 124.273 170.579 123.77C170.169 123.266 169.879 122.662 169.709 121.959C169.539 121.256 169.454 120.482 169.454 119.639L169.445 116.756H172.398L172.39 119.92C172.396 120.324 172.466 120.693 172.601 121.027C172.735 121.361 172.923 121.648 173.163 121.889C173.409 122.123 173.702 122.305 174.042 122.434C174.388 122.562 174.771 122.627 175.193 122.627C175.885 122.627 176.488 122.519 177.004 122.302C177.52 122.079 177.944 121.774 178.278 121.388C178.618 120.995 178.87 120.532 179.034 119.999C179.204 119.466 179.286 118.889 179.28 118.268V116.07C179.28 115.648 179.225 115.229 179.113 114.813C179.002 114.392 178.809 114.014 178.533 113.68C178.258 113.34 177.889 113.067 177.426 112.862C176.963 112.651 176.38 112.546 175.677 112.546C175.05 112.546 174.522 112.622 174.095 112.774C173.667 112.921 173.318 113.114 173.049 113.354C172.785 113.589 172.583 113.85 172.442 114.137C172.308 114.424 172.217 114.708 172.17 114.989H169.103ZM184.984 115.385V112.001H187.718L187.735 113.082H191.26L191.251 115.385H184.984ZM184.993 122.697L185.002 119.349H187.735L187.709 120.43H191.242L191.26 122.697H184.993ZM194.195 125V110.243H197.184V125H194.195ZM208.354 119.129C208.354 118.578 208.29 118.145 208.161 117.828C208.038 117.506 207.859 117.263 207.625 117.099C207.391 116.929 207.104 116.82 206.764 116.773C206.43 116.727 206.052 116.697 205.63 116.686L205.604 114.523C206.178 114.523 206.658 114.436 207.045 114.26C207.438 114.078 207.751 113.809 207.985 113.451C208.226 113.094 208.396 112.648 208.495 112.115C208.601 111.576 208.656 110.952 208.662 110.243H211.65C211.645 110.782 211.604 111.318 211.527 111.852C211.451 112.385 211.316 112.889 211.123 113.363C210.93 113.832 210.669 114.254 210.341 114.629C210.013 115.004 209.6 115.306 209.102 115.534C209.453 115.64 209.752 115.777 209.998 115.947C210.244 116.111 210.449 116.296 210.613 116.501C210.777 116.706 210.906 116.923 211 117.151C211.094 117.38 211.164 117.611 211.211 117.846C211.258 118.074 211.284 118.3 211.29 118.522C211.302 118.739 211.308 118.941 211.308 119.129L211.299 120.324C211.305 120.898 211.237 121.423 211.097 121.897C210.956 122.372 210.76 122.797 210.508 123.172C210.262 123.541 209.966 123.863 209.62 124.139C209.274 124.414 208.896 124.643 208.486 124.824C208.082 125.006 207.651 125.141 207.194 125.229C206.743 125.316 206.283 125.36 205.814 125.36C205.094 125.36 204.396 125.252 203.723 125.035C203.055 124.824 202.46 124.508 201.938 124.086C201.423 123.658 201.007 123.131 200.69 122.504C200.374 121.877 200.213 121.15 200.207 120.324L200.216 119.129C200.216 118.754 200.228 118.426 200.251 118.145C200.274 117.863 200.307 117.614 200.348 117.397C200.395 117.175 200.456 116.976 200.532 116.8C200.608 116.618 200.699 116.442 200.805 116.272C200.916 116.103 201.045 115.93 201.191 115.754C201.338 115.572 201.508 115.367 201.701 115.139C201.842 114.957 201.968 114.793 202.079 114.646C202.196 114.494 202.296 114.351 202.378 114.216C202.46 114.081 202.527 113.946 202.58 113.812C202.633 113.671 202.671 113.524 202.694 113.372C202.718 113.226 202.712 113.091 202.677 112.968C202.647 112.845 202.592 112.739 202.51 112.651C202.434 112.558 202.337 112.487 202.22 112.44C202.108 112.388 201.979 112.361 201.833 112.361C201.669 112.361 201.508 112.373 201.35 112.396C201.191 112.42 201.019 112.458 200.831 112.511C200.644 112.558 200.433 112.622 200.198 112.704C199.97 112.78 199.706 112.871 199.407 112.977L199.425 110.674C199.724 110.568 200.017 110.475 200.304 110.393C200.591 110.311 200.857 110.243 201.104 110.19C201.35 110.132 201.569 110.091 201.763 110.067C201.962 110.038 202.12 110.023 202.237 110.023C202.794 110.023 203.298 110.091 203.749 110.226C204.206 110.354 204.59 110.554 204.9 110.823C205.211 111.093 205.437 111.43 205.577 111.834C205.724 112.238 205.765 112.716 205.7 113.267C205.659 113.536 205.589 113.791 205.489 114.031C205.39 114.271 205.261 114.523 205.103 114.787C204.944 115.045 204.754 115.329 204.531 115.64C204.309 115.95 204.054 116.311 203.767 116.721C203.614 116.938 203.5 117.134 203.424 117.31C203.348 117.479 203.292 117.649 203.257 117.819C203.222 117.983 203.198 118.153 203.187 118.329C203.181 118.505 203.169 118.701 203.151 118.918L203.178 119.885C203.178 120.342 203.245 120.749 203.38 121.106C203.521 121.458 203.711 121.757 203.951 122.003C204.191 122.243 204.473 122.425 204.795 122.548C205.123 122.671 205.472 122.732 205.841 122.732C206.192 122.732 206.521 122.688 206.825 122.601C207.13 122.507 207.394 122.357 207.616 122.152C207.845 121.941 208.023 121.669 208.152 121.335C208.281 121.001 208.343 120.591 208.337 120.104L208.354 119.129ZM198.467 108.011L199.653 105.664H211.352V108.011H198.467ZM218.436 122.267C218.5 122.466 218.597 122.612 218.726 122.706C218.86 122.794 219.007 122.838 219.165 122.838C219.423 122.838 219.628 122.768 219.78 122.627C219.933 122.486 220.015 122.316 220.026 122.117L220 112.546H217.952L217.97 110.243H222.979L222.953 121.651C222.959 122.308 222.862 122.87 222.663 123.339C222.464 123.808 222.191 124.191 221.846 124.49C221.5 124.789 221.093 125.009 220.624 125.149C220.161 125.29 219.663 125.36 219.13 125.36C218.597 125.36 218.131 125.293 217.732 125.158C217.334 125.023 216.988 124.833 216.695 124.587C216.402 124.341 216.15 124.045 215.939 123.699C215.734 123.354 215.556 122.97 215.403 122.548L213.065 116.141H216.159L218.436 122.267ZM226.012 125V110.243H229V125H226.012ZM234.897 110.243L234.915 112.036C235.431 111.333 236.063 110.8 236.813 110.437C237.563 110.067 238.445 109.883 239.459 109.883C240.496 109.883 241.357 110.023 242.043 110.305C242.729 110.58 243.276 110.97 243.687 111.474C244.097 111.978 244.387 112.581 244.557 113.284C244.727 113.987 244.812 114.761 244.812 115.604L244.838 125H241.885L241.867 115.314C241.861 114.91 241.794 114.544 241.665 114.216C241.536 113.882 241.352 113.598 241.111 113.363C240.877 113.123 240.59 112.938 240.25 112.81C239.91 112.681 239.529 112.616 239.107 112.616C238.41 112.616 237.804 112.728 237.288 112.95C236.778 113.167 236.354 113.472 236.014 113.864C235.674 114.251 235.419 114.711 235.249 115.244C235.079 115.777 234.991 116.354 234.985 116.976L235.012 125H232.023L232.015 110.243H234.897ZM249.9 120.104C249.941 120.591 250.029 121.007 250.164 121.353C250.299 121.692 250.486 121.971 250.727 122.188C250.973 122.398 251.269 122.554 251.614 122.653C251.966 122.753 252.376 122.803 252.845 122.803C253.114 122.803 253.401 122.776 253.706 122.724C254.017 122.671 254.301 122.574 254.559 122.434C254.822 122.287 255.039 122.091 255.209 121.845C255.379 121.599 255.464 121.282 255.464 120.896C255.464 120.597 255.402 120.345 255.279 120.14C255.156 119.929 254.966 119.735 254.708 119.56C254.456 119.384 254.134 119.214 253.741 119.05C253.349 118.88 252.889 118.692 252.361 118.487C251.893 118.3 251.441 118.121 251.008 117.951C250.58 117.775 250.179 117.597 249.804 117.415C249.435 117.228 249.098 117.025 248.793 116.809C248.488 116.592 248.228 116.352 248.011 116.088C247.794 115.818 247.624 115.517 247.501 115.183C247.378 114.843 247.313 114.456 247.308 114.022C247.302 113.548 247.366 113.117 247.501 112.73C247.642 112.344 247.832 112.001 248.072 111.702C248.318 111.403 248.605 111.143 248.934 110.92C249.268 110.697 249.625 110.516 250.006 110.375C250.387 110.234 250.782 110.129 251.192 110.059C251.603 109.988 252.013 109.953 252.423 109.953C253.226 109.953 253.958 110.029 254.62 110.182C255.288 110.334 255.865 110.595 256.352 110.964C256.844 111.333 257.23 111.828 257.512 112.449C257.799 113.064 257.966 113.841 258.013 114.778H255.06C255.013 114.327 254.925 113.949 254.796 113.645C254.667 113.334 254.5 113.085 254.295 112.897C254.09 112.704 253.847 112.566 253.565 112.484C253.29 112.402 252.982 112.361 252.643 112.361C252.391 112.361 252.133 112.391 251.869 112.449C251.605 112.508 251.362 112.602 251.14 112.73C250.923 112.854 250.744 113.021 250.604 113.231C250.463 113.437 250.393 113.688 250.393 113.987C250.393 114.222 250.454 114.427 250.577 114.603C250.7 114.778 250.888 114.945 251.14 115.104C251.397 115.256 251.723 115.411 252.115 115.569C252.508 115.728 252.974 115.906 253.513 116.105C254.485 116.457 255.291 116.794 255.93 117.116C256.568 117.438 257.072 117.781 257.441 118.145C257.816 118.508 258.077 118.909 258.224 119.349C258.376 119.782 258.449 120.286 258.443 120.86C258.449 121.681 258.306 122.372 258.013 122.935C257.726 123.497 257.324 123.954 256.809 124.306C256.299 124.651 255.692 124.9 254.989 125.053C254.292 125.211 253.539 125.29 252.73 125.29C251.939 125.29 251.201 125.196 250.516 125.009C249.836 124.827 249.238 124.531 248.723 124.121C248.207 123.705 247.791 123.169 247.475 122.513C247.158 121.851 246.971 121.048 246.912 120.104H249.9ZM259.683 115.104C259.683 114.547 259.753 114.034 259.894 113.565C260.04 113.091 260.236 112.663 260.482 112.282C260.734 111.901 261.03 111.567 261.37 111.28C261.716 110.987 262.091 110.744 262.495 110.551C262.899 110.352 263.324 110.202 263.77 110.103C264.221 110.003 264.678 109.953 265.141 109.953C265.902 109.953 266.608 110.059 267.259 110.27C267.915 110.475 268.48 110.791 268.955 111.219C269.436 111.641 269.811 112.177 270.08 112.827C270.35 113.472 270.481 114.23 270.476 115.104L270.502 125H267.549L267.522 115.604C267.534 114.544 267.335 113.771 266.925 113.284C266.515 112.792 265.923 112.546 265.149 112.546C264.464 112.546 263.91 112.76 263.488 113.188C263.066 113.615 262.829 114.254 262.776 115.104H259.683Z" fill="#333332"></path></g></g>

<g id="province-27">
<g id="SKW_3" style="pointer-events: all; cursor: pointer; transform: scale(1);">
<g id="text_18">
<circle cx="380" cy="135" r="18" fill="rgb(146, 146, 157)"/>
<path id="1_18" d="M378.402 132.92H379.382C379.662 132.92 379.935 132.9 380.202 132.86C380.469 132.82 380.709 132.747 380.922 132.64C381.149 132.52 381.329 132.36 381.462 132.16C381.595 131.947 381.662 131.673 381.662 131.34C381.662 130.913 381.489 130.56 381.142 130.28C380.809 130 380.395 129.86 379.902 129.86C379.435 129.86 379.049 129.987 378.742 130.24C378.435 130.493 378.235 130.807 378.142 131.18L374.842 130.5C375.002 129.887 375.242 129.367 375.562 128.94C375.882 128.5 376.262 128.147 376.702 127.88C377.142 127.613 377.629 127.42 378.162 127.3C378.709 127.167 379.282 127.1 379.882 127.1C380.509 127.1 381.109 127.18 381.682 127.34C382.269 127.487 382.782 127.727 383.222 128.06C383.662 128.38 384.009 128.787 384.262 129.28C384.529 129.773 384.662 130.36 384.662 131.04C384.662 131.827 384.455 132.5 384.042 133.06C383.629 133.62 383.029 133.98 382.242 134.14V134.2C382.669 134.253 383.042 134.38 383.362 134.58C383.695 134.78 383.975 135.027 384.202 135.32C384.429 135.613 384.602 135.947 384.722 136.32C384.842 136.693 384.902 137.087 384.902 137.5C384.902 138.207 384.762 138.827 384.482 139.36C384.215 139.893 383.849 140.34 383.382 140.7C382.929 141.047 382.389 141.307 381.762 141.48C381.149 141.653 380.495 141.74 379.802 141.74C378.535 141.74 377.442 141.447 376.522 140.86C375.615 140.273 375.015 139.347 374.722 138.08L377.882 137.34C377.989 137.847 378.202 138.247 378.522 138.54C378.855 138.833 379.342 138.98 379.982 138.98C380.635 138.98 381.115 138.813 381.422 138.48C381.742 138.133 381.902 137.693 381.902 137.16C381.902 136.76 381.815 136.453 381.642 136.24C381.482 136.013 381.269 135.847 381.002 135.74C380.735 135.633 380.435 135.573 380.102 135.56C379.769 135.533 379.435 135.52 379.102 135.52H378.402V132.92Z" fill="#FFFBF8"></path></g></g>

<g id="SKW_2" style="pointer-events: all; cursor: pointer; transform: scale(1);">
<g id="text_19">
<circle cx="380" cy="95" r="18" fill="rgb(146, 146, 157)"/>
<path id="1_19" d="M375.062 98.32L380.562 93.38C380.842 93.1267 381.122 92.84 381.402 92.52C381.682 92.2 381.822 91.8267 381.822 91.4C381.822 90.92 381.649 90.5467 381.302 90.28C380.955 90 380.549 89.86 380.082 89.86C379.522 89.86 379.082 90.0333 378.762 90.38C378.455 90.7267 378.282 91.1533 378.242 91.66L375.242 91.44C375.282 90.7067 375.435 90.0733 375.702 89.54C375.969 88.9933 376.322 88.54 376.762 88.18C377.202 87.82 377.715 87.5533 378.302 87.38C378.902 87.1933 379.549 87.1 380.242 87.1C380.882 87.1 381.482 87.1933 382.042 87.38C382.602 87.5533 383.089 87.82 383.502 88.18C383.915 88.5267 384.235 88.9667 384.462 89.5C384.702 90.0333 384.822 90.6533 384.822 91.36C384.822 91.8133 384.775 92.2267 384.682 92.6C384.589 92.96 384.455 93.2933 384.282 93.6C384.122 93.8933 383.929 94.1667 383.702 94.42C383.475 94.6733 383.229 94.92 382.962 95.16L378.662 98.86H384.942V101.5H375.062V98.32Z" fill="#FFFBF8"></path></g></g>

<g id="SKW_1" style="pointer-events: all; cursor: pointer; transform: scale(1);">
<g id="text_20">
<circle cx="340" cy="95" r="18" fill="rgb(146, 146, 157)"/>
<path id="1_20" d="M339.842 90.7L337.002 93.2L335.302 91.24L339.922 87.34H342.722V101.5H339.842V90.7Z" fill="#FFFBF8"></path></g></g><g id="SKW_name" style="cursor: pointer;"><rect x="307.5" y="40" width="90" height="35" rx="4" fill="white"></rect><path id="เชียงใหม่_4" d="M324.428 58.7666C324.059 58.9307 323.634 59.0654 323.153 59.1709C322.673 59.2764 322.192 59.3555 321.712 59.4082C321.202 59.4609 320.695 59.5283 320.191 59.6104C319.693 59.6924 319.245 59.8213 318.847 59.9971C318.448 60.167 318.126 60.4043 317.88 60.709C317.64 61.0078 317.522 61.4033 317.528 61.8955C317.528 62.2646 317.604 62.5752 317.757 62.8271C317.915 63.0732 318.12 63.2725 318.372 63.4248C318.63 63.5713 318.917 63.6768 319.233 63.7412C319.556 63.8057 319.881 63.8379 320.209 63.8379C320.479 63.8379 320.76 63.8145 321.053 63.7676C321.346 63.7207 321.647 63.6621 321.958 63.5918V65.9648C321.548 66.0703 321.161 66.1494 320.798 66.2021C320.435 66.2607 320.054 66.29 319.655 66.29C318.964 66.29 318.305 66.2139 317.678 66.0615C317.057 65.915 316.509 65.6777 316.034 65.3496C315.565 65.0156 315.193 64.582 314.918 64.0488C314.643 63.5098 314.508 62.8535 314.514 62.0801C314.514 61.4238 314.607 60.8584 314.795 60.3838C314.982 59.9033 315.237 59.4932 315.56 59.1533C315.888 58.8076 316.271 58.5234 316.711 58.3008C317.156 58.0781 317.628 57.8936 318.126 57.7471C318.63 57.5947 319.151 57.4746 319.69 57.3867C320.235 57.2988 320.774 57.2168 321.308 57.1406C321.7 57.0879 322.084 57.0293 322.459 56.9648C322.834 56.9004 323.165 56.8154 323.452 56.71C323.745 56.5986 323.979 56.4551 324.155 56.2793C324.337 56.1035 324.431 55.875 324.437 55.5938C324.437 55.1191 324.346 54.7383 324.164 54.4512C323.988 54.1641 323.757 53.9473 323.47 53.8008C323.188 53.6484 322.869 53.5488 322.512 53.502C322.16 53.4551 321.809 53.4316 321.457 53.4316C320.988 53.4316 320.555 53.4785 320.156 53.5723C319.758 53.6602 319.409 53.8125 319.11 54.0293C318.817 54.2402 318.58 54.5244 318.398 54.8818C318.223 55.2334 318.12 55.6758 318.091 56.209H315.067C315.091 55.5469 315.188 54.958 315.357 54.4424C315.527 53.9209 315.759 53.4668 316.052 53.0801C316.351 52.6875 316.702 52.3535 317.106 52.0781C317.511 51.8027 317.95 51.5801 318.425 51.4102C318.905 51.2402 319.418 51.1172 319.963 51.041C320.508 50.959 321.067 50.918 321.642 50.918C322.075 50.918 322.515 50.9473 322.96 51.0059C323.405 51.0586 323.83 51.1494 324.234 51.2783C324.445 51.2607 324.633 51.2051 324.797 51.1113C324.961 51.0117 325.099 50.8916 325.21 50.751C325.321 50.6104 325.406 50.4551 325.465 50.2852C325.523 50.1094 325.559 49.9365 325.57 49.7666H328.743C328.743 50.0361 328.705 50.3291 328.629 50.6455C328.553 50.9561 328.433 51.2578 328.269 51.5508C328.104 51.8438 327.891 52.1104 327.627 52.3506C327.369 52.5908 327.062 52.7725 326.704 52.8955C326.897 53.2236 327.056 53.5928 327.179 54.0029C327.308 54.4072 327.372 54.8555 327.372 55.3477L327.407 66H324.454L324.428 58.7666ZM332.479 61.1045C332.52 61.5908 332.607 62.0068 332.742 62.3525C332.877 62.6924 333.064 62.9707 333.305 63.1875C333.551 63.3984 333.847 63.5537 334.192 63.6533C334.544 63.7529 334.954 63.8027 335.423 63.8027C335.692 63.8027 335.979 63.7764 336.284 63.7236C336.595 63.6709 336.879 63.5742 337.137 63.4336C337.4 63.2871 337.617 63.0908 337.787 62.8447C337.957 62.5986 338.042 62.2822 338.042 61.8955C338.042 61.5967 337.98 61.3447 337.857 61.1396C337.734 60.9287 337.544 60.7354 337.286 60.5596C337.034 60.3838 336.712 60.2139 336.319 60.0498C335.927 59.8799 335.467 59.6924 334.939 59.4873C334.471 59.2998 334.02 59.1211 333.586 58.9512C333.158 58.7754 332.757 58.5967 332.382 58.415C332.013 58.2275 331.676 58.0254 331.371 57.8086C331.066 57.5918 330.806 57.3516 330.589 57.0879C330.372 56.8184 330.202 56.5166 330.079 56.1826C329.956 55.8428 329.892 55.4561 329.886 55.0225C329.88 54.5479 329.944 54.1172 330.079 53.7305C330.22 53.3438 330.41 53.001 330.65 52.7021C330.896 52.4033 331.184 52.1426 331.512 51.9199C331.846 51.6973 332.203 51.5156 332.584 51.375C332.965 51.2344 333.36 51.1289 333.771 51.0586C334.181 50.9883 334.591 50.9531 335.001 50.9531C335.804 50.9531 336.536 51.0293 337.198 51.1816C337.866 51.334 338.443 51.5947 338.93 51.9639C339.422 52.333 339.809 52.8281 340.09 53.4492C340.377 54.0645 340.544 54.8408 340.591 55.7783H337.638C337.591 55.3271 337.503 54.9492 337.374 54.6445C337.245 54.334 337.078 54.085 336.873 53.8975C336.668 53.7041 336.425 53.5664 336.144 53.4844C335.868 53.4023 335.561 53.3613 335.221 53.3613C334.969 53.3613 334.711 53.3906 334.447 53.4492C334.184 53.5078 333.94 53.6016 333.718 53.7305C333.501 53.8535 333.322 54.0205 333.182 54.2314C333.041 54.4365 332.971 54.6885 332.971 54.9873C332.971 55.2217 333.032 55.4268 333.155 55.6025C333.278 55.7783 333.466 55.9453 333.718 56.1035C333.976 56.2559 334.301 56.4111 334.693 56.5693C335.086 56.7275 335.552 56.9062 336.091 57.1055C337.063 57.457 337.869 57.7939 338.508 58.1162C339.146 58.4385 339.65 58.7812 340.02 59.1445C340.395 59.5078 340.655 59.9092 340.802 60.3486C340.954 60.7822 341.027 61.2861 341.021 61.8604C341.027 62.6807 340.884 63.3721 340.591 63.9346C340.304 64.4971 339.902 64.9541 339.387 65.3057C338.877 65.6514 338.271 65.9004 337.567 66.0527C336.87 66.2109 336.117 66.29 335.309 66.29C334.518 66.29 333.779 66.1963 333.094 66.0088C332.414 65.8271 331.816 65.5312 331.301 65.1211C330.785 64.7051 330.369 64.1689 330.053 63.5127C329.736 62.8506 329.549 62.0479 329.49 61.1045H332.479ZM343.219 56.3848V53.001H345.952L345.97 54.082H349.494L349.485 56.3848H343.219ZM343.228 63.6973L343.236 60.3486H345.97L345.943 61.4297H349.477L349.494 63.6973H343.228ZM352.43 66V51.2432H355.418V66H352.43ZM357.404 66L357.396 51.2432H360.384L360.393 66H357.404ZM369.401 53.4316C368.792 53.4258 368.259 53.4932 367.802 53.6338C367.351 53.7686 366.967 53.9414 366.65 54.1523C366.34 54.3633 366.094 54.5889 365.912 54.8291C365.736 55.0693 365.625 55.2891 365.578 55.4883C365.725 55.623 365.859 55.7842 365.982 55.9717C366.111 56.1533 366.223 56.3555 366.316 56.5781C366.41 56.7949 366.48 57.0293 366.527 57.2812C366.58 57.5273 366.604 57.7822 366.598 58.0459L366.633 66H363.68L363.671 58.0107C363.665 57.8115 363.645 57.6094 363.609 57.4043C363.574 57.1992 363.513 57 363.425 56.8066C363.337 56.6074 363.214 56.4199 363.056 56.2441C362.897 56.0684 362.692 55.9131 362.44 55.7783C362.528 55.3799 362.66 54.9844 362.836 54.5918C363.012 54.1992 363.234 53.8242 363.504 53.4668C363.779 53.1035 364.102 52.7666 364.471 52.4561C364.846 52.1455 365.276 51.876 365.763 51.6475C366.249 51.4189 366.794 51.2402 367.397 51.1113C368.001 50.9824 368.669 50.918 369.401 50.918C370.269 50.918 371.039 50.9971 371.713 51.1553C372.393 51.3135 372.984 51.5361 373.488 51.8232C373.998 52.1045 374.426 52.4385 374.771 52.8252C375.123 53.2119 375.404 53.6367 375.615 54.0996C375.832 54.5566 375.987 55.04 376.081 55.5498C376.175 56.0596 376.222 56.5781 376.222 57.1055L376.248 66H373.26L373.216 56.8594C373.216 56.4434 373.151 56.0332 373.022 55.6289C372.899 55.2246 372.688 54.8613 372.39 54.5391C372.097 54.2168 371.704 53.9561 371.212 53.7568C370.726 53.5518 370.122 53.4434 369.401 53.4316ZM369.085 48.9316V46.7432H367.828V44.5459H371.537V46.7432C372.012 46.7373 372.431 46.6758 372.794 46.5586C373.157 46.4355 373.462 46.2744 373.708 46.0752C373.954 45.876 374.142 45.6475 374.271 45.3896C374.394 45.126 374.455 44.8447 374.455 44.5459H377.083C377.083 45.1143 376.963 45.6621 376.723 46.1895C376.482 46.7168 376.122 47.1855 375.642 47.5957C375.155 48 374.546 48.3252 373.813 48.5713C373.081 48.8115 372.226 48.9316 371.247 48.9316H369.085ZM387.437 58.6172C387.437 57.7207 387.36 56.9414 387.208 56.2793C387.062 55.6172 386.851 55.0723 386.575 54.6445C386.306 54.2109 385.975 53.8887 385.582 53.6777C385.195 53.4668 384.759 53.3613 384.272 53.3613C383.903 53.3613 383.561 53.4229 383.244 53.5459C382.928 53.6631 382.649 53.8477 382.409 54.0996C382.175 54.3516 381.981 54.6738 381.829 55.0664C381.683 55.459 381.589 55.9248 381.548 56.4639H378.56C378.589 55.6377 378.744 54.8818 379.025 54.1963C379.312 53.5107 379.702 52.9219 380.194 52.4297C380.692 51.9375 381.287 51.5566 381.979 51.2871C382.67 51.0176 383.438 50.8828 384.281 50.8828C385.342 50.8828 386.262 51.0703 387.041 51.4453C387.826 51.8145 388.474 52.3389 388.983 53.0186C389.493 53.6924 389.871 54.5039 390.117 55.4531C390.369 56.4023 390.498 57.457 390.504 58.6172C390.504 59.7773 390.378 60.832 390.126 61.7812C389.88 62.7305 389.502 63.542 388.992 64.2158C388.482 64.8896 387.835 65.4111 387.05 65.7803C386.271 66.1436 385.351 66.3252 384.29 66.3252C383.446 66.3252 382.679 66.1904 381.987 65.9209C381.296 65.6514 380.701 65.2705 380.203 64.7783C379.711 64.2861 379.324 63.6973 379.043 63.0117C378.762 62.3262 378.604 61.5703 378.568 60.7441H381.557C381.592 61.2832 381.683 61.749 381.829 62.1416C381.976 62.5283 382.166 62.8477 382.4 63.0996C382.641 63.3516 382.919 63.5391 383.235 63.6621C383.552 63.7793 383.895 63.8379 384.264 63.8379C384.75 63.8379 385.187 63.7354 385.573 63.5303C385.966 63.3193 386.3 63 386.575 62.5723C386.851 62.1387 387.062 61.5938 387.208 60.9375C387.36 60.2812 387.437 59.5078 387.437 58.6172Z" fill="#333332"></path></g></g>

<g id="province-21">
<g id="RYG_5" style="pointer-events: all; cursor: pointer; transform: scale(1);">
<g id="text_21">
<circle cx="220" cy="475" r="18" fill="rgb(146, 146, 157)"/>
<path id="1_21" d="M224.422 469.98H218.802L218.742 472.16C219.049 472.053 219.469 472 220.002 472C220.722 472 221.382 472.107 221.982 472.32C222.582 472.533 223.095 472.847 223.522 473.26C223.962 473.66 224.302 474.153 224.542 474.74C224.782 475.313 224.902 475.96 224.902 476.68C224.902 477.48 224.762 478.193 224.482 478.82C224.215 479.447 223.842 479.98 223.362 480.42C222.882 480.847 222.309 481.173 221.642 481.4C220.989 481.627 220.275 481.74 219.502 481.74C218.275 481.74 217.249 481.44 216.422 480.84C215.595 480.24 215.029 479.333 214.722 478.12L217.862 477.4C217.942 477.907 218.155 478.32 218.502 478.64C218.849 478.947 219.282 479.1 219.802 479.1C220.442 479.1 220.949 478.9 221.322 478.5C221.709 478.1 221.902 477.593 221.902 476.98C221.902 476.513 221.802 476.133 221.602 475.84C221.415 475.533 221.162 475.293 220.842 475.12C220.535 474.933 220.189 474.807 219.802 474.74C219.415 474.673 219.029 474.64 218.642 474.64C218.149 474.64 217.649 474.687 217.142 474.78C216.649 474.873 216.169 475 215.702 475.16L215.862 467.34H224.422V469.98Z" fill="#FFFBF8"></path></g></g>

<g id="RYG_4" style="pointer-events: all; cursor: pointer; transform: scale(1);">
<g id="text_22">
<circle cx="260" cy="435" r="18" fill="rgb(146, 146, 157)"/>
<path id="1_22" d="M260.742 438.66H254.562V436.14L260.342 427.34H263.622V436.14H265.442V438.66H263.622V441.5H260.742V438.66ZM260.742 431.26H260.702L257.562 436.14H260.742V431.26Z" fill="#FFFBF8"></path></g></g>

<g id="RYG_3" style="pointer-events: all; cursor: pointer; transform: scale(1);">
<g id="text_23">
<circle cx="220" cy="435" r="18" fill="rgb(146, 146, 157)"/>
<path id="1_23" d="M218.402 432.92H219.382C219.662 432.92 219.935 432.9 220.202 432.86C220.469 432.82 220.709 432.747 220.922 432.64C221.149 432.52 221.329 432.36 221.462 432.16C221.595 431.947 221.662 431.673 221.662 431.34C221.662 430.913 221.489 430.56 221.142 430.28C220.809 430 220.395 429.86 219.902 429.86C219.435 429.86 219.049 429.987 218.742 430.24C218.435 430.493 218.235 430.807 218.142 431.18L214.842 430.5C215.002 429.887 215.242 429.367 215.562 428.94C215.882 428.5 216.262 428.147 216.702 427.88C217.142 427.613 217.629 427.42 218.162 427.3C218.709 427.167 219.282 427.1 219.882 427.1C220.509 427.1 221.109 427.18 221.682 427.34C222.269 427.487 222.782 427.727 223.222 428.06C223.662 428.38 224.009 428.787 224.262 429.28C224.529 429.773 224.662 430.36 224.662 431.04C224.662 431.827 224.455 432.5 224.042 433.06C223.629 433.62 223.029 433.98 222.242 434.14V434.2C222.669 434.253 223.042 434.38 223.362 434.58C223.695 434.78 223.975 435.027 224.202 435.32C224.429 435.613 224.602 435.947 224.722 436.32C224.842 436.693 224.902 437.087 224.902 437.5C224.902 438.207 224.762 438.827 224.482 439.36C224.215 439.893 223.849 440.34 223.382 440.7C222.929 441.047 222.389 441.307 221.762 441.48C221.149 441.653 220.495 441.74 219.802 441.74C218.535 441.74 217.442 441.447 216.522 440.86C215.615 440.273 215.015 439.347 214.722 438.08L217.882 437.34C217.989 437.847 218.202 438.247 218.522 438.54C218.855 438.833 219.342 438.98 219.982 438.98C220.635 438.98 221.115 438.813 221.422 438.48C221.742 438.133 221.902 437.693 221.902 437.16C221.902 436.76 221.815 436.453 221.642 436.24C221.482 436.013 221.269 435.847 221.002 435.74C220.735 435.633 220.435 435.573 220.102 435.56C219.769 435.533 219.435 435.52 219.102 435.52H218.402V432.92Z" fill="#FFFBF8"></path></g></g>

<g id="RYG_2" style="pointer-events: all; cursor: pointer; transform: scale(1);">
<g id="text_24">
<circle cx="260" cy="395" r="18" fill="rgb(146, 146, 157)"/>
<path id="1_24" d="M255.062 399.32L260.562 394.38C260.842 394.127 261.122 393.84 261.402 393.52C261.682 393.2 261.822 392.827 261.822 392.4C261.822 391.92 261.649 391.547 261.302 391.28C260.955 391 260.549 390.86 260.082 390.86C259.522 390.86 259.082 391.033 258.762 391.38C258.455 391.727 258.282 392.153 258.242 392.66L255.242 392.44C255.282 391.707 255.435 391.073 255.702 390.54C255.969 389.993 256.322 389.54 256.762 389.18C257.202 388.82 257.715 388.553 258.302 388.38C258.902 388.193 259.549 388.1 260.242 388.1C260.882 388.1 261.482 388.193 262.042 388.38C262.602 388.553 263.089 388.82 263.502 389.18C263.915 389.527 264.235 389.967 264.462 390.5C264.702 391.033 264.822 391.653 264.822 392.36C264.822 392.813 264.775 393.227 264.682 393.6C264.589 393.96 264.455 394.293 264.282 394.6C264.122 394.893 263.929 395.167 263.702 395.42C263.475 395.673 263.229 395.92 262.962 396.16L258.662 399.86H264.942V402.5H255.062V399.32Z" fill="#FFFBF8"></path></g></g>

<g id="RYG_1" style="pointer-events: all; cursor: pointer; transform: scale(1);">
<g id="text_25">
<circle cx="220" cy="395" r="18" fill="rgb(146, 146, 157)"/>
<path id="1_25" d="M219.842 390.7L217.002 393.2L215.302 391.24L219.922 387.34H222.722V401.5H219.842V390.7Z" fill="#FFFBF8"></path></g></g><g id="RYG_name" style="cursor: pointer;"><rect x="200.5" y="340" width="76" height="35" rx="4" fill="white"></rect><path id="เชียงใหม่_5" d="M210.322 361.104C210.363 361.591 210.451 362.007 210.586 362.353C210.721 362.692 210.908 362.971 211.148 363.188C211.395 363.398 211.69 363.554 212.036 363.653C212.388 363.753 212.798 363.803 213.267 363.803C213.536 363.803 213.823 363.776 214.128 363.724C214.438 363.671 214.723 363.574 214.98 363.434C215.244 363.287 215.461 363.091 215.631 362.845C215.801 362.599 215.886 362.282 215.886 361.896C215.886 361.597 215.824 361.345 215.701 361.14C215.578 360.929 215.388 360.735 215.13 360.56C214.878 360.384 214.556 360.214 214.163 360.05C213.771 359.88 213.311 359.692 212.783 359.487C212.314 359.3 211.863 359.121 211.43 358.951C211.002 358.775 210.601 358.597 210.226 358.415C209.856 358.228 209.52 358.025 209.215 357.809C208.91 357.592 208.649 357.352 208.433 357.088C208.216 356.818 208.046 356.517 207.923 356.183C207.8 355.843 207.735 355.456 207.729 355.022C207.724 354.548 207.788 354.117 207.923 353.73C208.063 353.344 208.254 353.001 208.494 352.702C208.74 352.403 209.027 352.143 209.355 351.92C209.689 351.697 210.047 351.516 210.428 351.375C210.809 351.234 211.204 351.129 211.614 351.059C212.024 350.988 212.435 350.953 212.845 350.953C213.647 350.953 214.38 351.029 215.042 351.182C215.71 351.334 216.287 351.595 216.773 351.964C217.266 352.333 217.652 352.828 217.934 353.449C218.221 354.064 218.388 354.841 218.435 355.778H215.481C215.435 355.327 215.347 354.949 215.218 354.645C215.089 354.334 214.922 354.085 214.717 353.897C214.512 353.704 214.269 353.566 213.987 353.484C213.712 353.402 213.404 353.361 213.064 353.361C212.812 353.361 212.555 353.391 212.291 353.449C212.027 353.508 211.784 353.602 211.562 353.73C211.345 353.854 211.166 354.021 211.025 354.231C210.885 354.437 210.814 354.688 210.814 354.987C210.814 355.222 210.876 355.427 210.999 355.603C211.122 355.778 211.31 355.945 211.562 356.104C211.819 356.256 212.145 356.411 212.537 356.569C212.93 356.728 213.396 356.906 213.935 357.105C214.907 357.457 215.713 357.794 216.352 358.116C216.99 358.438 217.494 358.781 217.863 359.145C218.238 359.508 218.499 359.909 218.646 360.349C218.798 360.782 218.871 361.286 218.865 361.86C218.871 362.681 218.728 363.372 218.435 363.935C218.147 364.497 217.746 364.954 217.23 365.306C216.721 365.651 216.114 365.9 215.411 366.053C214.714 366.211 213.961 366.29 213.152 366.29C212.361 366.29 211.623 366.196 210.938 366.009C210.258 365.827 209.66 365.531 209.145 365.121C208.629 364.705 208.213 364.169 207.896 363.513C207.58 362.851 207.393 362.048 207.334 361.104H210.322ZM221.062 356.385V353.001H223.796L223.813 354.082H227.338L227.329 356.385H221.062ZM221.071 363.697L221.08 360.349H223.813L223.787 361.43H227.32L227.338 363.697H221.071ZM229.737 354.873C229.737 354.393 229.802 353.971 229.931 353.607C230.06 353.238 230.232 352.922 230.449 352.658C230.666 352.389 230.915 352.163 231.196 351.981C231.483 351.8 231.782 351.656 232.093 351.551C232.409 351.439 232.729 351.36 233.051 351.313C233.379 351.267 233.689 351.243 233.982 351.243H236.215L236.197 353.757H234.58C234.445 353.757 234.275 353.769 234.07 353.792C233.871 353.81 233.675 353.862 233.481 353.95C233.294 354.038 233.133 354.17 232.998 354.346C232.869 354.516 232.805 354.753 232.805 355.058C232.805 355.392 232.854 355.664 232.954 355.875C233.06 356.086 233.2 356.253 233.376 356.376C233.558 356.499 233.766 356.587 234 356.64C234.24 356.692 234.492 356.728 234.756 356.745H236.188L236.18 359.232H234.738C234.451 359.244 234.188 359.279 233.947 359.338C233.713 359.391 233.511 359.49 233.341 359.637C233.177 359.777 233.048 359.979 232.954 360.243C232.866 360.501 232.825 360.835 232.831 361.245C232.825 361.685 232.91 362.068 233.086 362.396C233.268 362.719 233.511 362.988 233.815 363.205C234.12 363.416 234.469 363.574 234.861 363.68C235.26 363.785 235.676 363.838 236.109 363.838C236.584 363.838 237.023 363.776 237.428 363.653C237.838 363.53 238.192 363.331 238.491 363.056C238.79 362.774 239.021 362.411 239.186 361.966C239.355 361.515 239.438 360.964 239.432 360.313L239.449 351.243H242.402L242.385 360.814C242.385 361.717 242.218 362.514 241.884 363.205C241.556 363.891 241.104 364.468 240.53 364.937C239.962 365.405 239.297 365.76 238.535 366C237.773 366.24 236.965 366.36 236.109 366.36C235.576 366.36 235.046 366.316 234.519 366.229C233.997 366.141 233.499 366.006 233.024 365.824C232.556 365.643 232.119 365.417 231.715 365.147C231.311 364.872 230.959 364.55 230.66 364.181C230.367 363.806 230.136 363.384 229.966 362.915C229.802 362.446 229.72 361.928 229.72 361.359C229.72 360.984 229.743 360.63 229.79 360.296C229.843 359.956 229.934 359.646 230.062 359.364C230.191 359.077 230.361 358.819 230.572 358.591C230.783 358.362 231.053 358.169 231.381 358.011C231.035 357.812 230.754 357.586 230.537 357.334C230.326 357.082 230.162 356.818 230.045 356.543C229.928 356.262 229.849 355.98 229.808 355.699C229.767 355.412 229.743 355.137 229.737 354.873ZM244.644 356.068C244.808 355.283 245.062 354.571 245.408 353.933C245.754 353.294 246.196 352.749 246.735 352.298C247.28 351.847 247.925 351.498 248.669 351.252C249.419 351.006 250.28 350.883 251.253 350.883C252.073 350.883 252.809 350.974 253.459 351.155C254.115 351.337 254.692 351.595 255.19 351.929C255.688 352.257 256.113 352.655 256.465 353.124C256.822 353.593 257.112 354.114 257.335 354.688C257.558 355.263 257.719 355.884 257.818 356.552C257.924 357.22 257.977 357.92 257.977 358.652C257.977 359.338 257.924 360.003 257.818 360.647C257.719 361.292 257.555 361.898 257.326 362.467C257.104 363.035 256.813 363.557 256.456 364.031C256.104 364.5 255.68 364.907 255.182 365.253C254.689 365.593 254.118 365.856 253.468 366.044C252.823 366.231 252.097 366.325 251.288 366.325C250.474 366.325 249.741 366.231 249.091 366.044C248.446 365.856 247.875 365.596 247.377 365.262C246.885 364.922 246.463 364.518 246.111 364.049C245.76 363.574 245.473 363.053 245.25 362.484C245.027 361.916 244.863 361.31 244.758 360.665C244.658 360.015 244.611 359.344 244.617 358.652C244.617 358.6 244.614 358.515 244.608 358.397C244.608 358.28 244.608 358.16 244.608 358.037V357.58H251.271L251.253 359.918H247.658C247.682 360.504 247.787 361.037 247.975 361.518C248.162 361.998 248.414 362.411 248.73 362.757C249.047 363.097 249.419 363.363 249.847 363.557C250.28 363.744 250.752 363.838 251.262 363.838C251.83 363.838 252.34 363.724 252.791 363.495C253.248 363.267 253.635 362.933 253.951 362.493C254.268 362.048 254.511 361.503 254.681 360.858C254.856 360.214 254.947 359.479 254.953 358.652C254.953 356.959 254.646 355.667 254.03 354.776C253.421 353.88 252.495 353.432 251.253 353.432C250.784 353.432 250.351 353.49 249.952 353.607C249.56 353.719 249.211 353.889 248.906 354.117C248.602 354.34 248.353 354.615 248.159 354.943C247.966 355.271 247.837 355.646 247.772 356.068H244.644ZM264.463 363.267C264.527 363.466 264.624 363.612 264.753 363.706C264.888 363.794 265.034 363.838 265.192 363.838C265.45 363.838 265.655 363.768 265.808 363.627C265.96 363.486 266.042 363.316 266.054 363.117L266.027 353.546H263.979L263.997 351.243H269.007L268.98 362.651C268.986 363.308 268.89 363.87 268.69 364.339C268.491 364.808 268.219 365.191 267.873 365.49C267.527 365.789 267.12 366.009 266.651 366.149C266.188 366.29 265.69 366.36 265.157 366.36C264.624 366.36 264.158 366.293 263.76 366.158C263.361 366.023 263.016 365.833 262.723 365.587C262.43 365.341 262.178 365.045 261.967 364.699C261.762 364.354 261.583 363.97 261.431 363.548L259.093 357.141H262.187L264.463 363.267Z" fill="#333332"></path></g></g>

<g id="province-22">
<g id="CTI_3" style="pointer-events: all; cursor: pointer; transform: scale(1);">
<g id="text_26">
<circle cx="260" cy="295" r="18" fill="rgb(146, 146, 157)"/>
<path id="1_26" d="M258.402 292.92H259.382C259.662 292.92 259.935 292.9 260.202 292.86C260.469 292.82 260.709 292.747 260.922 292.64C261.149 292.52 261.329 292.36 261.462 292.16C261.595 291.947 261.662 291.673 261.662 291.34C261.662 290.913 261.489 290.56 261.142 290.28C260.809 290 260.395 289.86 259.902 289.86C259.435 289.86 259.049 289.987 258.742 290.24C258.435 290.493 258.235 290.807 258.142 291.18L254.842 290.5C255.002 289.887 255.242 289.367 255.562 288.94C255.882 288.5 256.262 288.147 256.702 287.88C257.142 287.613 257.629 287.42 258.162 287.3C258.709 287.167 259.282 287.1 259.882 287.1C260.509 287.1 261.109 287.18 261.682 287.34C262.269 287.487 262.782 287.727 263.222 288.06C263.662 288.38 264.009 288.787 264.262 289.28C264.529 289.773 264.662 290.36 264.662 291.04C264.662 291.827 264.455 292.5 264.042 293.06C263.629 293.62 263.029 293.98 262.242 294.14V294.2C262.669 294.253 263.042 294.38 263.362 294.58C263.695 294.78 263.975 295.027 264.202 295.32C264.429 295.613 264.602 295.947 264.722 296.32C264.842 296.693 264.902 297.087 264.902 297.5C264.902 298.207 264.762 298.827 264.482 299.36C264.215 299.893 263.849 300.34 263.382 300.7C262.929 301.047 262.389 301.307 261.762 301.48C261.149 301.653 260.495 301.74 259.802 301.74C258.535 301.74 257.442 301.447 256.522 300.86C255.615 300.273 255.015 299.347 254.722 298.08L257.882 297.34C257.989 297.847 258.202 298.247 258.522 298.54C258.855 298.833 259.342 298.98 259.982 298.98C260.635 298.98 261.115 298.813 261.422 298.48C261.742 298.133 261.902 297.693 261.902 297.16C261.902 296.76 261.815 296.453 261.642 296.24C261.482 296.013 261.269 295.847 261.002 295.74C260.735 295.633 260.435 295.573 260.102 295.56C259.769 295.533 259.435 295.52 259.102 295.52H258.402V292.92Z" fill="#FFFBF8"></path></g></g>

<g id="CTI_2" style="pointer-events: all; cursor: pointer; transform: scale(1);">
<g id="text_27">
<circle cx="220" cy="295" r="18" fill="rgb(146, 146, 157)"/>
<path id="1_27" d="M215.062 298.32L220.562 293.38C220.842 293.127 221.122 292.84 221.402 292.52C221.682 292.2 221.822 291.827 221.822 291.4C221.822 290.92 221.649 290.547 221.302 290.28C220.955 290 220.549 289.86 220.082 289.86C219.522 289.86 219.082 290.033 218.762 290.38C218.455 290.727 218.282 291.153 218.242 291.66L215.242 291.44C215.282 290.707 215.435 290.073 215.702 289.54C215.969 288.993 216.322 288.54 216.762 288.18C217.202 287.82 217.715 287.553 218.302 287.38C218.902 287.193 219.549 287.1 220.242 287.1C220.882 287.1 221.482 287.193 222.042 287.38C222.602 287.553 223.089 287.82 223.502 288.18C223.915 288.527 224.235 288.967 224.462 289.5C224.702 290.033 224.822 290.653 224.822 291.36C224.822 291.813 224.775 292.227 224.682 292.6C224.589 292.96 224.455 293.293 224.282 293.6C224.122 293.893 223.929 294.167 223.702 294.42C223.475 294.673 223.229 294.92 222.962 295.16L218.662 298.86H224.942V301.5H215.062V298.32Z" fill="#FFFBF8"></path></g></g>

<g id="CTI_1" style="pointer-events: all; cursor: pointer; transform: scale(1);">
<g id="text_28">
<circle cx="220" cy="255" r="18" fill="rgb(146, 146, 157)"/><path id="1_28" d="M219.842 250.7L217.002 253.2L215.302 251.24L219.922 247.34H222.722V261.5H219.842V250.7Z" fill="#FFFBF8"></path></g></g><g id="CTI_name" style="cursor: pointer;"><rect x="240" y="240" width="87" height="35" rx="4" fill="white"></rect><path id="เชียงใหม่_6" d="M259.541 256.104C259.535 256.484 259.477 256.927 259.365 257.431C259.254 257.935 259.107 258.474 258.926 259.048C258.75 259.616 258.545 260.208 258.311 260.823C258.082 261.433 257.842 262.042 257.59 262.651C257.344 263.255 257.092 263.844 256.834 264.418C256.576 264.986 256.336 265.514 256.113 266H252.404L250.031 259.452H248.054V257.105H252.343L254.338 262.906C254.555 262.385 254.783 261.828 255.023 261.236C255.264 260.645 255.483 260.059 255.683 259.479C255.888 258.893 256.058 258.327 256.192 257.782C256.327 257.237 256.403 256.748 256.421 256.314C256.433 255.354 256.187 254.633 255.683 254.152C255.185 253.672 254.438 253.432 253.441 253.432C252.645 253.432 252.015 253.613 251.552 253.977C251.089 254.34 250.764 254.929 250.576 255.743H247.333C247.456 255.017 247.685 254.357 248.019 253.766C248.358 253.174 248.795 252.67 249.328 252.254C249.867 251.838 250.5 251.519 251.227 251.296C251.959 251.067 252.785 250.953 253.705 250.953C254.162 250.953 254.625 250.988 255.094 251.059C255.562 251.123 256.014 251.234 256.447 251.393C256.887 251.545 257.297 251.75 257.678 252.008C258.059 252.26 258.39 252.576 258.671 252.957C258.952 253.338 259.169 253.789 259.321 254.311C259.479 254.826 259.553 255.424 259.541 256.104ZM251.508 248.976V245.442H254.241L254.224 246.708H261.272L261.29 248.976H251.508ZM272.074 266L272.013 264.198C271.491 264.907 270.855 265.446 270.105 265.815C269.361 266.179 268.482 266.36 267.469 266.36C266.432 266.36 265.57 266.223 264.885 265.947C264.199 265.666 263.651 265.273 263.241 264.77C262.831 264.266 262.541 263.662 262.371 262.959C262.201 262.256 262.116 261.482 262.116 260.639L262.134 251.243H265.087L265.052 260.92C265.058 261.324 265.128 261.693 265.263 262.027C265.397 262.361 265.585 262.648 265.825 262.889C266.071 263.123 266.364 263.305 266.704 263.434C267.05 263.562 267.434 263.627 267.855 263.627C268.547 263.627 269.15 263.519 269.666 263.302C270.182 263.079 270.606 262.774 270.94 262.388C271.28 261.995 271.532 261.532 271.696 260.999C271.866 260.466 271.948 259.889 271.942 259.268L271.96 251.243H274.948L274.957 266H272.074ZM280.556 251.243L280.573 253.036C281.089 252.333 281.722 251.8 282.472 251.437C283.222 251.067 284.104 250.883 285.117 250.883C286.154 250.883 287.016 251.023 287.701 251.305C288.387 251.58 288.935 251.97 289.345 252.474C289.755 252.978 290.045 253.581 290.215 254.284C290.385 254.987 290.47 255.761 290.47 256.604L290.496 266H287.543L287.525 256.314C287.52 255.91 287.452 255.544 287.323 255.216C287.194 254.882 287.01 254.598 286.77 254.363C286.535 254.123 286.248 253.938 285.908 253.81C285.568 253.681 285.188 253.616 284.766 253.616C284.068 253.616 283.462 253.728 282.946 253.95C282.437 254.167 282.012 254.472 281.672 254.864C281.332 255.251 281.077 255.711 280.907 256.244C280.737 256.777 280.649 257.354 280.644 257.976L280.67 266H277.682L277.673 251.243H280.556ZM299.602 263.697C300.27 263.697 300.823 263.589 301.263 263.372C301.702 263.149 302.054 262.865 302.317 262.52C302.581 262.168 302.766 261.775 302.871 261.342C302.982 260.908 303.038 260.48 303.038 260.059V251.243H306.026L306.018 259.848C306.018 260.398 305.977 260.94 305.895 261.474C305.812 262.007 305.675 262.514 305.481 262.994C305.294 263.475 305.042 263.92 304.726 264.33C304.409 264.734 304.014 265.086 303.539 265.385C303.07 265.678 302.511 265.906 301.86 266.07C301.216 266.24 300.469 266.325 299.619 266.325C298.764 266.325 298.008 266.24 297.352 266.07C296.701 265.9 296.139 265.666 295.664 265.367C295.189 265.062 294.794 264.705 294.478 264.295C294.161 263.879 293.906 263.428 293.713 262.941C293.525 262.455 293.391 261.942 293.309 261.403C293.227 260.864 293.186 260.319 293.186 259.769L293.212 251.243H296.165V260.059C296.165 260.48 296.218 260.908 296.323 261.342C296.435 261.775 296.622 262.168 296.886 262.52C297.149 262.865 297.501 263.149 297.94 263.372C298.38 263.589 298.934 263.697 299.602 263.697ZM303.275 273.198L303.267 269.964H301.966L302.001 267.696H306.062L306.044 273.198H303.275ZM311.098 261.104C311.139 261.591 311.227 262.007 311.361 262.353C311.496 262.692 311.684 262.971 311.924 263.188C312.17 263.398 312.466 263.554 312.812 263.653C313.163 263.753 313.573 263.803 314.042 263.803C314.312 263.803 314.599 263.776 314.903 263.724C315.214 263.671 315.498 263.574 315.756 263.434C316.02 263.287 316.236 263.091 316.406 262.845C316.576 262.599 316.661 262.282 316.661 261.896C316.661 261.597 316.6 261.345 316.477 261.14C316.354 260.929 316.163 260.735 315.905 260.56C315.653 260.384 315.331 260.214 314.938 260.05C314.546 259.88 314.086 259.692 313.559 259.487C313.09 259.3 312.639 259.121 312.205 258.951C311.777 258.775 311.376 258.597 311.001 258.415C310.632 258.228 310.295 258.025 309.99 257.809C309.686 257.592 309.425 257.352 309.208 257.088C308.991 256.818 308.821 256.517 308.698 256.183C308.575 255.843 308.511 255.456 308.505 255.022C308.499 254.548 308.563 254.117 308.698 253.73C308.839 253.344 309.029 253.001 309.27 252.702C309.516 252.403 309.803 252.143 310.131 251.92C310.465 251.697 310.822 251.516 311.203 251.375C311.584 251.234 311.979 251.129 312.39 251.059C312.8 250.988 313.21 250.953 313.62 250.953C314.423 250.953 315.155 251.029 315.817 251.182C316.485 251.334 317.062 251.595 317.549 251.964C318.041 252.333 318.428 252.828 318.709 253.449C318.996 254.064 319.163 254.841 319.21 255.778H316.257C316.21 255.327 316.122 254.949 315.993 254.645C315.864 254.334 315.697 254.085 315.492 253.897C315.287 253.704 315.044 253.566 314.763 253.484C314.487 253.402 314.18 253.361 313.84 253.361C313.588 253.361 313.33 253.391 313.066 253.449C312.803 253.508 312.56 253.602 312.337 253.73C312.12 253.854 311.941 254.021 311.801 254.231C311.66 254.437 311.59 254.688 311.59 254.987C311.59 255.222 311.651 255.427 311.774 255.603C311.897 255.778 312.085 255.945 312.337 256.104C312.595 256.256 312.92 256.411 313.312 256.569C313.705 256.728 314.171 256.906 314.71 257.105C315.683 257.457 316.488 257.794 317.127 258.116C317.766 258.438 318.27 258.781 318.639 259.145C319.014 259.508 319.274 259.909 319.421 260.349C319.573 260.782 319.646 261.286 319.641 261.86C319.646 262.681 319.503 263.372 319.21 263.935C318.923 264.497 318.521 264.954 318.006 265.306C317.496 265.651 316.89 265.9 316.187 266.053C315.489 266.211 314.736 266.29 313.928 266.29C313.137 266.29 312.398 266.196 311.713 266.009C311.033 265.827 310.436 265.531 309.92 265.121C309.404 264.705 308.988 264.169 308.672 263.513C308.355 262.851 308.168 262.048 308.109 261.104H311.098ZM309.595 246.664H316.362L316.31 244.581H319.113L319.131 249.011H308.399L309.595 246.664Z" fill="#333332"></path></g></g>

<g id="province-23">
<g id="TRT_1" style="pointer-events: all; cursor: pointer; transform: scale(1);">
<g id="text_29">
<circle cx="300" cy="515" r="18" fill="rgb(146, 146, 157)"/>
<path id="1_29" d="M299.842 510.7L297.002 513.2L295.302 511.24L299.922 507.34H302.722V521.5H299.842V510.7Z" fill="#FFFBF8"></path></g></g><g id="TRT_name" style="cursor: pointer;"><rect x="320" y="497" width="70" height="35" rx="4" fill="white"></rect><path id="เชียงใหม่_7" d="M330.417 523H327.613L327.587 514.105C327.581 513.414 327.648 512.737 327.789 512.075C327.936 511.413 328.19 510.81 328.554 510.265C328.917 509.714 329.409 509.245 330.03 508.858C330.651 508.472 331.437 508.205 332.386 508.059L334.223 509.896L335.91 508.059C336.889 508.188 337.694 508.442 338.327 508.823C338.966 509.204 339.467 509.67 339.83 510.221C340.199 510.771 340.454 511.381 340.595 512.049C340.735 512.717 340.803 513.402 340.797 514.105L340.823 523H337.87L337.826 513.859C337.832 513.613 337.809 513.347 337.756 513.06C337.703 512.772 337.624 512.494 337.519 512.225C337.413 511.949 337.281 511.697 337.123 511.469C336.965 511.24 336.777 511.064 336.561 510.941L334.706 512.743C334.647 512.796 334.58 512.846 334.504 512.893C334.428 512.934 334.334 512.954 334.223 512.954C334.094 512.954 333.979 512.934 333.88 512.893C333.786 512.846 333.716 512.796 333.669 512.743L331.771 510.906C331.524 511.023 331.322 511.193 331.164 511.416C331.006 511.633 330.88 511.879 330.786 512.154C330.692 512.424 330.625 512.708 330.584 513.007C330.549 513.306 330.528 513.59 330.522 513.859L330.531 519.115L333.027 516.338H331.876L331.867 514.105H336.367L336.376 516.162L330.417 523ZM345.912 518.104C345.953 518.591 346.041 519.007 346.176 519.353C346.311 519.692 346.498 519.971 346.738 520.188C346.984 520.398 347.28 520.554 347.626 520.653C347.978 520.753 348.388 520.803 348.856 520.803C349.126 520.803 349.413 520.776 349.718 520.724C350.028 520.671 350.312 520.574 350.57 520.434C350.834 520.287 351.051 520.091 351.221 519.845C351.391 519.599 351.476 519.282 351.476 518.896C351.476 518.597 351.414 518.345 351.291 518.14C351.168 517.929 350.978 517.735 350.72 517.56C350.468 517.384 350.146 517.214 349.753 517.05C349.36 516.88 348.9 516.692 348.373 516.487C347.904 516.3 347.453 516.121 347.02 515.951C346.592 515.775 346.19 515.597 345.815 515.415C345.446 515.228 345.109 515.025 344.805 514.809C344.5 514.592 344.239 514.352 344.022 514.088C343.806 513.818 343.636 513.517 343.513 513.183C343.39 512.843 343.325 512.456 343.319 512.022C343.313 511.548 343.378 511.117 343.513 510.73C343.653 510.344 343.844 510.001 344.084 509.702C344.33 509.403 344.617 509.143 344.945 508.92C345.279 508.697 345.637 508.516 346.018 508.375C346.398 508.234 346.794 508.129 347.204 508.059C347.614 507.988 348.024 507.953 348.435 507.953C349.237 507.953 349.97 508.029 350.632 508.182C351.3 508.334 351.877 508.595 352.363 508.964C352.855 509.333 353.242 509.828 353.523 510.449C353.811 511.064 353.978 511.841 354.024 512.778H351.071C351.024 512.327 350.937 511.949 350.808 511.645C350.679 511.334 350.512 511.085 350.307 510.897C350.102 510.704 349.858 510.566 349.577 510.484C349.302 510.402 348.994 510.361 348.654 510.361C348.402 510.361 348.145 510.391 347.881 510.449C347.617 510.508 347.374 510.602 347.151 510.73C346.935 510.854 346.756 511.021 346.615 511.231C346.475 511.437 346.404 511.688 346.404 511.987C346.404 512.222 346.466 512.427 346.589 512.603C346.712 512.778 346.899 512.945 347.151 513.104C347.409 513.256 347.734 513.411 348.127 513.569C348.52 513.728 348.985 513.906 349.524 514.105C350.497 514.457 351.303 514.794 351.941 515.116C352.58 515.438 353.084 515.781 353.453 516.145C353.828 516.508 354.089 516.909 354.235 517.349C354.388 517.782 354.461 518.286 354.455 518.86C354.461 519.681 354.317 520.372 354.024 520.935C353.737 521.497 353.336 521.954 352.82 522.306C352.311 522.651 351.704 522.9 351.001 523.053C350.304 523.211 349.551 523.29 348.742 523.29C347.951 523.29 347.213 523.196 346.527 523.009C345.848 522.827 345.25 522.531 344.734 522.121C344.219 521.705 343.803 521.169 343.486 520.513C343.17 519.851 342.982 519.048 342.924 518.104H345.912ZM355.694 513.104C355.694 512.547 355.765 512.034 355.905 511.565C356.052 511.091 356.248 510.663 356.494 510.282C356.746 509.901 357.042 509.567 357.382 509.28C357.728 508.987 358.103 508.744 358.507 508.551C358.911 508.352 359.336 508.202 359.781 508.103C360.232 508.003 360.689 507.953 361.152 507.953C361.914 507.953 362.62 508.059 363.271 508.27C363.927 508.475 364.492 508.791 364.967 509.219C365.447 509.641 365.822 510.177 366.092 510.827C366.361 511.472 366.493 512.23 366.487 513.104L366.514 523H363.561L363.534 513.604C363.546 512.544 363.347 511.771 362.937 511.284C362.526 510.792 361.935 510.546 361.161 510.546C360.476 510.546 359.922 510.76 359.5 511.188C359.078 511.615 358.841 512.254 358.788 513.104H355.694ZM374.688 516.338H373.536L373.527 514.07H377.992L378.001 516.162L372.077 523H369.273L369.265 514.176C369.259 513.648 369.297 513.13 369.379 512.62C369.461 512.104 369.599 511.615 369.792 511.152C369.985 510.684 370.246 510.253 370.574 509.86C370.902 509.468 371.31 509.128 371.796 508.841C372.282 508.548 372.856 508.322 373.519 508.164C374.181 508 374.948 507.918 375.821 507.918C376.677 507.918 377.433 508 378.089 508.164C378.745 508.322 379.313 508.548 379.794 508.841C380.28 509.128 380.685 509.468 381.007 509.86C381.335 510.253 381.599 510.684 381.798 511.152C382.003 511.615 382.146 512.104 382.229 512.62C382.316 513.13 382.363 513.648 382.369 514.176L382.378 523H379.39L379.354 513.895C379.36 513.49 379.313 513.083 379.214 512.673C379.114 512.257 378.933 511.885 378.669 511.557C378.405 511.223 378.042 510.953 377.579 510.748C377.122 510.537 376.533 510.432 375.812 510.432C375.326 510.432 374.898 510.481 374.529 510.581C374.166 510.675 373.85 510.804 373.58 510.968C373.311 511.132 373.088 511.328 372.912 511.557C372.736 511.779 372.596 512.02 372.49 512.277C372.385 512.529 372.309 512.796 372.262 513.077C372.215 513.353 372.191 513.625 372.191 513.895V519.15L374.688 516.338Z" fill="#333332"></path></g></g></g></svg>