<svg xmlns="http://www.w3.org/2000/svg" width="918.3098861837907" height="484.15494309189535"><circle cx="300" cy="454.15494309189535" r="10" fill="#16A085" id="circle-1"/><circle cx="301.3615926011945" cy="433.38105439711126" r="10" fill="#ECF0F1" id="circle-2"/><circle cx="305.42307317786674" cy="412.96261269750494" r="10" fill="#D35400" id="circle-3"/><circle cx="312.11494867129466" cy="393.24898319161827" r="10" fill="#9B59B6" id="circle-4"/><circle cx="321.3227192364473" cy="374.5774715459477" r="10" fill="#F39C12" id="circle-5"/><circle cx="332.88883736607875" cy="357.26755250147147" r="10" fill="#D35400" id="circle-6"/><circle cx="346.6154035722571" cy="341.6154035722571" r="10" fill="#7F8C8D" id="circle-7"/><circle cx="362.2675525014715" cy="327.88883736607875" r="10" fill="#34495E" id="circle-8"/><circle cx="379.5774715459477" cy="316.32271923644737" r="10" fill="#9B59B6" id="circle-9"/><circle cx="398.2489831916183" cy="307.11494867129466" r="10" fill="#7F8C8D" id="circle-10"/><circle cx="417.96261269750494" cy="300.4230731778667" r="10" fill="#9B59B6" id="circle-11"/><circle cx="438.38105439711126" cy="296.3615926011945" r="10" fill="#F39C12" id="circle-12"/><circle cx="459.15494309189535" cy="295" r="10" fill="#9B59B6" id="circle-13"/><circle cx="479.92883178667944" cy="296.3615926011945" r="10" fill="#33FF57" id="circle-14"/><circle cx="500.34727348628576" cy="300.4230731778667" r="10" fill="#ECF0F1" id="circle-15"/><circle cx="520.0609029921724" cy="307.1149486712946" r="10" fill="#95A5A6" id="circle-16"/><circle cx="538.732414637843" cy="316.3227192364473" r="10" fill="#3357FF" id="circle-17"/><circle cx="556.0423336823192" cy="327.88883736607875" r="10" fill="#ECF0F1" id="circle-18"/><circle cx="571.6944826115337" cy="341.6154035722571" r="10" fill="#9B59B6" id="circle-19"/><circle cx="585.421048817712" cy="357.2675525014715" r="10" fill="#2980B9" id="circle-20"/><circle cx="596.9871669473433" cy="374.5774715459477" r="10" fill="#FF5733" id="circle-21"/><circle cx="606.194937512496" cy="393.2489831916183" r="10" fill="#D35400" id="circle-22"/><circle cx="612.886813005924" cy="412.96261269750494" r="10" fill="#F39C12" id="circle-23"/><circle cx="616.9482935825962" cy="433.3810543971112" r="10" fill="#95A5A6" id="circle-24"/><circle cx="618.3098861837907" cy="454.15494309189535" r="10" fill="#ECF0F1" id="circle-25"/><circle cx="275" cy="454.15494309189535" r="10" fill="#2980B9" id="circle-26"/><circle cx="276.24518984524025" cy="432.7758590977913" r="10" fill="#7F8C8D" id="circle-27"/><circle cx="279.96392032440724" cy="411.68589053923336" r="10" fill="#95A5A6" id="circle-28"/><circle cx="286.1059019871924" cy="391.17024306147493" r="10" fill="#33FF57" id="circle-29"/><circle cx="294.58807506807716" cy="371.50635560238993" r="10" fill="#2980B9" id="circle-30"/><circle cx="305.2957327271739" cy="352.96014850678046" r="10" fill="#E67E22" id="circle-31"/><circle cx="318.0840722634573" cy="335.78242740989526" r="10" fill="#33FF57" id="circle-32"/><circle cx="332.78015332288965" cy="320.2054915214659" r="10" fill="#33FF57" id="circle-33"/><circle cx="349.1852366200324" cy="306.4399921774008" r="10" fill="#7F8C8D" id="circle-34"/><circle cx="367.0774715459476" cy="294.6720841418364" r="10" fill="#95A5A6" id="circle-35"/><circle cx="386.21489631710324" cy="285.06090818329676" r="10" fill="#9B59B6" id="circle-36"/><circle cx="406.33871009341294" cy="277.7364389688039" r="10" fill="#95A5A6" id="circle-37"/><circle cx="427.17677281563044" cy="272.79772737947485" r="10" fill="#2ECC71" id="circle-38"/><circle cx="448.4472854327987" cy="270.3115610172751" r="10" fill="#1ABC9C" id="circle-39"/><circle cx="469.86260075099204" cy="270.3115610172751" r="10" fill="#33FF57" id="circle-40"/><circle cx="491.13311336816025" cy="272.79772737947485" r="10" fill="#9B59B6" id="circle-41"/><circle cx="511.9711760903778" cy="277.7364389688039" r="10" fill="#E67E22" id="circle-42"/><circle cx="532.0949898666875" cy="285.06090818329676" r="10" fill="#1ABC9C" id="circle-43"/><circle cx="551.232414637843" cy="294.6720841418363" r="10" fill="#3357FF" id="circle-44"/><circle cx="569.1246495637583" cy="306.4399921774009" r="10" fill="#E74C3C" id="circle-45"/><circle cx="585.529732860901" cy="320.2054915214659" r="10" fill="#ECF0F1" id="circle-46"/><circle cx="600.2258139203334" cy="335.78242740989526" r="10" fill="#34495E" id="circle-47"/><circle cx="613.0141534566169" cy="352.96014850678046" r="10" fill="#2980B9" id="circle-48"/><circle cx="623.7218111157135" cy="371.50635560238993" r="10" fill="#7F8C8D" id="circle-49"/><circle cx="632.2039841965983" cy="391.17024306147493" r="10" fill="#2980B9" id="circle-50"/><circle cx="638.3459658593835" cy="411.68589053923336" r="10" fill="#33FF57" id="circle-51"/><circle cx="642.0646963385504" cy="432.7758590977913" r="10" fill="#F39C12" id="circle-52"/><circle cx="643.3098861837907" cy="454.15494309189535" r="10" fill="#95A5A6" id="circle-53"/><circle cx="250" cy="454.15494309189535" r="10" fill="#8E44AD" id="circle-54"/><circle cx="251.14577266250024" cy="432.29229830566595" r="10" fill="#9B59B6" id="circle-55"/><circle cx="254.57053732494225" cy="410.66918523076714" r="10" fill="#ECF0F1" id="circle-56"/><circle cx="260.2367715490063" cy="389.52251121897467" r="10" fill="#F39C12" id="circle-57"/><circle cx="268.0823948867977" cy="369.08396365598776" r="10" fill="#34495E" id="circle-58"/><circle cx="278.02144904722536" cy="349.5774715459477" r="10" fill="#3357FF" id="circle-59"/><circle cx="289.94503967302705" cy="331.21675209840777" r="10" fill="#ECF0F1" id="circle-60"/><circle cx="303.7225294101344" cy="314.202969197863" r="10" fill="#7F8C8D" id="circle-61"/><circle cx="319.2029691978629" cy="298.7225294101345" r="10" fill="#D35400" id="circle-62"/><circle cx="336.2167520984078" cy="284.945039673027" r="10" fill="#D35400" id="circle-63"/><circle cx="354.5774715459476" cy="273.0214490472254" r="10" fill="#7F8C8D" id="circle-64"/><circle cx="374.08396365598776" cy="263.08239488679766" r="10" fill="#16A085" id="circle-65"/><circle cx="394.52251121897467" cy="255.23677154900625" r="10" fill="#E74C3C" id="circle-66"/><circle cx="415.66918523076714" cy="249.57053732494225" r="10" fill="#D35400" id="circle-67"/><circle cx="437.292298305666" cy="246.14577266250024" r="10" fill="#2ECC71" id="circle-68"/><circle cx="459.15494309189535" cy="245" r="10" fill="#3498DB" id="circle-69"/><circle cx="481.0175878781247" cy="246.14577266250024" r="10" fill="#E74C3C" id="circle-70"/><circle cx="502.6407009530235" cy="249.57053732494225" r="10" fill="#E74C3C" id="circle-71"/><circle cx="523.7873749648161" cy="255.23677154900628" r="10" fill="#1ABC9C" id="circle-72"/><circle cx="544.2259225278029" cy="263.08239488679766" r="10" fill="#9B59B6" id="circle-73"/><circle cx="563.732414637843" cy="273.02144904722536" r="10" fill="#95A5A6" id="circle-74"/><circle cx="582.0931340853829" cy="284.945039673027" r="10" fill="#1ABC9C" id="circle-75"/><circle cx="599.1069169859277" cy="298.72252941013437" r="10" fill="#9B59B6" id="circle-76"/><circle cx="614.5873567736562" cy="314.2029691978629" r="10" fill="#16A085" id="circle-77"/><circle cx="628.3648465107638" cy="331.21675209840777" r="10" fill="#3498DB" id="circle-78"/><circle cx="640.2884371365653" cy="349.5774715459476" r="10" fill="#3498DB" id="circle-79"/><circle cx="650.2274912969931" cy="369.08396365598776" r="10" fill="#7F8C8D" id="circle-80"/><circle cx="658.0731146347844" cy="389.52251121897467" r="10" fill="#7F8C8D" id="circle-81"/><circle cx="663.7393488588484" cy="410.6691852307671" r="10" fill="#95A5A6" id="circle-82"/><circle cx="667.1641135212905" cy="432.292298305666" r="10" fill="#FF5733" id="circle-83"/><circle cx="668.3098861837907" cy="454.15494309189535" r="10" fill="#1ABC9C" id="circle-84"/><circle cx="225" cy="454.1549430918953" r="10" fill="#7F8C8D" id="circle-85"/><circle cx="226.06027171221507" cy="431.89710068146366" r="10" fill="#34495E" id="circle-86"/><circle cx="229.23148486404736" cy="409.840828738613" r="10" fill="#ECF0F1" id="circle-87"/><circle cx="234.48492045811926" cy="388.1858722775562" r="10" fill="#F39C12" id="circle-88"/><circle cx="241.77300256817637" cy="367.1283419373573" r="10" fill="#95A5A6" id="circle-89"/><circle cx="251.0297291940425" cy="346.8589379736164" r="10" fill="#3498DB" id="circle-90"/><circle cx="262.1712699859542" cy="327.5612232474241" r="10" fill="#95A5A6" id="circle-91"/><circle cx="275.0967254251898" cy="309.40996085166574" r="10" fill="#E67E22" id="circle-92"/><circle cx="289.68904058573503" cy="292.56953142939005" r="10" fill="#3357FF" id="circle-93"/><circle cx="305.8160652018203" cy="277.1924445172499" r="10" fill="#F39C12" id="circle-94"/><circle cx="323.3317504411908" cy="263.4179573955225" r="10" fill="#9B59B6" id="circle-95"/><circle cx="342.0774715459476" cy="251.37081395261447" r="10" fill="#9B59B6" id="circle-96"/><circle cx="361.8834643629197" cy="241.16011498509087" r="10" fill="#34495E" id="circle-97"/><circle cx="382.57036275412236" cy="232.87833016396763" r="10" fill="#D35400" id="circle-98"/><circle cx="403.9508229642796" cy="226.60046061505088" r="10" fill="#D35400" id="circle-99"/><circle cx="425.8312202348819" cy="222.38335969712776" r="10" fill="#8E44AD" id="circle-100"/><circle cx="448.0134022999836" cy="220.26521812914518" r="10" fill="#95A5A6" id="circle-101"/><circle cx="470.2964838838071" cy="220.26521812914518" r="10" fill="#1ABC9C" id="circle-102"/><circle cx="492.4786659489087" cy="222.38335969712776" r="10" fill="#9B59B6" id="circle-103"/><circle cx="514.3590632195111" cy="226.60046061505088" r="10" fill="#FF5733" id="circle-104"/><circle cx="535.7395234296683" cy="232.87833016396763" r="10" fill="#2ECC71" id="circle-105"/><circle cx="556.426421820871" cy="241.1601149850909" r="10" fill="#2980B9" id="circle-106"/><circle cx="576.232414637843" cy="251.3708139526144" r="10" fill="#3498DB" id="circle-107"/><circle cx="594.9781357426" cy="263.41795739552254" r="10" fill="#7F8C8D" id="circle-108"/><circle cx="612.4938209819704" cy="277.1924445172499" r="10" fill="#1ABC9C" id="circle-109"/><circle cx="628.6208455980557" cy="292.56953142939005" r="10" fill="#E67E22" id="circle-110"/><circle cx="643.2131607586009" cy="309.4099608516658" r="10" fill="#8E44AD" id="circle-111"/><circle cx="656.1386161978364" cy="327.5612232474241" r="10" fill="#8E44AD" id="circle-112"/><circle cx="667.2801569897482" cy="346.85893797361643" r="10" fill="#7F8C8D" id="circle-113"/><circle cx="676.5368836156143" cy="367.1283419373573" r="10" fill="#95A5A6" id="circle-114"/><circle cx="683.8249657256714" cy="388.18587227755614" r="10" fill="#3498DB" id="circle-115"/><circle cx="689.0784013197433" cy="409.8408287386131" r="10" fill="#3357FF" id="circle-116"/><circle cx="692.2496144715756" cy="431.8971006814637" r="10" fill="#2980B9" id="circle-117"/><circle cx="693.3098861837907" cy="454.15494309189535" r="10" fill="#E67E22" id="circle-118"/><circle cx="200" cy="454.1549430918953" r="10" fill="#1ABC9C" id="circle-119"/><circle cx="200.98616279948118" cy="431.56810153999413" r="10" fill="#2980B9" id="circle-120"/><circle cx="203.93714590355924" cy="409.1531594906107" r="10" fill="#E67E22" id="circle-121"/><circle cx="208.8304905489599" cy="387.0807081872528" r="10" fill="#16A085" id="circle-122"/><circle cx="215.62895542824927" cy="365.51873231204974" r="10" fill="#3498DB" id="circle-123"/><circle cx="224.28080011867073" cy="344.63133152088864" r="10" fill="#33FF57" id="circle-124"/><circle cx="234.72017885800344" cy="324.5774715459477" r="10" fill="#E74C3C" id="circle-125"/><circle cx="246.867641670572" cy="305.5097743704878" r="10" fill="#33FF57" id="circle-126"/><circle cx="260.63073902953397" cy="287.57335668340477" r="10" fill="#E67E22" id="circle-127"/><circle cx="275.90472545360234" cy="270.9047254536023" r="10" fill="#E67E22" id="circle-128"/><circle cx="292.57335668340477" cy="255.63073902953394" r="10" fill="#95A5A6" id="circle-129"/><circle cx="310.50977437048783" cy="241.86764167057197" r="10" fill="#E74C3C" id="circle-130"/><circle cx="329.5774715459476" cy="229.7201788580035" r="10" fill="#FF5733" id="circle-131"/><circle cx="349.6313315208887" cy="219.2808001186707" r="10" fill="#2980B9" id="circle-132"/><circle cx="370.5187323120498" cy="210.62895542824924" r="10" fill="#95A5A6" id="circle-133"/><circle cx="392.0807081872529" cy="203.83049054895986" r="10" fill="#9B59B6" id="circle-134"/><circle cx="414.1531594906107" cy="198.93714590355924" r="10" fill="#2ECC71" id="circle-135"/><circle cx="436.56810153999413" cy="195.98616279948118" r="10" fill="#3498DB" id="circle-136"/><circle cx="459.15494309189535" cy="195" r="10" fill="#D35400" id="circle-137"/><circle cx="481.74178464379656" cy="195.98616279948118" r="10" fill="#3357FF" id="circle-138"/><circle cx="504.15672669318" cy="198.93714590355924" r="10" fill="#F39C12" id="circle-139"/><circle cx="526.2291779965378" cy="203.83049054895986" r="10" fill="#F39C12" id="circle-140"/><circle cx="547.7911538717409" cy="210.62895542824927" r="10" fill="#D35400" id="circle-141"/><circle cx="568.678554662902" cy="219.28080011867073" r="10" fill="#ECF0F1" id="circle-142"/><circle cx="588.732414637843" cy="229.72017885800344" r="10" fill="#9B59B6" id="circle-143"/><circle cx="607.8001118133028" cy="241.8676416705719" r="10" fill="#16A085" id="circle-144"/><circle cx="625.7365295003859" cy="255.63073902953397" r="10" fill="#E67E22" id="circle-145"/><circle cx="642.4051607301884" cy="270.90472545360234" r="10" fill="#9B59B6" id="circle-146"/><circle cx="657.6791471542567" cy="287.57335668340477" r="10" fill="#34495E" id="circle-147"/><circle cx="671.4422445132187" cy="305.5097743704878" r="10" fill="#7F8C8D" id="circle-148"/><circle cx="683.5897073257872" cy="324.57747154594773" r="10" fill="#33FF57" id="circle-149"/><circle cx="694.0290860651199" cy="344.6313315208887" r="10" fill="#3498DB" id="circle-150"/><circle cx="702.6809307555415" cy="365.5187323120498" r="10" fill="#16A085" id="circle-151"/><circle cx="709.4793956348308" cy="387.08070818725287" r="10" fill="#16A085" id="circle-152"/><circle cx="714.3727402802315" cy="409.1531594906106" r="10" fill="#33FF57" id="circle-153"/><circle cx="717.3237233843095" cy="431.56810153999413" r="10" fill="#3498DB" id="circle-154"/><circle cx="718.3098861837907" cy="454.15494309189535" r="10" fill="#7F8C8D" id="circle-155"/><circle cx="175" cy="454.1549430918953" r="10" fill="#3498DB" id="circle-156"/><circle cx="175.92142692258813" cy="431.289969837394" r="10" fill="#8E44AD" id="circle-157"/><circle cx="178.67973188317887" cy="408.5732847084604" r="10" fill="#D35400" id="circle-158"/><circle cx="183.2570262156541" cy="386.15221412526523" r="10" fill="#34495E" id="circle-159"/><circle cx="189.6236244098153" cy="364.17216733421327" r="10" fill="#2980B9" id="circle-160"/><circle cx="197.7382366333086" cy="342.77569337318255" r="10" fill="#1ABC9C" id="circle-161"/><circle cx="207.54823651203168" cy="322.10155658631317" r="10" fill="#16A085" id="circle-162"/><circle cx="218.99000243236424" cy="302.28383668398715" r="10" fill="#3498DB" id="circle-163"/><circle cx="231.9893301517459" cy="283.4510591844561" r="10" fill="#9B59B6" id="circle-164"/><circle cx="246.46191404166407" cy="265.7253618765358" r="10" fill="#33FF57" id="circle-165"/><circle cx="262.31389384200514" cy="249.22170270917806" r="10" fill="#1ABC9C" id="circle-166"/><circle cx="279.4424633808586" cy="234.0471142450584" r="10" fill="#9B59B6" id="circle-167"/><circle cx="297.73653731199187" cy="220.30000951333537" r="10" fill="#E67E22" id="circle-168"/><circle cx="317.0774715459476" cy="208.06954376339255" r="10" fill="#33FF57" id="circle-169"/><circle cx="337.3398327024917" cy="197.43503625883403" r="10" fill="#E74C3C" id="circle-170"/><circle cx="358.3922115942156" cy="188.46545586162347" r="10" fill="#33FF57" id="circle-171"/><circle cx="380.0980754655443" cy="181.21897374254797" r="10" fill="#16A085" id="circle-172"/><circle cx="402.3166534600466" cy="175.74258611885375" r="10" fill="#F39C12" id="circle-173"/><circle cx="424.90384957345805" cy="172.07180946574334" r="10" fill="#7F8C8D" id="circle-174"/><circle cx="447.71317717156285" cy="170.23045017840508" r="10" fill="#E67E22" id="circle-175"/><circle cx="470.59670901222785" cy="170.23045017840502" r="10" fill="#E67E22" id="circle-176"/><circle cx="493.40603661033265" cy="172.07180946574334" r="10" fill="#16A085" id="circle-177"/><circle cx="515.9932327237441" cy="175.74258611885375" r="10" fill="#ECF0F1" id="circle-178"/><circle cx="538.2118107182464" cy="181.21897374254797" r="10" fill="#F39C12" id="circle-179"/><circle cx="559.917674589575" cy="188.46545586162347" r="10" fill="#ECF0F1" id="circle-180"/><circle cx="580.970053481299" cy="197.43503625883403" r="10" fill="#2980B9" id="circle-181"/><circle cx="601.232414637843" cy="208.0695437633925" r="10" fill="#E67E22" id="circle-182"/><circle cx="620.5733488717989" cy="220.30000951333537" r="10" fill="#3498DB" id="circle-183"/><circle cx="638.8674228029322" cy="234.0471142450584" r="10" fill="#FF5733" id="circle-184"/><circle cx="655.9959923417856" cy="249.2217027091781" r="10" fill="#FF5733" id="circle-185"/><circle cx="671.8479721421265" cy="265.72536187653577" r="10" fill="#E74C3C" id="circle-186"/><circle cx="686.3205560320448" cy="283.4510591844561" r="10" fill="#ECF0F1" id="circle-187"/><circle cx="699.3198837514265" cy="302.28383668398715" r="10" fill="#FF5733" id="circle-188"/><circle cx="710.7616496717591" cy="322.1015565863132" r="10" fill="#F39C12" id="circle-189"/><circle cx="720.5716495504821" cy="342.77569337318255" r="10" fill="#E74C3C" id="circle-190"/><circle cx="728.6862617739754" cy="364.17216733421316" r="10" fill="#8E44AD" id="circle-191"/><circle cx="735.0528599681365" cy="386.1522141252652" r="10" fill="#3357FF" id="circle-192"/><circle cx="739.6301543006118" cy="408.5732847084604" r="10" fill="#D35400" id="circle-193"/><circle cx="742.3884592612026" cy="431.289969837394" r="10" fill="#95A5A6" id="circle-194"/><circle cx="743.3098861837907" cy="454.15494309189535" r="10" fill="#ECF0F1" id="circle-195"/><circle cx="150" cy="454.1549430918953" r="10" fill="#9B59B6" id="circle-196"/><circle cx="150.86445992332568" cy="431.05176526193236" r="10" fill="#D35400" id="circle-197"/><circle cx="153.4530052827539" cy="408.0777897739129" r="10" fill="#FF5733" id="circle-198"/><circle cx="157.7511598826233" cy="385.3614964178755" r="10" fill="#F39C12" id="circle-199"/><circle cx="163.73488669891822" cy="363.0299239208506" r="10" fill="#3498DB" id="circle-200"/><circle cx="171.3707223040571" cy="341.2079594947677" r="10" fill="#3498DB" id="circle-201"/><circle cx="180.6159640079536" cy="320.0176404165079" r="10" fill="#2ECC71" id="circle-202"/><circle cx="191.41890866878157" cy="299.57747154594756" r="10" fill="#2ECC71" id="circle-203"/><circle cx="203.71914183791665" cy="280.001762598713" r="10" fill="#7F8C8D" id="circle-204"/><circle cx="217.44787562203942" cy="261.39998887988145" r="10" fill="#95A5A6" id="circle-205"/><circle cx="232.52833337293808" cy="243.876179053668" r="10" fill="#FF5733" id="circle-206"/><circle cx="248.87617905366815" cy="227.528333372938" r="10" fill="#D35400" id="circle-207"/><circle cx="266.3999888798815" cy="212.4478756220394" r="10" fill="#8E44AD" id="circle-208"/><circle cx="285.0017625987132" cy="198.7191418379165" r="10" fill="#1ABC9C" id="circle-209"/><circle cx="304.57747154594773" cy="186.4189086687815" r="10" fill="#33FF57" id="circle-210"/><circle cx="325.0176404165079" cy="175.6159640079536" r="10" fill="#34495E" id="circle-211"/><circle cx="346.2079594947678" cy="166.37072230405704" r="10" fill="#1ABC9C" id="circle-212"/><circle cx="368.02992392085065" cy="158.73488669891822" r="10" fill="#E74C3C" id="circle-213"/><circle cx="390.36149641787557" cy="152.7511598826233" r="10" fill="#F39C12" id="circle-214"/><circle cx="413.0777897739131" cy="148.4530052827539" r="10" fill="#3498DB" id="circle-215"/><circle cx="436.0517652619324" cy="145.86445992332568" r="10" fill="#33FF57" id="circle-216"/><circle cx="459.15494309189535" cy="145" r="10" fill="#E74C3C" id="circle-217"/><circle cx="482.2581209218584" cy="145.86445992332568" r="10" fill="#9B59B6" id="circle-218"/><circle cx="505.2320964098777" cy="148.4530052827539" r="10" fill="#E67E22" id="circle-219"/><circle cx="527.9483897659152" cy="152.7511598826233" r="10" fill="#33FF57" id="circle-220"/><circle cx="550.2799622629402" cy="158.73488669891827" r="10" fill="#7F8C8D" id="circle-221"/><circle cx="572.101926689023" cy="166.3707223040571" r="10" fill="#3498DB" id="circle-222"/><circle cx="593.2922457672828" cy="175.6159640079536" r="10" fill="#2980B9" id="circle-223"/><circle cx="613.7324146378431" cy="186.41890866878157" r="10" fill="#1ABC9C" id="circle-224"/><circle cx="633.3081235850776" cy="198.71914183791662" r="10" fill="#7F8C8D" id="circle-225"/><circle cx="651.9098973039092" cy="212.44787562203942" r="10" fill="#D35400" id="circle-226"/><circle cx="669.4337071301227" cy="227.52833337293808" r="10" fill="#3357FF" id="circle-227"/><circle cx="685.7815528108526" cy="243.87617905366815" r="10" fill="#D35400" id="circle-228"/><circle cx="700.8620105617513" cy="261.3999888798815" r="10" fill="#ECF0F1" id="circle-229"/><circle cx="714.5907443458741" cy="280.0017625987132" r="10" fill="#9B59B6" id="circle-230"/><circle cx="726.8909775150091" cy="299.57747154594773" r="10" fill="#ECF0F1" id="circle-231"/><circle cx="737.6939221758371" cy="320.0176404165079" r="10" fill="#16A085" id="circle-232"/><circle cx="746.9391638797337" cy="341.2079594947678" r="10" fill="#9B59B6" id="circle-233"/><circle cx="754.5749994848725" cy="363.0299239208506" r="10" fill="#D35400" id="circle-234"/><circle cx="760.5587263011673" cy="385.36149641787557" r="10" fill="#ECF0F1" id="circle-235"/><circle cx="764.8568809010369" cy="408.0777897739131" r="10" fill="#E67E22" id="circle-236"/><circle cx="767.445426260465" cy="431.0517652619324" r="10" fill="#95A5A6" id="circle-237"/><circle cx="768.3098861837907" cy="454.15494309189535" r="10" fill="#3357FF" id="circle-238"/><circle cx="125" cy="454.1549430918953" r="10" fill="#3498DB" id="circle-239"/><circle cx="125.81398464680314" cy="430.8454725776358" r="10" fill="#9B59B6" id="circle-240"/><circle cx="128.25197293583483" cy="407.64956346066197" r="10" fill="#ECF0F1" id="circle-241"/><circle cx="132.30208723321653" cy="384.6802238785472" r="10" fill="#16A085" id="circle-242"/><circle cx="137.9445957892076" cy="362.04935814486544" r="10" fill="#34495E" id="circle-243"/><circle cx="145.15200886930614" cy="339.8672215626246" r="10" fill="#2980B9" id="circle-244"/><circle cx="153.8892126814726" cy="318.24188327151273" r="10" fill="#F39C12" id="circle-245"/><circle cx="164.11364044699462" cy="297.27869974591283" r="10" fill="#F39C12" id="circle-246"/><circle cx="175.77547978155462" cy="277.0798015087497" r="10" fill="#95A5A6" id="circle-247"/><circle cx="188.81791537615862" cy="257.74359556184857" r="10" fill="#8E44AD" id="circle-248"/><circle cx="203.1774057956106" cy="239.3642859569143" r="10" fill="#D35400" id="circle-249"/><circle cx="218.78399304599807" cy="222.0314148428603" r="10" fill="#34495E" id="circle-250"/><circle cx="235.56164340300575" cy="205.8294262254601" r="10" fill="#34495E" id="circle-251"/><circle cx="253.42861784057766" cy="190.83725456463958" r="10" fill="#F39C12" id="circle-252"/><circle cx="272.29787025523626" cy="177.1279402137223" r="10" fill="#9B59B6" id="circle-253"/><circle cx="292.07747154594756" cy="164.76827357417062" r="10" fill="#F39C12" id="circle-254"/><circle cx="312.6710574834623" cy="153.81846969946287" r="10" fill="#33FF57" id="circle-255"/><circle cx="333.9782981871525" cy="144.3318749334063" r="10" fill="#2980B9" id="circle-256"/><circle cx="355.89538692210624" cy="136.35470701211204" r="10" fill="#3498DB" id="circle-257"/><circle cx="378.315545835105" cy="129.92582989583047" r="10" fill="#7F8C8D" id="circle-258"/><circle cx="401.1295461655909" cy="125.07656442764363" r="10" fill="#ECF0F1" id="circle-259"/><circle cx="424.2262403972094" cy="121.83053574146606" r="10" fill="#E74C3C" id="circle-260"/><circle cx="447.49310375733535" cy="120.2035581627672" r="10" fill="#34495E" id="circle-261"/><circle cx="470.8167824264554" cy="120.2035581627672" r="10" fill="#2980B9" id="circle-262"/><circle cx="494.0836457865814" cy="121.83053574146606" r="10" fill="#3357FF" id="circle-263"/><circle cx="517.1803400181998" cy="125.07656442764363" r="10" fill="#16A085" id="circle-264"/><circle cx="539.9943403486858" cy="129.92582989583047" r="10" fill="#D35400" id="circle-265"/><circle cx="562.4144992616845" cy="136.3547070121121" r="10" fill="#2980B9" id="circle-266"/><circle cx="584.3315879966383" cy="144.33187493340637" r="10" fill="#3357FF" id="circle-267"/><circle cx="605.6388287003285" cy="153.81846969946287" r="10" fill="#2980B9" id="circle-268"/><circle cx="626.232414637843" cy="164.76827357417056" r="10" fill="#3357FF" id="circle-269"/><circle cx="646.0120159285544" cy="177.1279402137223" r="10" fill="#D35400" id="circle-270"/><circle cx="664.881268343213" cy="190.83725456463964" r="10" fill="#FF5733" id="circle-271"/><circle cx="682.7482427807851" cy="205.82942622546022" r="10" fill="#16A085" id="circle-272"/><circle cx="699.5258931377928" cy="222.03141484286044" r="10" fill="#9B59B6" id="circle-273"/><circle cx="715.13248038818" cy="239.36428595691436" r="10" fill="#33FF57" id="circle-274"/><circle cx="729.4919708076321" cy="257.7435955618487" r="10" fill="#E67E22" id="circle-275"/><circle cx="742.5344064022361" cy="277.0798015087497" r="10" fill="#33FF57" id="circle-276"/><circle cx="754.1962457367961" cy="297.27869974591295" r="10" fill="#1ABC9C" id="circle-277"/><circle cx="764.4206735023181" cy="318.24188327151273" r="10" fill="#7F8C8D" id="circle-278"/><circle cx="773.1578773144845" cy="339.8672215626246" r="10" fill="#7F8C8D" id="circle-279"/><circle cx="780.3652903945831" cy="362.0493581448655" r="10" fill="#ECF0F1" id="circle-280"/><circle cx="786.0077989505742" cy="384.6802238785473" r="10" fill="#2ECC71" id="circle-281"/><circle cx="790.0579132479559" cy="407.64956346066214" r="10" fill="#E74C3C" id="circle-282"/><circle cx="792.4959015369875" cy="430.84547257763586" r="10" fill="#2ECC71" id="circle-283"/><circle cx="793.3098861837907" cy="454.15494309189535" r="10" fill="#8E44AD" id="circle-284"/><circle cx="100" cy="454.1549430918953" r="10" fill="#16A085" id="circle-285"/><circle cx="100.76897830239477" cy="430.66508593521144" r="10" fill="#9B59B6" id="circle-286"/><circle cx="103.0726203264324" cy="407.27581595310096" r="10" fill="#3357FF" id="circle-287"/><circle cx="106.90106152330452" cy="384.08728959041315" r="10" fill="#3357FF" id="circle-288"/><circle cx="112.23790792005309" cy="361.1988036770007" r="10" fill="#D35400" id="circle-289"/><circle cx="119.06030632107962" cy="338.70837022344904" r="10" fill="#E74C3C" id="circle-290"/><circle cx="127.33904216903727" cy="316.7122967186003" r="10" fill="#7F8C8D" id="circle-291"/><circle cx="137.0386646460505" cy="295.304773726101" r="10" fill="#3498DB" id="circle-292"/><circle cx="148.11763847955956" cy="274.5774715459477" r="10" fill="#2ECC71" id="circle-293"/><circle cx="160.52852180273436" cy="254.6191476681891" r="10" fill="#8E44AD" id="circle-294"/><circle cx="174.21816930783172" cy="235.5152666997273" r="10" fill="#ECF0F1" id="circle-295"/><circle cx="189.1279598225617" cy="217.34763439175072" r="10" fill="#2980B9" id="circle-296"/><circle cx="205.1940473349476" cy="200.19404733494756" r="10" fill="#3498DB" id="circle-297"/><circle cx="222.34763439175077" cy="184.12795982256165" r="10" fill="#E67E22" id="circle-298"/><circle cx="240.5152666997274" cy="169.21816930783172" r="10" fill="#F39C12" id="circle-299"/><circle cx="259.61914766818904" cy="155.52852180273447" r="10" fill="#E67E22" id="circle-300"/><circle cx="279.57747154594756" cy="143.11763847955967" r="10" fill="#9B59B6" id="circle-301"/><circle cx="300.3047737261011" cy="132.0386646460505" r="10" fill="#9B59B6" id="circle-302"/><circle cx="321.7122967186003" cy="122.33904216903727" r="10" fill="#3357FF" id="circle-303"/><circle cx="343.7083702234491" cy="114.06030632107957" r="10" fill="#E74C3C" id="circle-304"/><circle cx="366.1988036770008" cy="107.23790792005303" r="10" fill="#3357FF" id="circle-305"/><circle cx="389.0872895904133" cy="101.90106152330452" r="10" fill="#9B59B6" id="circle-306"/><circle cx="412.2758159531009" cy="98.0726203264324" r="10" fill="#E67E22" id="circle-307"/><circle cx="435.66508593521144" cy="95.76897830239477" r="10" fill="#16A085" id="circle-308"/><circle cx="459.15494309189535" cy="95" r="10" fill="#9B59B6" id="circle-309"/><circle cx="482.64480024857926" cy="95.76897830239477" r="10" fill="#3357FF" id="circle-310"/><circle cx="506.03407023068974" cy="98.0726203264324" r="10" fill="#3498DB" id="circle-311"/><circle cx="529.2225965933774" cy="101.90106152330452" r="10" fill="#33FF57" id="circle-312"/><circle cx="552.1110825067899" cy="107.23790792005303" r="10" fill="#7F8C8D" id="circle-313"/><circle cx="574.6015159603415" cy="114.06030632107957" r="10" fill="#FF5733" id="circle-314"/><circle cx="596.5975894651903" cy="122.33904216903721" r="10" fill="#E67E22" id="circle-315"/><circle cx="618.0051124576896" cy="132.0386646460505" r="10" fill="#34495E" id="circle-316"/><circle cx="638.732414637843" cy="143.11763847955956" r="10" fill="#1ABC9C" id="circle-317"/><circle cx="658.6907385156015" cy="155.52852180273436" r="10" fill="#ECF0F1" id="circle-318"/><circle cx="677.7946194840632" cy="169.21816930783166" r="10" fill="#E67E22" id="circle-319"/><circle cx="695.9622517920399" cy="184.1279598225616" r="10" fill="#3498DB" id="circle-320"/><circle cx="713.1158388488432" cy="200.1940473349476" r="10" fill="#3498DB" id="circle-321"/><circle cx="729.181926361229" cy="217.34763439175072" r="10" fill="#95A5A6" id="circle-322"/><circle cx="744.091716875959" cy="235.51526669972736" r="10" fill="#3498DB" id="circle-323"/><circle cx="757.7813643810562" cy="254.61914766818902" r="10" fill="#FF5733" id="circle-324"/><circle cx="770.192247704231" cy="274.57747154594756" r="10" fill="#E67E22" id="circle-325"/><circle cx="781.2712215377401" cy="295.3047737261009" r="10" fill="#3357FF" id="circle-326"/><circle cx="790.9708440147534" cy="316.7122967186003" r="10" fill="#8E44AD" id="circle-327"/><circle cx="799.2495798627111" cy="338.70837022344904" r="10" fill="#34495E" id="circle-328"/><circle cx="806.0719782637376" cy="361.19880367700074" r="10" fill="#95A5A6" id="circle-329"/><circle cx="811.4088246604862" cy="384.0872895904132" r="10" fill="#E67E22" id="circle-330"/><circle cx="815.2372658573584" cy="407.27581595310085" r="10" fill="#ECF0F1" id="circle-331"/><circle cx="817.5409078813959" cy="430.6650859352113" r="10" fill="#3498DB" id="circle-332"/><circle cx="818.3098861837907" cy="454.15494309189535" r="10" fill="#FF5733" id="circle-333"/><circle cx="75" cy="454.1549430918953" r="10" fill="#7F8C8D" id="circle-334"/><circle cx="75.72861564108484" cy="430.5060166993251" r="10" fill="#8E44AD" id="circle-335"/><circle cx="77.9116986756431" cy="406.94679878493173" r="10" fill="#2980B9" id="circle-336"/><circle cx="81.54096792196208" cy="383.56665753190754" r="10" fill="#E67E22" id="circle-337"/><circle cx="86.60265631867185" cy="360.4542818243291" r="10" fill="#33FF57" id="circle-338"/><circle cx="93.07756314792414" cy="337.6973448198432" r="10" fill="#E74C3C" id="circle-339"/><circle cx="100.94112687029224" cy="315.38217137534815" r="10" fill="#D35400" id="circle-340"/><circle cx="110.16351829510302" cy="293.593410587244" r="10" fill="#ECF0F1" id="circle-341"/><circle cx="120.70975373277395" cy="272.41371468841555" r="10" fill="#ECF0F1" id="circle-342"/><circle cx="132.5398276999312" cy="251.92342552000125" r="10" fill="#95A5A6" id="circle-343"/><circle cx="145.60886467391032" cy="232.20026976727226" r="10" fill="#3498DB" id="circle-344"/><circle cx="159.86728932098526" cy="213.31906411569042" r="10" fill="#F39C12" id="circle-345"/><circle cx="175.26101455258987" cy="195.35143144559424" r="10" fill="#3357FF" id="circle-346"/><circle cx="191.73164669617074" cy="178.36552914208147" r="10" fill="#8E44AD" id="circle-347"/><circle cx="209.21670700238914" cy="162.4257905507007" r="10" fill="#16A085" id="circle-348"/><circle cx="227.6498686484171" cy="147.59268055970279" r="10" fill="#FF5733" id="circle-349"/><circle cx="246.96120833829593" cy="133.92246623600795" r="10" fill="#95A5A6" id="circle-350"/><circle cx="267.07747154594756" cy="121.46700338494867" r="10" fill="#2ECC71" id="circle-351"/><circle cx="287.9223503946843" cy="110.27353984343762" r="10" fill="#9B59B6" id="circle-352"/><circle cx="309.41677311912144" cy="100.38453625273928" r="10" fill="#E74C3C" id="circle-353"/><circle cx="331.4792040114685" cy="91.837504990713" r="10" fill="#16A085" id="circle-354"/><circle cx="354.02595271439645" cy="84.66486787451538" r="10" fill="#E74C3C" id="circle-355"/><circle cx="376.9714916872296" cy="78.89383317354225" r="10" fill="#16A085" id="circle-356"/><circle cx="400.2287806412023" cy="74.54629239914323" r="10" fill="#33FF57" id="circle-357"/><circle cx="423.70959671308805" cy="71.63873726262108" r="10" fill="#E74C3C" id="circle-358"/><circle cx="447.3248691247382" cy="70.18219711652154" r="10" fill="#FF5733" id="circle-359"/><circle cx="470.98501705905255" cy="70.18219711652154" r="10" fill="#9B59B6" id="circle-360"/><circle cx="494.6002894707027" cy="71.63873726262108" r="10" fill="#D35400" id="circle-361"/><circle cx="518.0811055425884" cy="74.54629239914323" r="10" fill="#E67E22" id="circle-362"/><circle cx="541.3383944965611" cy="78.89383317354225" r="10" fill="#1ABC9C" id="circle-363"/><circle cx="564.2839334693942" cy="84.66486787451538" r="10" fill="#D35400" id="circle-364"/><circle cx="586.8306821723223" cy="91.837504990713" r="10" fill="#E67E22" id="circle-365"/><circle cx="608.8931130646694" cy="100.38453625273928" r="10" fill="#ECF0F1" id="circle-366"/><circle cx="630.3875357891064" cy="110.27353984343762" r="10" fill="#2ECC71" id="circle-367"/><circle cx="651.232414637843" cy="121.46700338494861" r="10" fill="#2980B9" id="circle-368"/><circle cx="671.3486778454949" cy="133.922466236008" r="10" fill="#E67E22" id="circle-369"/><circle cx="690.6600175353736" cy="147.59268055970284" r="10" fill="#F39C12" id="circle-370"/><circle cx="709.0931791814016" cy="162.42579055070075" r="10" fill="#2980B9" id="circle-371"/><circle cx="726.5782394876201" cy="178.36552914208153" r="10" fill="#33FF57" id="circle-372"/><circle cx="743.0488716312009" cy="195.3514314455943" r="10" fill="#33FF57" id="circle-373"/><circle cx="758.4425968628054" cy="213.31906411569048" r="10" fill="#33FF57" id="circle-374"/><circle cx="772.7010215098803" cy="232.20026976727232" r="10" fill="#1ABC9C" id="circle-375"/><circle cx="785.7700584838595" cy="251.9234255200013" r="10" fill="#8E44AD" id="circle-376"/><circle cx="797.6001324510167" cy="272.41371468841555" r="10" fill="#9B59B6" id="circle-377"/><circle cx="808.1463678886877" cy="293.5934105872441" r="10" fill="#1ABC9C" id="circle-378"/><circle cx="817.3687593134985" cy="315.3821713753482" r="10" fill="#F39C12" id="circle-379"/><circle cx="825.2323230358666" cy="337.69734481984324" r="10" fill="#3357FF" id="circle-380"/><circle cx="831.7072298651188" cy="360.45428182432914" r="10" fill="#16A085" id="circle-381"/><circle cx="836.7689182618286" cy="383.5666575319076" r="10" fill="#16A085" id="circle-382"/><circle cx="840.3981875081477" cy="406.9467987849318" r="10" fill="#8E44AD" id="circle-383"/><circle cx="842.5812705427059" cy="430.5060166993251" r="10" fill="#33FF57" id="circle-384"/><circle cx="843.3098861837907" cy="454.15494309189535" r="10" fill="#34495E" id="circle-385"/><circle cx="50" cy="454.1549430918953" r="10" fill="#E74C3C" id="circle-386"/><circle cx="50.69222540623974" cy="430.3646989279417" r="10" fill="#D35400" id="circle-387"/><circle cx="52.76655935330308" cy="406.65495341961446" r="10" fill="#7F8C8D" id="circle-388"/><circle cx="56.21598295172805" cy="383.10593284057114" r="10" fill="#E67E22" id="circle-389"/><circle cx="61.02882444394686" cy="359.79731962218426" r="10" fill="#16A085" id="circle-390"/><circle cx="67.18879869781892" cy="336.8079827334176" r="10" fill="#2ECC71" id="circle-391"/><circle cx="74.67506231036305" cy="314.2157108131994" r="10" fill="#7F8C8D" id="circle-392"/><circle cx="83.46228413523517" cy="292.09694895829296" r="10" fill="#1ABC9C" id="circle-393"/><circle cx="93.52073099530946" cy="270.5265400572859" r="10" fill="#7F8C8D" id="circle-394"/><circle cx="104.81636829033766" cy="249.5774715459477" r="10" fill="#3357FF" id="circle-395"/><circle cx="117.3109751592632" cy="229.32062844084905" r="10" fill="#D35400" id="circle-396"/><circle cx="130.962273807516" cy="209.8245534869055" r="10" fill="#1ABC9C" id="circle-397"/><circle cx="145.7240725616873" cy="191.15521523042383" r="10" fill="#E74C3C" id="circle-398"/><circle cx="161.5464221675299" cy="173.37578480242462" r="10" fill="#33FF57" id="circle-399"/><circle cx="178.37578480242462" cy="156.54642216752984" r="10" fill="#E74C3C" id="circle-400"/><circle cx="196.1552152304239" cy="140.72407256168725" r="10" fill="#2980B9" id="circle-401"/><circle cx="214.8245534869056" cy="125.96227380751594" r="10" fill="#E74C3C" id="circle-402"/><circle cx="234.32062844084913" cy="112.3109751592632" r="10" fill="#2980B9" id="circle-403"/><circle cx="254.5774715459476" cy="99.81636829033772" r="10" fill="#34495E" id="circle-404"/><circle cx="275.52654005728596" cy="88.5207309953094" r="10" fill="#8E44AD" id="circle-405"/><circle cx="297.09694895829296" cy="78.46228413523517" r="10" fill="#3498DB" id="circle-406"/><circle cx="319.2157108131995" cy="69.67506231036299" r="10" fill="#E67E22" id="circle-407"/><circle cx="341.8079827334176" cy="62.188798697818925" r="10" fill="#33FF57" id="circle-408"/><circle cx="364.7973196221844" cy="56.02882444394686" r="10" fill="#3498DB" id="circle-409"/><circle cx="388.10593284057114" cy="51.21598295172805" r="10" fill="#E74C3C" id="circle-410"/><circle cx="411.6549534196145" cy="47.76655935330308" r="10" fill="#D35400" id="circle-411"/><circle cx="435.3646989279416" cy="45.69222540623974" r="10" fill="#33FF57" id="circle-412"/><circle cx="459.15494309189535" cy="45" r="10" fill="#34495E" id="circle-413"/><circle cx="482.9451872558491" cy="45.69222540623974" r="10" fill="#E67E22" id="circle-414"/><circle cx="506.65493276417624" cy="47.76655935330308" r="10" fill="#ECF0F1" id="circle-415"/><circle cx="530.2039533432196" cy="51.21598295172805" r="10" fill="#7F8C8D" id="circle-416"/><circle cx="553.5125665616064" cy="56.02882444394686" r="10" fill="#95A5A6" id="circle-417"/><circle cx="576.5019034503731" cy="62.188798697818925" r="10" fill="#ECF0F1" id="circle-418"/><circle cx="599.0941753705913" cy="69.67506231036305" r="10" fill="#7F8C8D" id="circle-419"/><circle cx="621.2129372254979" cy="78.46228413523517" r="10" fill="#33FF57" id="circle-420"/><circle cx="642.7833461265047" cy="88.52073099530946" r="10" fill="#16A085" id="circle-421"/><circle cx="663.732414637843" cy="99.81636829033766" r="10" fill="#3498DB" id="circle-422"/><circle cx="683.9892577429416" cy="112.3109751592632" r="10" fill="#3357FF" id="circle-423"/><circle cx="703.4853326968852" cy="125.962273807516" r="10" fill="#9B59B6" id="circle-424"/><circle cx="722.1546709533668" cy="140.7240725616873" r="10" fill="#FF5733" id="circle-425"/><circle cx="739.9341013813661" cy="156.5464221675299" r="10" fill="#95A5A6" id="circle-426"/><circle cx="756.7634640162609" cy="173.37578480242462" r="10" fill="#D35400" id="circle-427"/><circle cx="772.5858136221034" cy="191.1552152304239" r="10" fill="#2980B9" id="circle-428"/><circle cx="787.3476123762747" cy="209.82455348690556" r="10" fill="#7F8C8D" id="circle-429"/><circle cx="800.9989110245275" cy="229.3206284408491" r="10" fill="#8E44AD" id="circle-430"/><circle cx="813.493517893453" cy="249.57747154594773" r="10" fill="#34495E" id="circle-431"/><circle cx="824.7891551884813" cy="270.52654005728596" r="10" fill="#E67E22" id="circle-432"/><circle cx="834.8476020485556" cy="292.09694895829296" r="10" fill="#3498DB" id="circle-433"/><circle cx="843.6348238734276" cy="314.21571081319945" r="10" fill="#16A085" id="circle-434"/><circle cx="851.1210874859718" cy="336.80798273341765" r="10" fill="#3357FF" id="circle-435"/><circle cx="857.2810617398438" cy="359.7973196221843" r="10" fill="#34495E" id="circle-436"/><circle cx="862.0939032320628" cy="383.1059328405712" r="10" fill="#2ECC71" id="circle-437"/><circle cx="865.5433268304876" cy="406.65495341961446" r="10" fill="#33FF57" id="circle-438"/><circle cx="867.617660777551" cy="430.36469892794173" r="10" fill="#3357FF" id="circle-439"/><circle cx="868.3098861837907" cy="454.15494309189535" r="10" fill="#2ECC71" id="circle-440"/><circle cx="25" cy="454.1549430918953" r="10" fill="#2980B9" id="circle-441"/><circle cx="25.61532967779931" cy="431.04827280206234" r="10" fill="#16A085" id="circle-442"/><circle cx="27.459574492372155" cy="408.0071008796242" r="10" fill="#9B59B6" id="circle-443"/><circle cx="30.52750673142083" cy="385.0967400297372" r="10" fill="#FF5733" id="circle-444"/><circle cx="34.81043000769381" cy="362.38213215936025" r="10" fill="#1ABC9C" id="circle-445"/><circle cx="40.29620390984002" cy="339.9276642923641" r="10" fill="#F39C12" id="circle-446"/><circle cx="46.96927841572375" cy="317.79698605751656" r="10" fill="#7F8C8D" id="circle-447"/><circle cx="54.810737970651985" cy="296.0528292666945" r="10" fill="#34495E" id="circle-448"/><circle cx="63.79835510556944" cy="274.75683009474744" r="10" fill="#3357FF" id="circle-449"/><circle cx="73.90665344323423" cy="253.96935436506365" r="10" fill="#34495E" id="circle-450"/><circle cx="85.10697991377725" cy="233.7493264360848" r="10" fill="#E67E22" id="circle-451"/><circle cx="97.36758597494185" cy="214.1540621738103" r="10" fill="#9B59B6" id="circle-452"/><circle cx="110.65371760677567" cy="195.23910648374834" r="10" fill="#FF5733" id="circle-453"/><circle cx="124.92771382567736" cy="177.05807586284521" r="10" fill="#F39C12" id="circle-454"/><circle cx="140.14911343854476" cy="159.66250641770108" r="10" fill="#ECF0F1" id="circle-455"/><circle cx="156.27476973442373" cy="143.10170777987543" r="10" fill="#E74C3C" id="circle-456"/><circle cx="173.25897278854802" cy="127.42262333237966" r="10" fill="#95A5A6" id="circle-457"/><circle cx="191.05357903208687" cy="112.6696971435573" r="10" fill="#F39C12" id="circle-458"/><circle cx="209.60814772032165" cy="98.88474798554421" r="10" fill="#95A5A6" id="circle-459"/><circle cx="228.87008391241713" cy="86.10685079441475" r="10" fill="#33FF57" id="circle-460"/><circle cx="248.7847875574953" cy="74.37222590803088" r="10" fill="#7F8C8D" id="circle-461"/><circle cx="269.2958082644118" cy="63.714136395558455" r="10" fill="#E74C3C" id="circle-462"/><circle cx="290.3450053165227" cy="54.16279376968464" r="10" fill="#34495E" id="circle-463"/><circle cx="311.8727124778628" cy="45.74527234880213" r="10" fill="#3357FF" id="circle-464"/><circle cx="333.8179071235737" cy="38.48543251191245" r="10" fill="#34495E" id="circle-465"/><circle cx="356.11838321516416" cy="32.4038530637892" r="10" fill="#1ABC9C" id="circle-466"/><circle cx="378.7109276302843" cy="27.517772902120385" r="10" fill="#E67E22" id="circle-467"/><circle cx="401.5314993471893" cy="23.84104215197965" r="10" fill="#FF5733" id="circle-468"/><circle cx="424.51541097597266" cy="21.384082906142055" r="10" fill="#2ECC71" id="circle-469"/><circle cx="447.5975121220017" cy="20.1538596825298" r="10" fill="#E67E22" id="circle-470"/><circle cx="470.71237406178903" cy="20.1538596825298" r="10" fill="#33FF57" id="circle-471"/><circle cx="493.7944752078181" cy="21.384082906142055" r="10" fill="#7F8C8D" id="circle-472"/><circle cx="516.7783868366015" cy="23.84104215197965" r="10" fill="#16A085" id="circle-473"/><circle cx="539.5989585535063" cy="27.517772902120385" r="10" fill="#F39C12" id="circle-474"/><circle cx="562.1915029686265" cy="32.4038530637892" r="10" fill="#34495E" id="circle-475"/><circle cx="584.491979060217" cy="38.48543251191245" r="10" fill="#E67E22" id="circle-476"/><circle cx="606.4371737059279" cy="45.745272348802075" r="10" fill="#2ECC71" id="circle-477"/><circle cx="627.964880867268" cy="54.16279376968458" r="10" fill="#95A5A6" id="circle-478"/><circle cx="649.014077919379" cy="63.714136395558455" r="10" fill="#1ABC9C" id="circle-479"/><circle cx="669.5250986262954" cy="74.37222590803088" r="10" fill="#8E44AD" id="circle-480"/><circle cx="689.4398022713737" cy="86.10685079441481" r="10" fill="#7F8C8D" id="circle-481"/><circle cx="708.7017384634692" cy="98.88474798554421" r="10" fill="#7F8C8D" id="circle-482"/><circle cx="727.2563071517038" cy="112.66969714355736" r="10" fill="#9B59B6" id="circle-483"/><circle cx="745.0509133952428" cy="127.42262333237966" r="10" fill="#16A085" id="circle-484"/><circle cx="762.035116449367" cy="143.10170777987548" r="10" fill="#ECF0F1" id="circle-485"/><circle cx="778.160772745246" cy="159.66250641770114" r="10" fill="#2980B9" id="circle-486"/><circle cx="793.3821723581134" cy="177.05807586284527" r="10" fill="#FF5733" id="circle-487"/><circle cx="807.6561685770149" cy="195.2391064837483" r="10" fill="#8E44AD" id="circle-488"/><circle cx="820.9423002088488" cy="214.15406217381033" r="10" fill="#1ABC9C" id="circle-489"/><circle cx="833.2029062700133" cy="233.74932643608471" r="10" fill="#95A5A6" id="circle-490"/><circle cx="844.4032327405564" cy="253.9693543650635" r="10" fill="#3357FF" id="circle-491"/><circle cx="854.5115310782212" cy="274.75683009474733" r="10" fill="#2980B9" id="circle-492"/><circle cx="863.4991482131386" cy="296.05282926669435" r="10" fill="#16A085" id="circle-493"/><circle cx="871.3406077680669" cy="317.79698605751645" r="10" fill="#34495E" id="circle-494"/><circle cx="878.0136822739507" cy="339.92766429236417" r="10" fill="#34495E" id="circle-495"/><circle cx="883.4994561760968" cy="362.3821321593603" r="10" fill="#95A5A6" id="circle-496"/><circle cx="887.7823794523699" cy="385.09674002973725" r="10" fill="#3498DB" id="circle-497"/><circle cx="890.8503116914185" cy="408.00710087962426" r="10" fill="#2980B9" id="circle-498"/><circle cx="892.6945565059914" cy="431.0482728020624" r="10" fill="#33FF57" id="circle-499"/><circle cx="893.3098861837907" cy="454.15494309189535" r="10" fill="#2ECC71" id="circle-500"/>
<text x="490" y="370" text-anchor="middle" font-size="30" fill="black">รวม ส.ส.</text>
  <text x="450" y="420" text-anchor="middle" font-size="50" fill="black" font-weight="bold">500</text>
  <text x="500" y="450" text-anchor="middle" font-size="30" fill="black">ที่นั่ง</text>
</svg>