<svg width="705" height="735" viewBox="0 0 705 735" fill="none" xmlns="http://www.w3.org/2000/svg">
  <g id="region-1">
    <g id="province-61">
      <g id="UTI_2" style="pointer-events: all; cursor: pointer; transform: scale(1);">
        <g id="text">
          <circle cx="565" cy="695" r="18" fill="rgb(146, 146, 157)" />
          <text x="565" y="701" text-anchor="middle" font-size="18" font-weight="bold" fill="#FFFBF8">2</text>
        </g>
      </g>

      <g id="UTI_1" style="pointer-events: all; cursor: pointer; transform: scale(1);">
        <g id="text_2">
          <circle cx="525" cy="695" r="18" fill="rgb(146, 146, 157)" />
          <text x="525" y="701" text-anchor="middle" font-size="18" font-weight="bold" fill="#FFFBF8">1</text>
        </g>
      </g>

      <g id="UTI_name" style="cursor: pointer;">
        <rect x="495" y="637" width="101" height="35" rx="4" fill="white"></rect>
        <text x="545" y="660 " text-anchor="middle" font-size="24" font-weight="bold" fill="#000">อุทัยธานี</text>
      </g>
    </g>

    <g id="province-60">
      <g id="NSN_6" style="pointer-events: all; cursor: pointer; transform: scale(1);">
        <g id="text_3">
          <circle cx="425" cy="715" r="18" fill="rgb(146, 146, 157)" />
          <text x="425" y="721" text-anchor="middle" font-size="18" font-weight="bold" fill="#FFFBF8">6</text>
        </g>
      </g>

      <g id="NSN_5" style="pointer-events: all; cursor: pointer; transform: scale(1);">
        <g id="text_4">
          <circle cx="385" cy="715" r="18" fill="rgb(146, 146, 157)" />
          <text x="385" y="721" text-anchor="middle" font-size="18" font-weight="bold" fill="#FFFBF8">5</text>
        </g>
      </g>

      <g id="NSN_4" style="pointer-events: all; cursor: pointer; transform: scale(1);">
        <g id="text_5">
          <circle cx="345" cy="715" r="18" fill="rgb(146, 146, 157)" />
          <text x="345" y="721" text-anchor="middle" font-size="18" font-weight="bold" fill="#FFFBF8">4</text>
        </g>
      </g>

      <g id="NSN_3" style="pointer-events: all; cursor: pointer; transform: scale(1);">
        <g id="text_6">
          <circle cx="425" cy="675" r="18" fill="rgb(146, 146, 157)" />
          <text x="425" y="681" text-anchor="middle" font-size="18" font-weight="bold" fill="#FFFBF8">3</text>
        </g>
      </g>

      <g id="NSN_2" style="pointer-events: all; cursor: pointer; transform: scale(1);">
        <g id="text_7">
          <circle cx="385" cy="675" r="18" fill="rgb(146, 146, 157)" />
          <text x="385" y="681" text-anchor="middle" font-size="18" font-weight="bold" fill="#FFFBF8">2</text>
        </g>
      </g>

      <g id="NSN_1" style="pointer-events: all; cursor: pointer; transform: scale(1);">
        <g id="text_8">
          <circle cx="345" cy="675" r="18" fill="rgb(146, 146, 157)" />
          <text x="345" y="681" text-anchor="middle" font-size="18" font-weight="bold" fill="#FFFBF8">1</text>
        </g>
      </g>

      <g id="NSN_name" style="cursor: pointer;">
        <rect x="321" y="620" width="128" height="35" rx="4" fill="white"></rect>
        <text x="384" y="647" text-anchor="middle" font-size="24" font-weight="bold" fill="#000">นครสวรรค์</text>
      </g>
    </g>




    <g id="province-62">
      <g id="KPT_4" style="pointer-events: all; cursor: pointer; transform: scale(1);">
        <g id="text_9">
          <circle cx="165" cy="595" r="18" fill="rgb(146, 146, 157)" />
          <text x="165" y="601" text-anchor="middle" font-size="18" font-weight="bold" fill="#FFFBF8">4</text>
        </g>
      </g>

      <g id="KPT_3" style="pointer-events: all; cursor: pointer; transform: scale(1);">
        <g id="text_10">
          <circle cx="125" cy="595" r="18" fill="rgb(146, 146, 157)" />
          <text x="125" y="601" text-anchor="middle" font-size="18" font-weight="bold" fill="#FFFBF8">3</text>
        </g>
      </g>

      <g id="KPT_2" style="pointer-events: all; cursor: pointer; transform: scale(1);">
        <g id="text_11">
          <circle cx="165" cy="555" r="18" fill="rgb(146, 146, 157)" />
          <text x="165" y="561" text-anchor="middle" font-size="18" font-weight="bold" fill="#FFFBF8">2</text>
        </g>
      </g>

      <g id="KPT_1" style="pointer-events: all; cursor: pointer; transform: scale(1);">
        <g id="text_12">
          <circle cx="125" cy="555" r="18" fill="rgb(146, 146, 157)" />
          <text x="125" y="561" text-anchor="middle" font-size="18" font-weight="bold" fill="#FFFBF8">1</text>
        </g>
      </g>

      <g id="KPT_name" style="cursor: pointer;">
        <rect x="56" y="499" width="136" height="35" rx="4" fill="white"></rect>
        <text x="124" y="527" text-anchor="middle" font-size="24" font-weight="bold" fill="#000">กำแพงเพชร</text>
      </g>
    </g>



    <g id="province-66">
      <g id="PCT_3" style="pointer-events: all; cursor: pointer; transform: scale(1);">
        <g id="text_13">
          <circle cx="365" cy="575" r="18" fill="rgb(146, 146, 157)" />
          <text x="365" y="581" text-anchor="middle" font-size="18" font-weight="bold" fill="#FFFBF8">3</text>
        </g>
      </g>

      <g id="PCT_2" style="pointer-events: all; cursor: pointer; transform: scale(1);">
        <g id="text_14">
          <circle cx="325" cy="575" r="18" fill="rgb(146, 146, 157)" />
          <text x="325" y="581" text-anchor="middle" font-size="18" font-weight="bold" fill="#FFFBF8">2</text>
        </g>
      </g>

      <g id="PCT_1" style="pointer-events: all; cursor: pointer; transform: scale(1);">
        <g id="text_15">
          <circle cx="285" cy="575" r="18" fill="rgb(146, 146, 157)" />
          <text x="285" y="581" text-anchor="middle" font-size="18" font-weight="bold" fill="#FFFBF8">1</text>
        </g>
      </g>
      <g id="PCT_name" style="cursor: pointer;">
        <rect x="288" y="520" width="75" height="35" rx="4" fill="white"></rect>
        <text x="325" y="545" text-anchor="middle" font-size="24" font-weight="bold" fill="#000">พิจิตร</text>
      </g>
    </g>


    <g id="province-67">
      <g id="PNB_6" style="pointer-events: all; cursor: pointer; transform: scale(1);">
        <g id="text_16">
          <circle cx="585" cy="575" r="18" fill="rgb(146, 146, 157)" />
          <text x="585" y="581" text-anchor="middle" font-size="18" font-weight="bold" fill="#FFFBF8">6</text>
        </g>
      </g>
      <g id="PNB_5" style="pointer-events: all; cursor: pointer; transform: scale(1);">
        <g id="text_17">
          <circle cx="545" cy="575" r="18" fill="rgb(146, 146, 157)" />
          <text x="545" y="581" text-anchor="middle" font-size="18" font-weight="bold" fill="#FFFBF8">5</text>
        </g>
      </g>
      <g id="PNB_4" style="pointer-events: all; cursor: pointer; transform: scale(1);">
        <g id="text_18">
          <circle cx="505" cy="575" r="18" fill="rgb(146, 146, 157)" />
          <text x="505" y="581" text-anchor="middle" font-size="18" font-weight="bold" fill="#FFFBF8">4</text>
        </g>
      </g>
      <g id="PNB_3" style="pointer-events: all; cursor: pointer; transform: scale(1);">
        <g id="text_19">
          <circle cx="585" cy="535" r="18" fill="rgb(146, 146, 157)" />
          <text x="585" y="541" text-anchor="middle" font-size="18" font-weight="bold" fill="#FFFBF8">3</text>
        </g>
      </g>
      <g id="PNB_2" style="pointer-events: all; cursor: pointer; transform: scale(1);">
        <g id="text_20">
          <circle cx="545" cy="535" r="18" fill="rgb(146, 146, 157)" />
          <text x="545" y="541" text-anchor="middle" font-size="18" font-weight="bold" fill="#FFFBF8">2</text>
        </g>
      </g>
      <g id="PNB_1" style="pointer-events: all; cursor: pointer; transform: scale(1);">
        <g id="text_21">
          <circle cx="505" cy="535" r="18" fill="rgb(146, 146, 157)" />
          <text x="505" y="541" text-anchor="middle" font-size="18" font-weight="bold" fill="#FFFBF8">1</text>
        </g>
      </g>
      <g id="PNB_name" style="cursor: pointer;">
        <rect x="488" y="479" width="117" height="35" rx="4" fill="white"></rect>
        <text x="545" y="505" text-anchor="middle" font-size="24" font-weight="bold" fill="#000">เพชรบูรณ์</text>
      </g>
    </g>



    <g id="province-64">
      <g id="STI_4" style="pointer-events: all; cursor: pointer; transform: scale(1);">
        <circle cx="326" cy="455" r="18" fill="rgb(146, 146, 157)" />
          <text x="326" y="461" text-anchor="middle" font-size="18" font-weight="bold" fill="#FFFBF8">4</text>
      </g>
      <g id="STI_3" style="pointer-events: all; cursor: pointer; transform: scale(1);">
        <g id="text_22">
        <circle cx="286" cy="455" r="18" fill="rgb(146, 146, 157)" />
          <text x="286" y="461" text-anchor="middle" font-size="18" font-weight="bold" fill="#FFFBF8">3</text>
        </g>
      </g>
      <g id="STI_2" style="pointer-events: all; cursor: pointer; transform: scale(1);">
        <g id="text_23">
         <circle cx="326" cy="415" r="18" fill="rgb(146, 146, 157)" />
          <text x="326" y="421" text-anchor="middle" font-size="18" font-weight="bold" fill="#FFFBF8">2</text>
        </g>
      </g>
      <g id="STI_1" style="pointer-events: all; cursor: pointer; transform: scale(1);">
        <g id="text_24">
         <circle cx="286" cy="415" r="18" fill="rgb(146, 146, 157)" />
          <text x="286" y="421" text-anchor="middle" font-size="18" font-weight="bold" fill="#FFFBF8">1</text>
        </g>
      </g>
      <g id="STI_name" style="cursor: pointer;">
        <rect x="253.5" y="360" width="80" height="35" rx="4" fill="white"></rect>
        <text x="293" y="386" text-anchor="middle" font-size="24" font-weight="bold" fill="#000">สุโขทัย</text>
      </g>
    </g>


    <g id="province-65">
      <g id="PLK_5" style="pointer-events: all; cursor: pointer; transform: scale(1);">
        <g id="text_25">
         <circle cx="445" cy="455" r="18" fill="rgb(146, 146, 157)" />
          <text x="445" y="461" text-anchor="middle" font-size="18" font-weight="bold" fill="#FFFBF8">5</text>
        </g>
      </g>
      <g id="PLK_4" style="pointer-events: all; cursor: pointer; transform: scale(1);">
        <g id="text_26">
         <circle cx="405" cy="455" r="18" fill="rgb(146, 146, 157)" />
          <text x="405" y="461" text-anchor="middle" font-size="18" font-weight="bold" fill="#FFFBF8">4</text>
        </g>
      </g>
      <g id="PLK_3" style="pointer-events: all; cursor: pointer; transform: scale(1);">
        <g id="text_27">
         <circle cx="485" cy="415" r="18" fill="rgb(146, 146, 157)" />
          <text x="485" y="421" text-anchor="middle" font-size="18" font-weight="bold" fill="#FFFBF8">3</text>
        </g>
      </g>
      <g id="PLK_2" style="pointer-events: all; cursor: pointer; transform: scale(1);">
        <g id="text_28">
         <circle cx="445" cy="415" r="18" fill="rgb(146, 146, 157)" />
          <text x="445" y="421" text-anchor="middle" font-size="18" font-weight="bold" fill="#FFFBF8">2</text>
        </g>
      </g>
      <g id="PLK_1" style="pointer-events: all; cursor: pointer; transform: scale(1);">
        <g id="text_29">
         <circle cx="405" cy="415" r="18" fill="rgb(146, 146, 157)" />
          <text x="405" y="421" text-anchor="middle" font-size="18" font-weight="bold" fill="#FFFBF8">1</text>
        </g>
      </g>
      <g id="PLK_name" style="cursor: pointer;">
        <rect x="386.5" y="360" width="109" height="35" rx="4" fill="white"></rect>
        <text x="441" y="388" text-anchor="middle" font-size="24" font-weight="bold" fill="#000">พิษณุโลก</text>
      </g>
    </g>



    <g id="province-63">
      <g id="TAK_3" style="pointer-events: all; cursor: pointer; transform: scale(1);">
        <g id="text_30">
          <circle cx="165" cy="435" r="18" fill="rgb(146, 146, 157)" />
          <text x="165" y="441" text-anchor="middle" font-size="18" font-weight="bold" fill="#FFFBF8">3</text>
        </g>
      </g>
      <g id="TAK_2" style="pointer-events: all; cursor: pointer; transform: scale(1);">
        <g id="text_31">
          <circle cx="125" cy="435" r="18" fill="rgb(146, 146, 157)" />
          <text x="125" y="441" text-anchor="middle" font-size="18" font-weight="bold" fill="#FFFBF8">2</text>
        </g>
      </g>
      <g id="TAK_1" style="pointer-events: all; cursor: pointer; transform: scale(1);">
        <g id="text_32">
          <circle cx="85" cy="435" r="18" fill="rgb(146, 146, 157)" />
          <text x="85" y="441" text-anchor="middle" font-size="18" font-weight="bold" fill="#FFFBF8">1</text>
        </g>
      </g>
      <g id="TAK_name" style="cursor: pointer;">
        <rect x="97" y="380" width="57" height="35" rx="4" fill="white"></rect>
        <text x="125" y="405" text-anchor="middle" font-size="24" font-weight="bold" fill="#000">ตาก</text>
      </g>
    </g>



    <g id="province-53">
      <g id="UTT_3" style="pointer-events: all; cursor: pointer; transform: scale(1);">
        <g id="text_33">
          <circle cx="645" cy="415" r="18" fill="rgb(146, 146, 157)" />
          <text x="645" y="421" text-anchor="middle" font-size="18" font-weight="bold" fill="#FFFBF8">3</text>
        </g>
      </g>
      <g id="UTT_2" style="pointer-events: all; cursor: pointer; transform: scale(1);">
        <g id="text_34">
          <circle cx="645" cy="375" r="18" fill="rgb(146, 146, 157)" />
          <text x="645" y="381" text-anchor="middle" font-size="18" font-weight="bold" fill="#FFFBF8">2</text>
        </g>
      </g>
      <g id="UTT_1" style="pointer-events: all; cursor: pointer; transform: scale(1);">
        <g id="text_35">
          <circle cx="605" cy="375" r="18" fill="rgb(146, 146, 157)" />
          <text x="605" y="381" text-anchor="middle" font-size="18" font-weight="bold" fill="#FFFBF8">1</text>
        </g>
      </g>
      <g id="UTT_name" style="cursor: pointer;">
        <rect x="573" y="320" width="104" height="35" rx="4" fill="white"></rect>
        <text x="625" y="346" text-anchor="middle" font-size="24" font-weight="bold" fill="#000">อุตรดิตถ์</text>
      </g>
    </g>



    <g id="province-51">
      <g id="LPN_2" style="pointer-events: all; cursor: pointer; transform: scale(1);">
        <g id="text_36">
          <circle cx="345" cy="275" r="18" fill="rgb(146, 146, 157)" />
          <text x="345" y="281" text-anchor="middle" font-size="18" font-weight="bold" fill="#FFFBF8">2</text>
        </g>
      </g>
      <g id="LPN_1" style="pointer-events: all; cursor: pointer; transform: scale(1);">
        <g id="text_37">
          <circle cx="345" cy="235" r="18" fill="rgb(146, 146, 157)" />
          <text x="345" y="241" text-anchor="middle" font-size="18" font-weight="bold" fill="#FFFBF8">1</text>
        </g>
      </g>
      <g id="LPN_name" style="cursor: pointer;">
        <rect x="298.5" y="180" width="75" height="35" rx="4" fill="white"></rect>
        <text x="336" y="206" text-anchor="middle" font-size="24" font-weight="bold" fill="#000">ลำพูน</text>
      </g>
    </g>


    <g id="province-52">
      <g id="LPG_4" style="pointer-events: all; cursor: pointer; transform: scale(1);">
        <g id="text_38">
          <circle cx="485" cy="215" r="18" fill="rgb(146, 146, 157)" />
          <text x="485" y="221" text-anchor="middle" font-size="18" font-weight="bold" fill="#FFFBF8">4</text>
        </g>
      </g>
      <g id="LPG_3" style="pointer-events: all; cursor: pointer; transform: scale(1);">
        <g id="text_39">
          <circle cx="445" cy="215" r="18" fill="rgb(146, 146, 157)" />
          <text x="445" y="221" text-anchor="middle" font-size="18" font-weight="bold" fill="#FFFBF8">3</text>
        </g>
      </g>
      <g id="LPG_2" style="pointer-events: all; cursor: pointer; transform: scale(1);">
        <g id="text_40">
          <circle cx="485" cy="175" r="18" fill="rgb(146, 146, 157)" />
          <text x="485" y="180" text-anchor="middle" font-size="18" font-weight="bold" fill="#FFFBF8">2</text>
        </g>
      </g>
      <g id="LPG_1" style="pointer-events: all; cursor: pointer; transform: scale(1);">
        <g id="text_41">
          <circle cx="445" cy="175" r="18" fill="rgb(146, 146, 157)" />
          <text x="445" y="180" text-anchor="middle" font-size="18" font-weight="bold" fill="#FFFBF8">1</text>
        </g>
      </g>
      <g id="LPG_name" style="cursor: pointer;">
        <rect x="412" y="121" width="80" height="35" rx="4" fill="white"></rect>
        <text x="451" y="150" text-anchor="middle" font-size="24" font-weight="bold" fill="#000">ลำปาง</text>
      </g>
    </g>


    <g id="province-58">
      <g id="MSN_2" style="pointer-events: all; cursor: pointer; transform: scale(1);">
        <g id="text_42">
          <circle cx="85" cy="335" r="18" fill="rgb(146, 146, 157)" />
          <text x="85" y="341" text-anchor="middle" font-size="18" font-weight="bold" fill="#FFFBF8">2</text>
        </g>
      </g>
      <g id="MSN_1" style="pointer-events: all; cursor: pointer; transform: scale(1);">
        <g id="text_43">
          <circle cx="85" cy="295" r="18" fill="rgb(146, 146, 157)" />
          <text x="85" y="301" text-anchor="middle" font-size="18" font-weight="bold" fill="#FFFBF8">1</text>
        </g>
      </g>
      <g id="MSN_name" style="cursor: pointer;">
        <rect y="240" width="127" height="35" rx="4" fill="white"></rect>
        <text x="64" y="270" text-anchor="middle" font-size="24" font-weight="bold" fill="#000">แม่ฮ่องสอน</text>
      </g>
    </g>


    <g id="province-54">
      <g id="PRE_3" style="pointer-events: all; cursor: pointer; transform: scale(1);">
        <g id="text_44">
          <circle cx="525" cy="315" r="18" fill="rgb(146, 146, 157)" />
          <text x="525" y="321" text-anchor="middle" font-size="18" font-weight="bold" fill="#FFFBF8">3</text>
        </g>
      </g>
      <g id="PRE_2" style="pointer-events: all; cursor: pointer; transform: scale(1);">
        <g id="text_45">
          <circle cx="485" cy="315" r="18" fill="rgb(146, 146, 157)" />
          <text x="485" y="321" text-anchor="middle" font-size="18" font-weight="bold" fill="#FFFBF8">2</text>
        </g>
      </g>
      <g id="PRE_1" style="pointer-events: all; cursor: pointer; transform: scale(1);">
        <g id="text_46">
          <circle cx="445" cy="315" r="18" fill="rgb(146, 146, 157)" />
          <text x="445" y="321" text-anchor="middle" font-size="18" font-weight="bold" fill="#FFFBF8">1</text>
        </g>
      </g>
      <g id="PRE_name" style="cursor: pointer;">
        <rect x="458" y="260" width="56" height="35" rx="4" fill="white"></rect>
        <text x="485" y="290" text-anchor="middle" font-size="24" font-weight="bold" fill="#000">แพร่</text>
      </g>
    </g>


    <g id="province-56">
      <g id="PYO_3" style="pointer-events: all; cursor: pointer; transform: scale(1);">
        <g id="text_47">
          <circle cx="565" cy="155" r="18" fill="rgb(146, 146, 157)" />
          <text x="565" y="161" text-anchor="middle" font-size="18" font-weight="bold" fill="#FFFBF8">3</text>
        </g>
      </g>
      <g id="PYO_2" style="pointer-events: all; cursor: pointer; transform: scale(1);">
        <g id="text_48">
          <circle cx="605" cy="115" r="18" fill="rgb(146, 146, 157)" />
          <text x="605" y="121" text-anchor="middle" font-size="18" font-weight="bold" fill="#FFFBF8">2</text>
        </g>
      </g>
      <g id="PYO_1" style="pointer-events: all; cursor: pointer; transform: scale(1);">
        <g id="text_49">
          <circle cx="565" cy="115" r="18" fill="rgb(146, 146, 157)" />
          <text x="565" y="121" text-anchor="middle" font-size="18" font-weight="bold" fill="#FFFBF8">1</text>
        </g>
      </g>
      <g id="PYO_name" style="cursor: pointer;">
        <rect x="542.5" y="60" width="75" height="35" rx="4" fill="white"></rect>
        <text x="580" y="90" text-anchor="middle" font-size="24" font-weight="bold" fill="#000">พะเยา</text>
      </g>
    </g>


    <g id="province-55">
      <g id="area-5503" style="pointer-events: all; cursor: pointer; transform: scale(1);">
        <g id="text_50">
          <circle cx="685" cy="235" r="18" fill="rgb(146, 146, 157)" />
          <text x="685" y="241" text-anchor="middle" font-size="18" font-weight="bold" fill="#FFFBF8">3</text>
        </g>
      </g>
      <g id="area-5502" style="pointer-events: all; cursor: pointer; transform: scale(1);">
        <g id="text_51">
          <circle cx="645" cy="235" r="18" fill="rgb(146, 146, 157)" />
          <text x="645" y="241" text-anchor="middle" font-size="18" font-weight="bold" fill="#FFFBF8">2</text>
        </g>
      </g>
      <g id="area-5501" style="pointer-events: all; cursor: pointer; transform: scale(1);">
        <g id="text_52">
          <circle cx="605" cy="235" r="18" fill="rgb(146, 146, 157)" />
          <text x="605" y="241" text-anchor="middle" font-size="18" font-weight="bold" fill="#FFFBF8">1</text>
        </g>
      </g>
      <g id="NAN_name" style="cursor: pointer;">
        <rect x="617" y="180" width="56" height="35" rx="4" fill="white"></rect>
        <text x="645" y="208" text-anchor="middle" font-size="24" font-weight="bold" fill="#000">น่าน</text>
      </g>
    </g>



    <g id="province-50">
      <g id="area-5010" style="pointer-events: all; cursor: pointer; transform: scale(1);">
        <g id="text_53">
          <circle cx="245" cy="315" r="18" fill="rgb(146, 146, 157)" />
          <path id="1_54"
            d="M238.924 310.7L236.084 313.2L234.384 311.24L239.004 307.34H241.804V321.5H238.924V310.7ZM245.66 314.42C245.66 313.58 245.733 312.727 245.88 311.86C246.04 310.993 246.313 310.207 246.7 309.5C247.1 308.793 247.64 308.22 248.32 307.78C249 307.327 249.867 307.1 250.92 307.1C251.973 307.1 252.84 307.327 253.52 307.78C254.2 308.22 254.733 308.793 255.12 309.5C255.52 310.207 255.793 310.993 255.94 311.86C256.1 312.727 256.18 313.58 256.18 314.42C256.18 315.26 256.1 316.113 255.94 316.98C255.793 317.847 255.52 318.633 255.12 319.34C254.733 320.047 254.2 320.627 253.52 321.08C252.84 321.52 251.973 321.74 250.92 321.74C249.867 321.74 249 321.52 248.32 321.08C247.64 320.627 247.1 320.047 246.7 319.34C246.313 318.633 246.04 317.847 245.88 316.98C245.733 316.113 245.66 315.26 245.66 314.42ZM248.66 314.42C248.66 314.793 248.673 315.24 248.7 315.76C248.74 316.28 248.833 316.78 248.98 317.26C249.127 317.74 249.347 318.147 249.64 318.48C249.947 318.813 250.373 318.98 250.92 318.98C251.453 318.98 251.873 318.813 252.18 318.48C252.487 318.147 252.713 317.74 252.86 317.26C253.007 316.78 253.093 316.28 253.12 315.76C253.16 315.24 253.18 314.793 253.18 314.42C253.18 314.047 253.16 313.6 253.12 313.08C253.093 312.56 253.007 312.06 252.86 311.58C252.713 311.1 252.487 310.693 252.18 310.36C251.873 310.027 251.453 309.86 250.92 309.86C250.373 309.86 249.947 310.027 249.64 310.36C249.347 310.693 249.127 311.1 248.98 311.58C248.833 312.06 248.74 312.56 248.7 313.08C248.673 313.6 248.66 314.047 248.66 314.42Z"
            fill="#FFFBF8"></path>
        </g>
      </g>
      <g id="area-5009" style="pointer-events: all; cursor: pointer; transform: scale(1);">
        <g id="text_54">
          <circle cx="245" cy="315" r="18" fill="rgb(146, 146, 157)" />
          <path id="1_55"
            d="M205.182 316.44C205.022 316.48 204.862 316.513 204.702 316.54C204.542 316.567 204.375 316.58 204.202 316.58C203.535 316.58 202.929 316.46 202.382 316.22C201.835 315.98 201.369 315.653 200.982 315.24C200.595 314.827 200.295 314.34 200.082 313.78C199.869 313.207 199.762 312.6 199.762 311.96C199.762 311.227 199.895 310.567 200.162 309.98C200.442 309.38 200.815 308.867 201.282 308.44C201.762 308.013 202.322 307.687 202.962 307.46C203.602 307.22 204.295 307.1 205.042 307.1C205.775 307.1 206.462 307.22 207.102 307.46C207.755 307.687 208.315 308.013 208.782 308.44C209.262 308.867 209.635 309.38 209.902 309.98C210.182 310.567 210.322 311.227 210.322 311.96C210.322 312.467 210.275 312.933 210.182 313.36C210.089 313.773 209.962 314.167 209.802 314.54C209.655 314.913 209.475 315.273 209.262 315.62C209.062 315.953 208.849 316.3 208.622 316.66L205.522 321.5H201.862L205.182 316.44ZM202.762 312.08C202.762 312.72 202.969 313.253 203.382 313.68C203.809 314.093 204.362 314.3 205.042 314.3C205.722 314.3 206.269 314.093 206.682 313.68C207.109 313.253 207.322 312.72 207.322 312.08C207.322 311.44 207.109 310.913 206.682 310.5C206.269 310.073 205.722 309.86 205.042 309.86C204.362 309.86 203.809 310.073 203.382 310.5C202.969 310.913 202.762 311.44 202.762 312.08Z"
            fill="#FFFBF8"></path>
        </g>
      </g>
      <g id="area-5008" style="pointer-events: all; cursor: pointer; transform: scale(1);">
        <g id="text_55">
          <rect width="36" height="36" transform="translate(227 257)" fill="rgba(255,127,43,1)"></rect>
          <path id="1_56"
            d="M240.262 271C240.262 270.347 240.382 269.78 240.622 269.3C240.875 268.807 241.215 268.4 241.642 268.08C242.082 267.747 242.589 267.5 243.162 267.34C243.735 267.18 244.349 267.1 245.002 267.1C245.655 267.1 246.269 267.18 246.842 267.34C247.415 267.5 247.915 267.747 248.342 268.08C248.769 268.4 249.109 268.807 249.362 269.3C249.615 269.78 249.742 270.347 249.742 271C249.742 271.773 249.529 272.433 249.102 272.98C248.689 273.527 248.102 273.913 247.342 274.14V274.18C248.195 274.407 248.849 274.82 249.302 275.42C249.755 276.007 249.982 276.74 249.982 277.62C249.982 278.3 249.842 278.9 249.562 279.42C249.295 279.94 248.929 280.373 248.462 280.72C248.009 281.053 247.482 281.307 246.882 281.48C246.282 281.653 245.655 281.74 245.002 281.74C244.349 281.74 243.722 281.653 243.122 281.48C242.522 281.307 241.989 281.053 241.522 280.72C241.069 280.373 240.702 279.94 240.422 279.42C240.155 278.9 240.022 278.3 240.022 277.62C240.022 276.74 240.249 276.007 240.702 275.42C241.155 274.82 241.809 274.407 242.662 274.18V274.14C241.902 273.913 241.309 273.527 240.882 272.98C240.469 272.433 240.262 271.773 240.262 271ZM243.262 271.42C243.262 271.86 243.422 272.233 243.742 272.54C244.062 272.847 244.482 273 245.002 273C245.522 273 245.942 272.847 246.262 272.54C246.582 272.233 246.742 271.86 246.742 271.42C246.742 270.993 246.582 270.627 246.262 270.32C245.942 270.013 245.522 269.86 245.002 269.86C244.482 269.86 244.062 270.013 243.742 270.32C243.422 270.627 243.262 270.993 243.262 271.42ZM243.022 277.2C243.022 277.693 243.202 278.113 243.562 278.46C243.922 278.807 244.402 278.98 245.002 278.98C245.602 278.98 246.082 278.807 246.442 278.46C246.802 278.113 246.982 277.693 246.982 277.2C246.982 276.693 246.802 276.267 246.442 275.92C246.082 275.573 245.602 275.4 245.002 275.4C244.402 275.4 243.922 275.573 243.562 275.92C243.202 276.267 243.022 276.693 243.022 277.2Z"
            fill="#FFFBF8"></path>
        </g>
      </g>
      <g id="area-5007" style="pointer-events: all; cursor: pointer; transform: scale(1);">
        <g id="text_56">
          <rect width="36" height="36" transform="translate(187 257)" fill="rgba(255,127,43,1)"></rect>
          <path id="1_57" d="M206.822 270.1H199.822V267.34H210.182V269.98L204.522 281.5H201.022L206.822 270.1Z"
            fill="#FFFBF8"></path>
        </g>
      </g>
      <g id="area-5006" style="pointer-events: all; cursor: pointer; transform: scale(1);">
        <g id="text_57">
          <rect width="36" height="36" transform="translate(227 217)" fill="rgba(255,127,43,1)"></rect>
          <path id="1_58"
            d="M244.822 232.4C244.982 232.36 245.142 232.327 245.302 232.3C245.462 232.273 245.629 232.26 245.802 232.26C246.469 232.26 247.075 232.38 247.622 232.62C248.169 232.86 248.635 233.187 249.022 233.6C249.409 234.013 249.709 234.507 249.922 235.08C250.135 235.64 250.242 236.24 250.242 236.88C250.242 237.613 250.102 238.28 249.822 238.88C249.555 239.467 249.182 239.973 248.702 240.4C248.235 240.827 247.675 241.16 247.022 241.4C246.382 241.627 245.695 241.74 244.962 241.74C244.215 241.74 243.522 241.627 242.882 241.4C242.242 241.16 241.682 240.827 241.202 240.4C240.735 239.973 240.362 239.467 240.082 238.88C239.815 238.28 239.682 237.613 239.682 236.88C239.682 236.373 239.729 235.913 239.822 235.5C239.915 235.073 240.035 234.673 240.182 234.3C240.342 233.927 240.522 233.573 240.722 233.24C240.935 232.893 241.155 232.54 241.382 232.18L244.482 227.34H248.142L244.822 232.4ZM247.242 236.76C247.242 236.12 247.029 235.593 246.602 235.18C246.189 234.753 245.642 234.54 244.962 234.54C244.282 234.54 243.729 234.753 243.302 235.18C242.889 235.593 242.682 236.12 242.682 236.76C242.682 237.4 242.889 237.933 243.302 238.36C243.729 238.773 244.282 238.98 244.962 238.98C245.642 238.98 246.189 238.773 246.602 238.36C247.029 237.933 247.242 237.4 247.242 236.76Z"
            fill="#FFFBF8"></path>
        </g>
      </g>
      <g id="area-5005" style="pointer-events: all; cursor: pointer; transform: scale(1);">
        <g id="text_58">
          <rect width="36" height="36" transform="translate(187 217)" fill="rgba(225,50,50,1)"></rect>
          <path id="1_59"
            d="M209.422 229.98H203.802L203.742 232.16C204.049 232.053 204.469 232 205.002 232C205.722 232 206.382 232.107 206.982 232.32C207.582 232.533 208.095 232.847 208.522 233.26C208.962 233.66 209.302 234.153 209.542 234.74C209.782 235.313 209.902 235.96 209.902 236.68C209.902 237.48 209.762 238.193 209.482 238.82C209.215 239.447 208.842 239.98 208.362 240.42C207.882 240.847 207.309 241.173 206.642 241.4C205.989 241.627 205.275 241.74 204.502 241.74C203.275 241.74 202.249 241.44 201.422 240.84C200.595 240.24 200.029 239.333 199.722 238.12L202.862 237.4C202.942 237.907 203.155 238.32 203.502 238.64C203.849 238.947 204.282 239.1 204.802 239.1C205.442 239.1 205.949 238.9 206.322 238.5C206.709 238.1 206.902 237.593 206.902 236.98C206.902 236.513 206.802 236.133 206.602 235.84C206.415 235.533 206.162 235.293 205.842 235.12C205.535 234.933 205.189 234.807 204.802 234.74C204.415 234.673 204.029 234.64 203.642 234.64C203.149 234.64 202.649 234.687 202.142 234.78C201.649 234.873 201.169 235 200.702 235.16L200.862 227.34H209.422V229.98Z"
            fill="#FFFBF8"></path>
        </g>
      </g>
      <g id="area-5004" style="pointer-events: all; cursor: pointer; transform: scale(1);">
        <g id="text_59">
          <rect width="36" height="36" transform="translate(187 177)" fill="rgba(255,127,43,1)"></rect>
          <path id="1_60"
            d="M205.742 198.66H199.562V196.14L205.342 187.34H208.622V196.14H210.442V198.66H208.622V201.5H205.742V198.66ZM205.742 191.26H205.702L202.562 196.14H205.742V191.26Z"
            fill="#FFFBF8"></path>
        </g>
      </g>
      <g id="area-5003" style="pointer-events: all; cursor: pointer; transform: scale(1);">
        <g id="text_60">
          <rect width="36" height="36" transform="translate(147 177)" fill="rgba(255,127,43,1)"></rect>
          <path id="1_61"
            d="M163.402 192.92H164.382C164.662 192.92 164.935 192.9 165.202 192.86C165.469 192.82 165.709 192.747 165.922 192.64C166.149 192.52 166.329 192.36 166.462 192.16C166.595 191.947 166.662 191.673 166.662 191.34C166.662 190.913 166.489 190.56 166.142 190.28C165.809 190 165.395 189.86 164.902 189.86C164.435 189.86 164.049 189.987 163.742 190.24C163.435 190.493 163.235 190.807 163.142 191.18L159.842 190.5C160.002 189.887 160.242 189.367 160.562 188.94C160.882 188.5 161.262 188.147 161.702 187.88C162.142 187.613 162.629 187.42 163.162 187.3C163.709 187.167 164.282 187.1 164.882 187.1C165.509 187.1 166.109 187.18 166.682 187.34C167.269 187.487 167.782 187.727 168.222 188.06C168.662 188.38 169.009 188.787 169.262 189.28C169.529 189.773 169.662 190.36 169.662 191.04C169.662 191.827 169.455 192.5 169.042 193.06C168.629 193.62 168.029 193.98 167.242 194.14V194.2C167.669 194.253 168.042 194.38 168.362 194.58C168.695 194.78 168.975 195.027 169.202 195.32C169.429 195.613 169.602 195.947 169.722 196.32C169.842 196.693 169.902 197.087 169.902 197.5C169.902 198.207 169.762 198.827 169.482 199.36C169.215 199.893 168.849 200.34 168.382 200.7C167.929 201.047 167.389 201.307 166.762 201.48C166.149 201.653 165.495 201.74 164.802 201.74C163.535 201.74 162.442 201.447 161.522 200.86C160.615 200.273 160.015 199.347 159.722 198.08L162.882 197.34C162.989 197.847 163.202 198.247 163.522 198.54C163.855 198.833 164.342 198.98 164.982 198.98C165.635 198.98 166.115 198.813 166.422 198.48C166.742 198.133 166.902 197.693 166.902 197.16C166.902 196.76 166.815 196.453 166.642 196.24C166.482 196.013 166.269 195.847 166.002 195.74C165.735 195.633 165.435 195.573 165.102 195.56C164.769 195.533 164.435 195.52 164.102 195.52H163.402V192.92Z"
            fill="#FFFBF8"></path>
        </g>
      </g>
      <g id="area-5002" style="pointer-events: all; cursor: pointer; transform: scale(1);">
        <g id="text_61">
          <rect width="36" height="36" transform="translate(187 137)" fill="rgba(255,127,43,1)"></rect>
          <path id="1_62"
            d="M200.062 158.32L205.562 153.38C205.842 153.127 206.122 152.84 206.402 152.52C206.682 152.2 206.822 151.827 206.822 151.4C206.822 150.92 206.649 150.547 206.302 150.28C205.955 150 205.549 149.86 205.082 149.86C204.522 149.86 204.082 150.033 203.762 150.38C203.455 150.727 203.282 151.153 203.242 151.66L200.242 151.44C200.282 150.707 200.435 150.073 200.702 149.54C200.969 148.993 201.322 148.54 201.762 148.18C202.202 147.82 202.715 147.553 203.302 147.38C203.902 147.193 204.549 147.1 205.242 147.1C205.882 147.1 206.482 147.193 207.042 147.38C207.602 147.553 208.089 147.82 208.502 148.18C208.915 148.527 209.235 148.967 209.462 149.5C209.702 150.033 209.822 150.653 209.822 151.36C209.822 151.813 209.775 152.227 209.682 152.6C209.589 152.96 209.455 153.293 209.282 153.6C209.122 153.893 208.929 154.167 208.702 154.42C208.475 154.673 208.229 154.92 207.962 155.16L203.662 158.86H209.942V161.5H200.062V158.32Z"
            fill="#FFFBF8"></path>
        </g>
      </g>
      <g id="area-5001" style="pointer-events: all; cursor: pointer; transform: scale(1);">
        <g id="text_62">
          <rect width="36" height="36" transform="translate(147 137)" fill="rgba(255,127,43,1)"></rect>
          <path id="1_63" d="M164.842 150.7L162.002 153.2L160.302 151.24L164.922 147.34H167.722V161.5H164.842V150.7Z"
            fill="#FFFBF8"></path>
        </g>
      </g>
      <g id="province-50-name" style="cursor: pointer;">
        <rect x="119" y="100" width="98" height="35" rx="4" fill="white"></rect>
        <path id="à¹à¸à¸µà¸¢à¸à¹à¸«à¸¡à¹_16"
          d="M127.043 126V111.243H130.031V126H127.043ZM141.202 120.129C141.202 119.578 141.138 119.145 141.009 118.828C140.886 118.506 140.707 118.263 140.473 118.099C140.238 117.929 139.951 117.82 139.611 117.773C139.277 117.727 138.899 117.697 138.478 117.686L138.451 115.523C139.025 115.523 139.506 115.436 139.893 115.26C140.285 115.078 140.599 114.809 140.833 114.451C141.073 114.094 141.243 113.648 141.343 113.115C141.448 112.576 141.504 111.952 141.51 111.243H144.498C144.492 111.782 144.451 112.318 144.375 112.852C144.299 113.385 144.164 113.889 143.971 114.363C143.777 114.832 143.517 115.254 143.188 115.629C142.86 116.004 142.447 116.306 141.949 116.534C142.301 116.64 142.6 116.777 142.846 116.947C143.092 117.111 143.297 117.296 143.461 117.501C143.625 117.706 143.754 117.923 143.848 118.151C143.941 118.38 144.012 118.611 144.059 118.846C144.105 119.074 144.132 119.3 144.138 119.522C144.149 119.739 144.155 119.941 144.155 120.129L144.146 121.324C144.152 121.898 144.085 122.423 143.944 122.897C143.804 123.372 143.607 123.797 143.355 124.172C143.109 124.541 142.813 124.863 142.468 125.139C142.122 125.414 141.744 125.643 141.334 125.824C140.93 126.006 140.499 126.141 140.042 126.229C139.591 126.316 139.131 126.36 138.662 126.36C137.941 126.36 137.244 126.252 136.57 126.035C135.902 125.824 135.308 125.508 134.786 125.086C134.271 124.658 133.854 124.131 133.538 123.504C133.222 122.877 133.061 122.15 133.055 121.324L133.063 120.129C133.063 119.754 133.075 119.426 133.099 119.145C133.122 118.863 133.154 118.614 133.195 118.397C133.242 118.175 133.304 117.976 133.38 117.8C133.456 117.618 133.547 117.442 133.652 117.272C133.764 117.103 133.893 116.93 134.039 116.754C134.186 116.572 134.355 116.367 134.549 116.139C134.689 115.957 134.815 115.793 134.927 115.646C135.044 115.494 135.144 115.351 135.226 115.216C135.308 115.081 135.375 114.946 135.428 114.812C135.48 114.671 135.519 114.524 135.542 114.372C135.565 114.226 135.56 114.091 135.524 113.968C135.495 113.845 135.439 113.739 135.357 113.651C135.281 113.558 135.185 113.487 135.067 113.44C134.956 113.388 134.827 113.361 134.681 113.361C134.517 113.361 134.355 113.373 134.197 113.396C134.039 113.42 133.866 113.458 133.679 113.511C133.491 113.558 133.28 113.622 133.046 113.704C132.817 113.78 132.554 113.871 132.255 113.977L132.272 111.674C132.571 111.568 132.864 111.475 133.151 111.393C133.438 111.311 133.705 111.243 133.951 111.19C134.197 111.132 134.417 111.091 134.61 111.067C134.81 111.038 134.968 111.023 135.085 111.023C135.642 111.023 136.146 111.091 136.597 111.226C137.054 111.354 137.438 111.554 137.748 111.823C138.059 112.093 138.284 112.43 138.425 112.834C138.571 113.238 138.612 113.716 138.548 114.267C138.507 114.536 138.437 114.791 138.337 115.031C138.237 115.271 138.108 115.523 137.95 115.787C137.792 116.045 137.602 116.329 137.379 116.64C137.156 116.95 136.901 117.311 136.614 117.721C136.462 117.938 136.348 118.134 136.271 118.31C136.195 118.479 136.14 118.649 136.104 118.819C136.069 118.983 136.046 119.153 136.034 119.329C136.028 119.505 136.017 119.701 135.999 119.918L136.025 120.885C136.025 121.342 136.093 121.749 136.228 122.106C136.368 122.458 136.559 122.757 136.799 123.003C137.039 123.243 137.32 123.425 137.643 123.548C137.971 123.671 138.319 123.732 138.688 123.732C139.04 123.732 139.368 123.688 139.673 123.601C139.978 123.507 140.241 123.357 140.464 123.152C140.692 122.941 140.871 122.669 141 122.335C141.129 122.001 141.19 121.591 141.185 121.104L141.202 120.129ZM132.501 106.664H141.431L141.378 104.581H144.182L144.199 109.011H131.314L132.501 106.664ZM146.687 114.873C146.687 114.393 146.751 113.971 146.88 113.607C147.009 113.238 147.182 112.922 147.398 112.658C147.615 112.389 147.864 112.163 148.146 111.981C148.433 111.8 148.731 111.656 149.042 111.551C149.358 111.439 149.678 111.36 150 111.313C150.328 111.267 150.639 111.243 150.932 111.243H153.164L153.146 113.757H151.529C151.395 113.757 151.225 113.769 151.02 113.792C150.82 113.81 150.624 113.862 150.431 113.95C150.243 114.038 150.082 114.17 149.947 114.346C149.818 114.516 149.754 114.753 149.754 115.058C149.754 115.392 149.804 115.664 149.903 115.875C150.009 116.086 150.149 116.253 150.325 116.376C150.507 116.499 150.715 116.587 150.949 116.64C151.189 116.692 151.441 116.728 151.705 116.745H153.138L153.129 119.232H151.688C151.4 119.244 151.137 119.279 150.896 119.338C150.662 119.391 150.46 119.49 150.29 119.637C150.126 119.777 149.997 119.979 149.903 120.243C149.815 120.501 149.774 120.835 149.78 121.245C149.774 121.685 149.859 122.068 150.035 122.396C150.217 122.719 150.46 122.988 150.765 123.205C151.069 123.416 151.418 123.574 151.811 123.68C152.209 123.785 152.625 123.838 153.059 123.838C153.533 123.838 153.973 123.776 154.377 123.653C154.787 123.53 155.142 123.331 155.44 123.056C155.739 122.774 155.971 122.411 156.135 121.966C156.305 121.515 156.387 120.964 156.381 120.313L156.398 111.243H159.352L159.334 120.814C159.334 121.717 159.167 122.514 158.833 123.205C158.505 123.891 158.054 124.468 157.479 124.937C156.911 125.405 156.246 125.76 155.484 126C154.723 126.24 153.914 126.36 153.059 126.36C152.525 126.36 151.995 126.316 151.468 126.229C150.946 126.141 150.448 126.006 149.974 125.824C149.505 125.643 149.068 125.417 148.664 125.147C148.26 124.872 147.908 124.55 147.609 124.181C147.316 123.806 147.085 123.384 146.915 122.915C146.751 122.446 146.669 121.928 146.669 121.359C146.669 120.984 146.692 120.63 146.739 120.296C146.792 119.956 146.883 119.646 147.012 119.364C147.141 119.077 147.311 118.819 147.521 118.591C147.732 118.362 148.002 118.169 148.33 118.011C147.984 117.812 147.703 117.586 147.486 117.334C147.275 117.082 147.111 116.818 146.994 116.543C146.877 116.262 146.798 115.98 146.757 115.699C146.716 115.412 146.692 115.137 146.687 114.873ZM166.436 123.267C166.5 123.466 166.597 123.612 166.726 123.706C166.86 123.794 167.007 123.838 167.165 123.838C167.423 123.838 167.628 123.768 167.78 123.627C167.933 123.486 168.015 123.316 168.026 123.117L168 113.546H165.952L165.97 111.243H170.979L170.953 122.651C170.959 123.308 170.862 123.87 170.663 124.339C170.464 124.808 170.191 125.191 169.846 125.49C169.5 125.789 169.093 126.009 168.624 126.149C168.161 126.29 167.663 126.36 167.13 126.36C166.597 126.36 166.131 126.293 165.732 126.158C165.334 126.023 164.988 125.833 164.695 125.587C164.402 125.341 164.15 125.045 163.939 124.699C163.734 124.354 163.556 123.97 163.403 123.548L161.065 117.141H164.159L166.436 123.267ZM177.422 123.592H178.969L178.986 126H174.486L174.478 112.069C174.466 111.665 174.475 111.308 174.504 110.997C174.539 110.681 174.604 110.388 174.697 110.118C174.791 109.843 174.923 109.582 175.093 109.336C175.269 109.084 175.494 108.817 175.77 108.536C175.834 108.466 175.925 108.378 176.042 108.272C176.165 108.161 176.285 108.044 176.402 107.921C176.52 107.798 176.622 107.672 176.71 107.543C176.798 107.414 176.845 107.291 176.851 107.174C176.845 107.068 176.821 106.963 176.78 106.857C176.745 106.746 176.684 106.646 176.596 106.559C176.514 106.471 176.399 106.4 176.253 106.348C176.112 106.295 175.934 106.269 175.717 106.269C175.482 106.269 175.274 106.321 175.093 106.427C174.917 106.532 174.768 106.682 174.645 106.875C174.527 107.068 174.437 107.303 174.372 107.578C174.313 107.854 174.284 108.161 174.284 108.501H171.524C171.519 107.722 171.633 107.045 171.867 106.471C172.096 105.896 172.406 105.422 172.799 105.047C173.191 104.666 173.64 104.385 174.144 104.203C174.653 104.021 175.184 103.931 175.734 103.931C176.227 103.931 176.701 103.989 177.158 104.106C177.621 104.218 178.028 104.396 178.38 104.643C178.737 104.889 179.021 105.208 179.232 105.601C179.449 105.993 179.558 106.468 179.558 107.024C179.546 107.335 179.49 107.607 179.391 107.842C179.291 108.07 179.162 108.287 179.004 108.492C178.852 108.691 178.679 108.891 178.485 109.09C178.298 109.283 178.113 109.497 177.932 109.731C177.803 109.884 177.703 110.057 177.633 110.25C177.562 110.443 177.51 110.646 177.475 110.856C177.445 111.067 177.428 111.278 177.422 111.489C177.422 111.694 177.422 111.888 177.422 112.069V123.592ZM184.163 111.243L184.146 116.42L190.175 111.243H194.49L191.194 114.012C191.704 114.217 192.12 114.489 192.442 114.829C192.771 115.169 193.025 115.564 193.207 116.016C193.395 116.467 193.521 116.968 193.585 117.519C193.649 118.063 193.682 118.646 193.682 119.268L193.708 126H190.755L190.737 118.978C190.737 118.626 190.705 118.283 190.641 117.949C190.576 117.615 190.474 117.311 190.333 117.035C190.198 116.76 190.02 116.522 189.797 116.323C189.58 116.124 189.316 115.989 189.006 115.919L184.163 120.059L184.172 126H181.219L181.21 111.243H184.163ZM196.441 126L196.433 111.243H199.421L199.395 119.268C199.4 119.889 199.488 120.466 199.658 120.999C199.834 121.532 200.092 121.995 200.432 122.388C200.771 122.774 201.199 123.079 201.715 123.302C202.23 123.519 202.834 123.627 203.525 123.627C203.947 123.627 204.328 123.562 204.668 123.434C205.008 123.305 205.295 123.123 205.529 122.889C205.77 122.648 205.954 122.361 206.083 122.027C206.212 121.693 206.273 121.324 206.268 120.92L206.294 111.243H209.247L209.229 120.639C209.229 121.482 209.142 122.256 208.966 122.959C208.796 123.662 208.503 124.266 208.087 124.77C207.677 125.273 207.126 125.666 206.435 125.947C205.749 126.223 204.888 126.36 203.851 126.36C202.837 126.36 201.961 126.179 201.223 125.815C200.49 125.446 199.857 124.907 199.324 124.198L199.315 126H196.441ZM206.303 104.511H209.177L209.203 109.046H206.355L206.303 104.511Z"
          fill="#333332"></path>
      </g>
    </g>
    <g id="province-57">
      <g id="area-5707" style="pointer-events: all; cursor: pointer; transform: scale(1);">
        <g id="text_63">
          <rect width="36" height="36" transform="translate(287 117)" fill="rgba(225,50,50,1)"></rect>
          <path id="1_64" d="M306.822 130.1H299.822V127.34H310.182V129.98L304.522 141.5H301.022L306.822 130.1Z"
            fill="#FFFBF8"></path>
        </g>
      </g>
      <g id="area-5706" style="pointer-events: all; cursor: pointer; transform: scale(1);">
        <g id="text_64">
          <rect width="36" height="36" transform="translate(367 77)" fill="rgba(255,127,43,1)"></rect>
          <path id="1_65"
            d="M384.822 92.4C384.982 92.36 385.142 92.3267 385.302 92.3C385.462 92.2733 385.629 92.26 385.802 92.26C386.469 92.26 387.075 92.38 387.622 92.62C388.169 92.86 388.635 93.1867 389.022 93.6C389.409 94.0133 389.709 94.5067 389.922 95.08C390.135 95.64 390.242 96.24 390.242 96.88C390.242 97.6133 390.102 98.28 389.822 98.88C389.555 99.4667 389.182 99.9733 388.702 100.4C388.235 100.827 387.675 101.16 387.022 101.4C386.382 101.627 385.695 101.74 384.962 101.74C384.215 101.74 383.522 101.627 382.882 101.4C382.242 101.16 381.682 100.827 381.202 100.4C380.735 99.9733 380.362 99.4667 380.082 98.88C379.815 98.28 379.682 97.6133 379.682 96.88C379.682 96.3733 379.729 95.9133 379.822 95.5C379.915 95.0733 380.035 94.6733 380.182 94.3C380.342 93.9267 380.522 93.5733 380.722 93.24C380.935 92.8933 381.155 92.54 381.382 92.18L384.482 87.34H388.142L384.822 92.4ZM387.242 96.76C387.242 96.12 387.029 95.5933 386.602 95.18C386.189 94.7533 385.642 94.54 384.962 94.54C384.282 94.54 383.729 94.7533 383.302 95.18C382.889 95.5933 382.682 96.12 382.682 96.76C382.682 97.4 382.889 97.9333 383.302 98.36C383.729 98.7733 384.282 98.98 384.962 98.98C385.642 98.98 386.189 98.7733 386.602 98.36C387.029 97.9333 387.242 97.4 387.242 96.76Z"
            fill="#FFFBF8"></path>
        </g>
      </g>
      <g id="area-5705" style="pointer-events: all; cursor: pointer; transform: scale(1);">
        <g id="text_65">
          <rect width="36" height="36" transform="translate(327 77)" fill="rgba(225,50,50,1)"></rect>
          <path id="1_66"
            d="M349.422 89.98H343.802L343.742 92.16C344.049 92.0533 344.469 92 345.002 92C345.722 92 346.382 92.1067 346.982 92.32C347.582 92.5333 348.095 92.8467 348.522 93.26C348.962 93.66 349.302 94.1533 349.542 94.74C349.782 95.3133 349.902 95.96 349.902 96.68C349.902 97.48 349.762 98.1933 349.482 98.82C349.215 99.4467 348.842 99.98 348.362 100.42C347.882 100.847 347.309 101.173 346.642 101.4C345.989 101.627 345.275 101.74 344.502 101.74C343.275 101.74 342.249 101.44 341.422 100.84C340.595 100.24 340.029 99.3333 339.722 98.12L342.862 97.4C342.942 97.9067 343.155 98.32 343.502 98.64C343.849 98.9467 344.282 99.1 344.802 99.1C345.442 99.1 345.949 98.9 346.322 98.5C346.709 98.1 346.902 97.5933 346.902 96.98C346.902 96.5133 346.802 96.1333 346.602 95.84C346.415 95.5333 346.162 95.2933 345.842 95.12C345.535 94.9333 345.189 94.8067 344.802 94.74C344.415 94.6733 344.029 94.64 343.642 94.64C343.149 94.64 342.649 94.6867 342.142 94.78C341.649 94.8733 341.169 95 340.702 95.16L340.862 87.34H349.422V89.98Z"
            fill="#FFFBF8"></path>
        </g>
      </g>
      <g id="area-5704" style="pointer-events: all; cursor: pointer; transform: scale(1);">
        <g id="text_66">
          <rect width="36" height="36" transform="translate(287 77)" fill="rgba(225,50,50,1)"></rect>
          <path id="1_67"
            d="M305.742 98.66H299.562V96.14L305.342 87.34H308.622V96.14H310.442V98.66H308.622V101.5H305.742V98.66ZM305.742 91.26H305.702L302.562 96.14H305.742V91.26Z"
            fill="#FFFBF8"></path>
        </g>
      </g>
      <g id="area-5703" style="pointer-events: all; cursor: pointer; transform: scale(1);">
        <g id="text_67">
          <rect width="36" height="36" transform="translate(367 37)" fill="rgba(255,127,43,1)"></rect>
          <path id="1_68"
            d="M383.402 52.92H384.382C384.662 52.92 384.935 52.9 385.202 52.86C385.469 52.82 385.709 52.7467 385.922 52.64C386.149 52.52 386.329 52.36 386.462 52.16C386.595 51.9467 386.662 51.6733 386.662 51.34C386.662 50.9133 386.489 50.56 386.142 50.28C385.809 50 385.395 49.86 384.902 49.86C384.435 49.86 384.049 49.9867 383.742 50.24C383.435 50.4933 383.235 50.8067 383.142 51.18L379.842 50.5C380.002 49.8867 380.242 49.3667 380.562 48.94C380.882 48.5 381.262 48.1467 381.702 47.88C382.142 47.6133 382.629 47.42 383.162 47.3C383.709 47.1667 384.282 47.1 384.882 47.1C385.509 47.1 386.109 47.18 386.682 47.34C387.269 47.4867 387.782 47.7267 388.222 48.06C388.662 48.38 389.009 48.7867 389.262 49.28C389.529 49.7733 389.662 50.36 389.662 51.04C389.662 51.8267 389.455 52.5 389.042 53.06C388.629 53.62 388.029 53.98 387.242 54.14V54.2C387.669 54.2533 388.042 54.38 388.362 54.58C388.695 54.78 388.975 55.0267 389.202 55.32C389.429 55.6133 389.602 55.9467 389.722 56.32C389.842 56.6933 389.902 57.0867 389.902 57.5C389.902 58.2067 389.762 58.8267 389.482 59.36C389.215 59.8933 388.849 60.34 388.382 60.7C387.929 61.0467 387.389 61.3067 386.762 61.48C386.149 61.6533 385.495 61.74 384.802 61.74C383.535 61.74 382.442 61.4467 381.522 60.86C380.615 60.2733 380.015 59.3467 379.722 58.08L382.882 57.34C382.989 57.8467 383.202 58.2467 383.522 58.54C383.855 58.8333 384.342 58.98 384.982 58.98C385.635 58.98 386.115 58.8133 386.422 58.48C386.742 58.1333 386.902 57.6933 386.902 57.16C386.902 56.76 386.815 56.4533 386.642 56.24C386.482 56.0133 386.269 55.8467 386.002 55.74C385.735 55.6333 385.435 55.5733 385.102 55.56C384.769 55.5333 384.435 55.52 384.102 55.52H383.402V52.92Z"
            fill="#FFFBF8"></path>
        </g>
      </g>
      <g id="area-5702" style="pointer-events: all; cursor: pointer; transform: scale(1);">
        <g id="text_68">
          <rect width="36" height="36" transform="translate(327 37)" fill="rgba(225,50,50,1)"></rect>
          <path id="1_69"
            d="M340.062 58.32L345.562 53.38C345.842 53.1267 346.122 52.84 346.402 52.52C346.682 52.2 346.822 51.8267 346.822 51.4C346.822 50.92 346.649 50.5467 346.302 50.28C345.955 50 345.549 49.86 345.082 49.86C344.522 49.86 344.082 50.0333 343.762 50.38C343.455 50.7267 343.282 51.1533 343.242 51.66L340.242 51.44C340.282 50.7067 340.435 50.0733 340.702 49.54C340.969 48.9933 341.322 48.54 341.762 48.18C342.202 47.82 342.715 47.5533 343.302 47.38C343.902 47.1933 344.549 47.1 345.242 47.1C345.882 47.1 346.482 47.1933 347.042 47.38C347.602 47.5533 348.089 47.82 348.502 48.18C348.915 48.5267 349.235 48.9667 349.462 49.5C349.702 50.0333 349.822 50.6533 349.822 51.36C349.822 51.8133 349.775 52.2267 349.682 52.6C349.589 52.96 349.455 53.2933 349.282 53.6C349.122 53.8933 348.929 54.1667 348.702 54.42C348.475 54.6733 348.229 54.92 347.962 55.16L343.662 58.86H349.942V61.5H340.062V58.32Z"
            fill="#FFFBF8"></path>
        </g>
      </g>
      <g id="area-5701" style="pointer-events: all; cursor: pointer; transform: scale(1);">
        <g id="text_69">
          <rect width="36" height="36" transform="translate(287 37)" fill="rgba(255,127,43,1)"></rect>
          <path id="1_70" d="M304.842 50.7L302.002 53.2L300.302 51.24L304.922 47.34H307.722V61.5H304.842V50.7Z"
            fill="#FFFBF8"></path>
        </g>
      </g>
      <g id="province-57-name" style="cursor: pointer;">
        <rect x="288" width="100" height="35" rx="4" fill="white"></rect>
        <path id="à¹à¸à¸µà¸¢à¸à¹à¸«à¸¡à¹_17"
          d="M295.742 26V11.2432H298.73V26H295.742ZM309.901 20.1289C309.901 19.5781 309.837 19.1445 309.708 18.8281C309.585 18.5059 309.406 18.2627 309.172 18.0986C308.938 17.9287 308.65 17.8203 308.311 17.7734C307.977 17.7266 307.599 17.6973 307.177 17.6855L307.15 15.5234C307.725 15.5234 308.205 15.4355 308.592 15.2598C308.984 15.0781 309.298 14.8086 309.532 14.4512C309.772 14.0938 309.942 13.6484 310.042 13.1152C310.147 12.5762 310.203 11.9521 310.209 11.2432H313.197C313.191 11.7822 313.15 12.3184 313.074 12.8516C312.998 13.3848 312.863 13.8887 312.67 14.3633C312.477 14.832 312.216 15.2539 311.888 15.6289C311.56 16.0039 311.146 16.3057 310.648 16.5342C311 16.6396 311.299 16.7773 311.545 16.9473C311.791 17.1113 311.996 17.2959 312.16 17.501C312.324 17.7061 312.453 17.9229 312.547 18.1514C312.641 18.3799 312.711 18.6113 312.758 18.8457C312.805 19.0742 312.831 19.2998 312.837 19.5225C312.849 19.7393 312.854 19.9414 312.854 20.1289L312.846 21.3242C312.852 21.8984 312.784 22.4229 312.644 22.8975C312.503 23.3721 312.307 23.7969 312.055 24.1719C311.809 24.541 311.513 24.8633 311.167 25.1387C310.821 25.4141 310.443 25.6426 310.033 25.8242C309.629 26.0059 309.198 26.1406 308.741 26.2285C308.29 26.3164 307.83 26.3604 307.361 26.3604C306.641 26.3604 305.943 26.252 305.27 26.0352C304.602 25.8242 304.007 25.5078 303.485 25.0859C302.97 24.6582 302.554 24.1309 302.237 23.5039C301.921 22.877 301.76 22.1504 301.754 21.3242L301.763 20.1289C301.763 19.7539 301.774 19.4258 301.798 19.1445C301.821 18.8633 301.854 18.6143 301.895 18.3975C301.941 18.1748 302.003 17.9756 302.079 17.7998C302.155 17.6182 302.246 17.4424 302.352 17.2725C302.463 17.1025 302.592 16.9297 302.738 16.7539C302.885 16.5723 303.055 16.3672 303.248 16.1387C303.389 15.957 303.515 15.793 303.626 15.6465C303.743 15.4941 303.843 15.3506 303.925 15.2158C304.007 15.0811 304.074 14.9463 304.127 14.8115C304.18 14.6709 304.218 14.5244 304.241 14.3721C304.265 14.2256 304.259 14.0908 304.224 13.9678C304.194 13.8447 304.139 13.7393 304.057 13.6514C303.98 13.5576 303.884 13.4873 303.767 13.4404C303.655 13.3877 303.526 13.3613 303.38 13.3613C303.216 13.3613 303.055 13.373 302.896 13.3965C302.738 13.4199 302.565 13.458 302.378 13.5107C302.19 13.5576 301.979 13.6221 301.745 13.7041C301.517 13.7803 301.253 13.8711 300.954 13.9766L300.972 11.6738C301.271 11.5684 301.563 11.4746 301.851 11.3926C302.138 11.3105 302.404 11.2432 302.65 11.1904C302.896 11.1318 303.116 11.0908 303.31 11.0674C303.509 11.0381 303.667 11.0234 303.784 11.0234C304.341 11.0234 304.845 11.0908 305.296 11.2256C305.753 11.3545 306.137 11.5537 306.447 11.8232C306.758 12.0928 306.983 12.4297 307.124 12.834C307.271 13.2383 307.312 13.7158 307.247 14.2666C307.206 14.5361 307.136 14.791 307.036 15.0312C306.937 15.2715 306.808 15.5234 306.649 15.7871C306.491 16.0449 306.301 16.3291 306.078 16.6396C305.855 16.9502 305.601 17.3105 305.313 17.7207C305.161 17.9375 305.047 18.1338 304.971 18.3096C304.895 18.4795 304.839 18.6494 304.804 18.8193C304.769 18.9834 304.745 19.1533 304.733 19.3291C304.728 19.5049 304.716 19.7012 304.698 19.918L304.725 20.8848C304.725 21.3418 304.792 21.749 304.927 22.1064C305.067 22.458 305.258 22.7568 305.498 23.0029C305.738 23.2432 306.02 23.4248 306.342 23.5479C306.67 23.6709 307.019 23.7324 307.388 23.7324C307.739 23.7324 308.067 23.6885 308.372 23.6006C308.677 23.5068 308.94 23.3574 309.163 23.1523C309.392 22.9414 309.57 22.6689 309.699 22.335C309.828 22.001 309.89 21.5908 309.884 21.1045L309.901 20.1289ZM301.2 6.66406H310.13L310.077 4.58105H312.881L312.898 9.01074H300.014L301.2 6.66406ZM315.386 14.873C315.386 14.3926 315.45 13.9707 315.579 13.6074C315.708 13.2383 315.881 12.9219 316.098 12.6582C316.314 12.3887 316.563 12.1631 316.845 11.9814C317.132 11.7998 317.431 11.6562 317.741 11.5508C318.058 11.4395 318.377 11.3604 318.699 11.3135C319.027 11.2666 319.338 11.2432 319.631 11.2432H321.863L321.846 13.7568H320.229C320.094 13.7568 319.924 13.7686 319.719 13.792C319.52 13.8096 319.323 13.8623 319.13 13.9502C318.942 14.0381 318.781 14.1699 318.646 14.3457C318.518 14.5156 318.453 14.7529 318.453 15.0576C318.453 15.3916 318.503 15.6641 318.603 15.875C318.708 16.0859 318.849 16.2529 319.024 16.376C319.206 16.499 319.414 16.5869 319.648 16.6396C319.889 16.6924 320.141 16.7275 320.404 16.7451H321.837L321.828 19.2324H320.387C320.1 19.2441 319.836 19.2793 319.596 19.3379C319.361 19.3906 319.159 19.4902 318.989 19.6367C318.825 19.7773 318.696 19.9795 318.603 20.2432C318.515 20.501 318.474 20.835 318.479 21.2451C318.474 21.6846 318.559 22.0684 318.734 22.3965C318.916 22.7188 319.159 22.9883 319.464 23.2051C319.769 23.416 320.117 23.5742 320.51 23.6797C320.908 23.7852 321.324 23.8379 321.758 23.8379C322.232 23.8379 322.672 23.7764 323.076 23.6533C323.486 23.5303 323.841 23.3311 324.14 23.0557C324.438 22.7744 324.67 22.4111 324.834 21.9658C325.004 21.5146 325.086 20.9639 325.08 20.3135L325.098 11.2432H328.051L328.033 20.8145C328.033 21.7168 327.866 22.5137 327.532 23.2051C327.204 23.8906 326.753 24.4678 326.179 24.9365C325.61 25.4053 324.945 25.7598 324.184 26C323.422 26.2402 322.613 26.3604 321.758 26.3604C321.225 26.3604 320.694 26.3164 320.167 26.2285C319.646 26.1406 319.147 26.0059 318.673 25.8242C318.204 25.6426 317.768 25.417 317.363 25.1475C316.959 24.8721 316.607 24.5498 316.309 24.1807C316.016 23.8057 315.784 23.3838 315.614 22.915C315.45 22.4463 315.368 21.9277 315.368 21.3594C315.368 20.9844 315.392 20.6299 315.438 20.2959C315.491 19.9561 315.582 19.6455 315.711 19.3643C315.84 19.0771 316.01 18.8193 316.221 18.5908C316.432 18.3623 316.701 18.1689 317.029 18.0107C316.684 17.8115 316.402 17.5859 316.186 17.334C315.975 17.082 315.811 16.8184 315.693 16.543C315.576 16.2617 315.497 15.9805 315.456 15.6992C315.415 15.4121 315.392 15.1367 315.386 14.873ZM335.135 23.2666C335.199 23.4658 335.296 23.6123 335.425 23.7061C335.56 23.7939 335.706 23.8379 335.864 23.8379C336.122 23.8379 336.327 23.7676 336.479 23.627C336.632 23.4863 336.714 23.3164 336.726 23.1172L336.699 13.5459H334.651L334.669 11.2432H339.679L339.652 22.6514C339.658 23.3076 339.562 23.8701 339.362 24.3389C339.163 24.8076 338.891 25.1914 338.545 25.4902C338.199 25.7891 337.792 26.0088 337.323 26.1494C336.86 26.29 336.362 26.3604 335.829 26.3604C335.296 26.3604 334.83 26.293 334.432 26.1582C334.033 26.0234 333.688 25.833 333.395 25.5869C333.102 25.3408 332.85 25.0449 332.639 24.6992C332.434 24.3535 332.255 23.9697 332.103 23.5479L329.765 17.1406H332.858L335.135 23.2666ZM344.768 21.1045C344.809 21.5908 344.896 22.0068 345.031 22.3525C345.166 22.6924 345.354 22.9707 345.594 23.1875C345.84 23.3984 346.136 23.5537 346.481 23.6533C346.833 23.7529 347.243 23.8027 347.712 23.8027C347.981 23.8027 348.269 23.7764 348.573 23.7236C348.884 23.6709 349.168 23.5742 349.426 23.4336C349.689 23.2871 349.906 23.0908 350.076 22.8447C350.246 22.5986 350.331 22.2822 350.331 21.8955C350.331 21.5967 350.27 21.3447 350.146 21.1396C350.023 20.9287 349.833 20.7354 349.575 20.5596C349.323 20.3838 349.001 20.2139 348.608 20.0498C348.216 19.8799 347.756 19.6924 347.229 19.4873C346.76 19.2998 346.309 19.1211 345.875 18.9512C345.447 18.7754 345.046 18.5967 344.671 18.415C344.302 18.2275 343.965 18.0254 343.66 17.8086C343.355 17.5918 343.095 17.3516 342.878 17.0879C342.661 16.8184 342.491 16.5166 342.368 16.1826C342.245 15.8428 342.181 15.4561 342.175 15.0225C342.169 14.5479 342.233 14.1172 342.368 13.7305C342.509 13.3438 342.699 13.001 342.939 12.7021C343.186 12.4033 343.473 12.1426 343.801 11.9199C344.135 11.6973 344.492 11.5156 344.873 11.375C345.254 11.2344 345.649 11.1289 346.06 11.0586C346.47 10.9883 346.88 10.9531 347.29 10.9531C348.093 10.9531 348.825 11.0293 349.487 11.1816C350.155 11.334 350.732 11.5947 351.219 11.9639C351.711 12.333 352.098 12.8281 352.379 13.4492C352.666 14.0645 352.833 14.8408 352.88 15.7783H349.927C349.88 15.3271 349.792 14.9492 349.663 14.6445C349.534 14.334 349.367 14.085 349.162 13.8975C348.957 13.7041 348.714 13.5664 348.433 13.4844C348.157 13.4023 347.85 13.3613 347.51 13.3613C347.258 13.3613 347 13.3906 346.736 13.4492C346.473 13.5078 346.229 13.6016 346.007 13.7305C345.79 13.8535 345.611 14.0205 345.471 14.2314C345.33 14.4365 345.26 14.6885 345.26 14.9873C345.26 15.2217 345.321 15.4268 345.444 15.6025C345.567 15.7783 345.755 15.9453 346.007 16.1035C346.265 16.2559 346.59 16.4111 346.982 16.5693C347.375 16.7275 347.841 16.9062 348.38 17.1055C349.353 17.457 350.158 17.7939 350.797 18.1162C351.436 18.4385 351.939 18.7812 352.309 19.1445C352.684 19.5078 352.944 19.9092 353.091 20.3486C353.243 20.7822 353.316 21.2861 353.311 21.8604C353.316 22.6807 353.173 23.3721 352.88 23.9346C352.593 24.4971 352.191 24.9541 351.676 25.3057C351.166 25.6514 350.56 25.9004 349.856 26.0527C349.159 26.2109 348.406 26.29 347.598 26.29C346.807 26.29 346.068 26.1963 345.383 26.0088C344.703 25.8271 344.105 25.5312 343.59 25.1211C343.074 24.7051 342.658 24.1689 342.342 23.5127C342.025 22.8506 341.838 22.0479 341.779 21.1045H344.768ZM354.55 16.1035C354.55 15.5469 354.62 15.0342 354.761 14.5654C354.907 14.0908 355.104 13.6631 355.35 13.2822C355.602 12.9014 355.897 12.5674 356.237 12.2803C356.583 11.9873 356.958 11.7441 357.362 11.5508C357.767 11.3516 358.191 11.2021 358.637 11.1025C359.088 11.0029 359.545 10.9531 360.008 10.9531C360.77 10.9531 361.476 11.0586 362.126 11.2695C362.782 11.4746 363.348 11.791 363.822 12.2188C364.303 12.6406 364.678 13.1768 364.947 13.8271C365.217 14.4717 365.349 15.2305 365.343 16.1035L365.369 26H362.416L362.39 16.6045C362.401 15.5439 362.202 14.7705 361.792 14.2842C361.382 13.792 360.79 13.5459 360.017 13.5459C359.331 13.5459 358.777 13.7598 358.355 14.1875C357.934 14.6152 357.696 15.2539 357.644 16.1035H354.55ZM367.874 14.873C367.874 14.3926 367.938 13.9707 368.067 13.6074C368.196 13.2383 368.369 12.9219 368.586 12.6582C368.803 12.3887 369.052 12.1631 369.333 11.9814C369.62 11.7998 369.919 11.6562 370.229 11.5508C370.546 11.4395 370.865 11.3604 371.188 11.3135C371.516 11.2666 371.826 11.2432 372.119 11.2432H374.352L374.334 13.7568H372.717C372.582 13.7568 372.412 13.7686 372.207 13.792C372.008 13.8096 371.812 13.8623 371.618 13.9502C371.431 14.0381 371.27 14.1699 371.135 14.3457C371.006 14.5156 370.941 14.7529 370.941 15.0576C370.941 15.3916 370.991 15.6641 371.091 15.875C371.196 16.0859 371.337 16.2529 371.513 16.376C371.694 16.499 371.902 16.5869 372.137 16.6396C372.377 16.6924 372.629 16.7275 372.893 16.7451H374.325L374.316 19.2324H372.875C372.588 19.2441 372.324 19.2793 372.084 19.3379C371.85 19.3906 371.647 19.4902 371.478 19.6367C371.313 19.7773 371.185 19.9795 371.091 20.2432C371.003 20.501 370.962 20.835 370.968 21.2451C370.962 21.6846 371.047 22.0684 371.223 22.3965C371.404 22.7188 371.647 22.9883 371.952 23.2051C372.257 23.416 372.605 23.5742 372.998 23.6797C373.396 23.7852 373.812 23.8379 374.246 23.8379C374.721 23.8379 375.16 23.7764 375.564 23.6533C375.975 23.5303 376.329 23.3311 376.628 23.0557C376.927 22.7744 377.158 22.4111 377.322 21.9658C377.492 21.5146 377.574 20.9639 377.568 20.3135L377.586 11.2432H380.539L380.521 20.8145C380.521 21.7168 380.354 22.5137 380.021 23.2051C379.692 23.8906 379.241 24.4678 378.667 24.9365C378.099 25.4053 377.434 25.7598 376.672 26C375.91 26.2402 375.102 26.3604 374.246 26.3604C373.713 26.3604 373.183 26.3164 372.655 26.2285C372.134 26.1406 371.636 26.0059 371.161 25.8242C370.692 25.6426 370.256 25.417 369.852 25.1475C369.447 24.8721 369.096 24.5498 368.797 24.1807C368.504 23.8057 368.272 23.3838 368.103 22.915C367.938 22.4463 367.856 21.9277 367.856 21.3594C367.856 20.9844 367.88 20.6299 367.927 20.2959C367.979 19.9561 368.07 19.6455 368.199 19.3643C368.328 19.0771 368.498 18.8193 368.709 18.5908C368.92 18.3623 369.189 18.1689 369.518 18.0107C369.172 17.8115 368.891 17.5859 368.674 17.334C368.463 17.082 368.299 16.8184 368.182 16.543C368.064 16.2617 367.985 15.9805 367.944 15.6992C367.903 15.4121 367.88 15.1367 367.874 14.873Z"
          fill="#333332"></path>
      </g>
    </g>
  </g>
</svg>