<svg width="18" height="32" viewBox="0 0 18 32" fill="#000000" xmlns="http://www.w3.org/2000/svg"><path d="M11.6682 19.2289L11.6523 19.1854L11.658 19.0745L11.6539 19.0242L11.6257 18.9637L11.4833 18.7741L11.3953 18.7009L11.3817 18.6789V18.5398L11.3606 18.4447L11.3244 18.3836L11.0772 18.1438L11.0736 18.1238L11.1228 18.1285L11.0972 18.0935L11.0199 18.0325L11.0224 18.01V17.9953L10.9881 18.0146L10.9557 18.0222L10.9304 18.0364L10.9209 18.0758L10.9509 18.2748L10.9769 18.3256L10.981 18.3407L10.9735 18.3643H10.9559L10.9338 18.3545L10.9137 18.3482L10.9058 18.3388L10.9077 18.2925L10.9065 18.2748L10.8683 18.2263L10.8095 18.1839L10.7454 18.1503L10.52 18.0709L10.4867 18.0501L10.457 18.046L10.4324 18.0831H10.4196L10.3725 18.0623L10.3609 18.0537L10.3527 18.0354L10.3541 18.019L10.3589 18.0052L10.3609 17.9952L10.3464 17.9521L10.3086 17.8874L10.3039 17.8486L10.3603 17.8628L10.413 17.8449L10.4572 17.8101L10.49 17.7753L10.5067 17.725L10.4904 17.6817L10.4593 17.6626L10.4325 17.6859L10.4494 17.6932L10.4617 17.7033L10.4702 17.7159L10.4757 17.7299L10.4456 17.7663L10.4026 17.7912L10.3637 17.7873L10.3466 17.7372L10.3521 17.6421L10.3649 17.5966L10.3896 17.5525H10.3767L10.3633 17.5693L10.3323 17.6273H10.3183L10.3096 17.6011L10.3046 17.5742L10.3065 17.5481L10.3183 17.5246L10.294 17.5429L10.2604 17.555L10.2307 17.5518L10.2179 17.5246L10.1834 17.5345L10.1735 17.5393L10.1937 17.5519L10.2015 17.5692L10.1995 17.5899L10.1892 17.6126H10.202L10.2466 17.5819L10.2606 17.6054L10.2701 17.6264L10.2716 17.6474L10.2609 17.6712L10.3035 17.7037L10.3254 17.77L10.3073 17.8127L10.2307 17.7752L10.1018 17.642L10.039 17.6075L10.0127 17.5886L10.0161 17.5685L9.98234 17.5234L9.9347 17.4722L9.90276 17.4212L9.91573 17.3766L9.92344 17.3941L9.93215 17.4L9.94376 17.4015L9.95882 17.4059L9.93114 17.3871L9.94513 17.3692L9.97345 17.3473L9.98744 17.3164H9.97156L9.96047 17.3375L9.94685 17.3462L9.93114 17.3441L9.91579 17.3326L9.93695 17.3132L9.94756 17.3074L9.95882 17.3032L9.85227 17.3055L9.84273 17.2879L9.88711 17.2444L9.79852 17.2492L9.77138 17.2578V17.2738L9.79905 17.2939L9.81802 17.3231L9.84261 17.346L9.88717 17.3472L9.87692 17.374L9.87247 17.4025L9.87147 17.4646L9.79911 17.3546L9.77079 17.3233L9.73559 17.3111L9.6963 17.3075L9.66969 17.3165V17.2233L9.6656 17.2005L9.65618 17.1788L9.64682 17.168L9.64237 17.1779L9.63864 17.1909L9.61985 17.2049L9.61405 17.2167L9.64137 17.3091L9.64237 17.3327L9.57167 17.2781L9.54127 17.2467L9.52658 17.2166L9.5696 17.2298L9.5619 17.194L9.54756 17.1861L9.53013 17.1891L9.51218 17.1858L9.49511 17.1697L9.48658 17.1535L9.48012 17.1352L9.46922 17.1124L9.43473 17.0643L9.39579 17.025L9.34987 16.9925L9.29606 16.9641L9.26122 16.9539L9.13179 16.9495L9.09393 16.962L9.07206 16.991L9.05636 17.025L9.03828 17.0523L9.0016 17.0711L8.95911 17.0748L8.87307 17.0683L8.85719 17.0744L8.8541 17.0884L8.85529 17.1032L8.85203 17.1124L8.84231 17.1142L8.81926 17.1118L8.78495 17.1132L8.72196 17.0977L8.62975 17.112L8.58317 17.1281L8.56302 17.1483L8.55378 17.1882L8.53126 17.1908L8.47834 17.1563L8.33274 17.0908L8.17618 17.0523L7.83816 17.0082L7.79396 17.0175L7.72142 17.059L7.63028 17.0754L7.60806 17.0964L7.60735 17.0971L7.60053 17.1337V17.1857L7.49914 17.1403V17.1269L7.5299 17.1032L7.51692 17.0677L7.48142 17.0469L7.44356 17.0683L7.42068 17.0552L7.40225 17.0565L7.38282 17.0638L7.35621 17.0683L7.3661 17.0611L7.37499 17.0519L7.38133 17.0396L7.38459 17.0229H7.34193L7.3491 17.0102L7.36344 16.9769L7.37025 16.9641L7.35283 16.9635L7.31324 16.9495L7.34975 16.8541L7.37725 16.8135L7.41499 16.8321H7.42797L7.44285 16.8084L7.4611 16.789L7.47751 16.7651L7.4864 16.7279L7.48332 16.6948L7.47242 16.6645L7.45742 16.637L7.3789 16.5229L7.37037 16.4942L7.3779 16.4738L7.39325 16.4615L7.4112 16.4502L7.42809 16.4328L7.43319 16.4168L7.43781 16.3772L7.44379 16.3592L7.46187 16.3695L7.48409 16.3588L7.50424 16.3371L7.51514 16.315L7.51413 16.264L7.49316 16.2288L7.46856 16.1982L7.45677 16.1608L7.44788 16.1474L7.42809 16.1412L7.40865 16.1319L7.39911 16.1092L7.44385 16.0504L7.47781 15.9875L7.52237 15.9247L7.53944 15.8883L7.53807 15.8471L7.5152 15.7696L7.50548 15.7489L7.47698 15.7027L7.47081 15.6881L7.47561 15.6654L7.48516 15.6516L7.49505 15.6412L7.51265 15.5927L7.54359 15.579L7.58181 15.5701L7.61529 15.5475L7.62382 15.5173L7.62756 15.4675L7.62329 15.421L7.59342 15.379L7.60913 15.3322L7.64563 15.2665V15.2518L7.62068 15.2695L7.5997 15.2892L7.57766 15.3052L7.55099 15.312H7.42145L7.36919 15.305L7.26418 15.2737L7.1747 15.2626L7.12948 15.2437L6.98282 15.2236L6.91947 15.1999L6.83668 15.141L6.79864 15.1259L6.79354 15.1099L6.79763 15.0892L6.80842 15.0652L6.81304 15.0353L6.81079 15.0014L6.78791 15.045L6.78003 15.0796L6.78222 15.171L6.76462 15.2014L6.72279 15.2201L6.45849 15.2667L6.35603 15.2619L6.3043 15.2659L6.26382 15.2827L6.16462 15.2328L6.13357 15.2076L6.11241 15.2489L6.08782 15.2743L6.05405 15.2924L5.87206 15.3643L5.79372 15.3804L5.74317 15.4033L5.70204 15.4218L5.66791 15.4312L5.63805 15.4534L5.62216 15.4981L5.60202 15.5313L5.55935 15.5196L5.58939 15.5329L5.58578 15.5707L5.56954 15.6041L5.54323 15.6281L5.5091 15.6375L5.47834 15.6536L5.47407 15.6912L5.47443 15.693L5.48759 15.7632L5.55348 15.8514L5.67502 15.9544L5.68201 15.9644L5.69653 15.9764L5.7117 15.9922L5.71804 16.0138L5.71976 16.0331L5.74056 16.1141L5.77541 16.1977L5.77031 16.2353L5.75171 16.2695L5.68255 16.3636L5.66768 16.3941L5.6467 16.4636L5.61802 16.6187L5.60676 16.6504L5.53061 16.7721L5.50258 16.8566L5.48314 16.9449L5.4736 17.0357L5.47431 17.1039L5.47467 17.1271L5.51052 17.266L5.51633 17.3099L5.50845 17.4463L5.51633 17.494L5.57967 17.6475L5.58222 17.6786L5.56433 17.7103L5.51822 17.8693L5.52041 17.8896L5.5392 17.9132L5.56018 17.9329L5.57606 17.9526L5.58578 17.9749L5.59241 18.0191L5.59787 18.0361L5.59858 18.0565L5.58933 18.0831L5.57843 18.0946L5.54465 18.1211L5.53067 18.1416L5.51769 18.2185L5.50916 18.2376L5.46287 18.3144L5.25304 18.5376L5.20249 18.6313L5.18578 18.73L5.21446 18.8055L5.20782 18.8178L5.17813 18.8207L5.16326 18.8299L5.15763 18.8459L5.1571 18.8698L5.1728 18.951L5.16835 18.9636L5.16172 18.9795L5.16018 18.9992L5.1728 19.0242L5.096 19.0331L5.03591 19.0918L4.86554 19.3745L4.85493 19.3982L4.84604 19.432L4.80521 19.4914L4.79615 19.5298L4.79307 19.5801L4.78453 19.6255L4.77138 19.6686L4.71727 19.789L4.71182 19.8089L4.70258 19.8319L4.66228 19.875L4.65304 19.8965L4.64658 20.0199L4.65304 20.0644L4.68836 20.1535V20.1935L4.65304 20.2277L4.63769 20.1854L4.60438 20.1864L4.56753 20.2112L4.53967 20.2409L4.52468 20.2639L4.51034 20.2926L4.49991 20.3266L4.49529 20.3657L4.50246 20.4117L4.53286 20.4889L4.53967 20.5268L4.53369 20.5695L4.51473 20.6169L4.50483 20.6421L4.49529 20.6802L4.49938 20.7298L4.53179 20.8192L4.53962 20.8638L4.53179 20.8962L4.51437 20.8952L4.49885 20.8802L4.49523 20.8711L4.45582 20.8696L4.42613 20.8726L4.40616 20.8771L4.38839 20.8877L4.38104 20.9076V20.9951L4.37132 21.0341L4.24533 21.2259L4.23763 21.2449L4.24255 21.2673L4.24889 21.2824L4.24397 21.2912L4.21612 21.2939L4.17926 21.304L4.14495 21.3298L4.11556 21.3637L4.09304 21.3986L4.07988 21.4415L4.06329 21.5439L4.04213 21.58L4.01926 21.5893L3.99295 21.593L3.97179 21.6033L3.9629 21.6316L3.9677 21.6474L3.98104 21.6569L3.99982 21.6612L4.02151 21.6608L4.00616 21.6894L3.98673 21.7125L3.97019 21.7373L3.96302 21.7701L3.97636 21.798L4.04124 21.8414L4.06447 21.866L4.06821 21.8933L4.06566 21.9325L4.05659 21.9674L4.04225 21.9826L4.01221 21.9826L3.99621 21.9852L3.94957 22.0117L3.9424 21.9844L3.92705 21.9655L3.90536 21.9513L3.87804 21.9376L3.84593 21.9529L3.81843 21.9551L3.79538 21.96L3.77642 21.9826L3.77588 22.0062L3.79076 22.0992L3.8128 22.1311L3.89114 22.2024L3.92954 22.2492L3.9536 22.2557L3.99253 22.2448L3.96539 22.2873L3.88071 22.2955L3.86228 22.3262L3.85019 22.377L3.79384 22.471L3.77642 22.524L3.78033 22.5828L3.80047 22.6215L3.82335 22.6529L3.8336 22.6904L3.82714 22.7156L3.79745 22.7372L3.79081 22.7644L3.80516 22.8583V23.0263L3.80824 23.0325L3.81487 23.0386L3.81997 23.048L3.81944 23.0632L3.81144 23.0756L3.78513 23.0962L3.77642 23.1081L3.76924 23.1293L3.76498 23.1496L3.76243 23.1889L3.76207 23.1953L3.76871 23.2396L3.79804 23.3254L3.80913 23.4084L3.82092 23.4571L3.83882 23.5039L3.90317 23.6008L3.91514 23.6338L3.91976 23.6828L3.9264 23.718L4.01481 23.8809L4.13707 24.0393L4.12053 24.0434L4.1101 24.0429L4.10021 24.0408L4.08551 24.0393L4.06827 24.0424L4.06673 24.0502L4.06927 24.0601L4.064 24.0697L4.01173 24.0984L3.99241 24.1131L3.9523 24.1567L3.94122 24.1919L3.94939 24.2802L3.99324 24.3775L4.09126 24.3985L4.19402 24.4058L4.25156 24.4616L4.32036 24.4543L4.38933 24.455L4.45422 24.4444L4.51076 24.4034L4.52664 24.3711L4.53742 24.3334L4.5523 24.298L4.58234 24.2729L4.6083 24.2699L4.70341 24.2875L4.73825 24.2809L4.7664 24.2664L4.78791 24.2519L4.80361 24.2453L4.8688 24.2295L4.90394 24.2046L4.90465 24.2004L4.98406 24.205L4.99757 24.2083L5.00972 24.1906L5.03751 24.1921L5.07745 24.2081L5.09796 24.2163L5.10904 24.2069L5.13173 24.1952L5.1437 24.186L5.16895 24.2104L5.24883 24.2456L5.2509 24.2659L5.24782 24.2895L5.26163 24.324L5.29967 24.3905L5.31692 24.3759L5.31793 24.5362L5.32836 24.5778L5.34542 24.6055L5.36456 24.6293L5.38044 24.655L5.38708 24.6879V24.7901L5.3917 24.8117L5.41203 24.8465L5.41576 24.8705L5.41167 24.872L5.40196 24.8833L5.39224 24.899L5.38708 24.914V24.9655L5.41167 25.1287L5.40142 25.1618L5.42856 25.2274L5.47058 25.6409L5.48711 25.7088L5.52279 25.7645L5.6416 25.8363L5.66021 25.8673L5.66874 25.904L5.71532 25.9957L5.74927 26.0466L5.76261 26.0889L5.77487 26.1076L5.79093 26.1172L5.83722 26.1371L5.84664 26.143L5.85861 26.1687L5.88658 26.1753L5.92006 26.1676L5.94685 26.1509L5.92753 26.0894L5.92326 26.0041L5.90175 25.93L5.83105 25.902L5.872 25.8843L5.93535 25.9304L5.99307 25.9973L6.01849 26.0417L6.12551 26.3208L6.19141 26.7416L6.27437 27.1225L6.32664 27.3622L6.47941 28.1L6.60616 28.4025L6.71899 28.5806L6.74584 28.6236L6.76136 28.6666L6.76006 28.6966L6.70584 28.6922L6.67941 28.6647L6.60409 28.5964L6.56338 28.572L6.54696 28.5615L6.48806 28.5637L6.44865 28.5431L6.4768 28.4869L6.45606 28.4187L6.44213 28.3259L6.41233 28.3075L6.4163 28.139L6.40794 27.9923L6.37333 27.9108L6.30916 27.8844L6.23917 27.8932L6.19182 27.9647L6.17665 28.0009L6.16367 28.0123L6.14116 28.0002L6.12818 27.9851L6.12202 27.9714L6.12012 27.9545V27.9292L6.13428 27.8879L6.20563 27.844L6.23484 27.8044L6.24219 27.7223L6.22868 27.6106L6.20018 27.5049L6.16196 27.4405L6.12202 27.4255L6.08172 27.4327L6.04077 27.4479L5.9981 27.4562L5.9776 27.4744L5.88439 27.5568L5.85997 27.5864L5.85606 27.6274L5.88065 27.8057L5.9184 27.9068L5.93221 27.9847L5.94519 28.0206L5.96859 28.0356L5.97422 28.0427L6.01879 28.0803L6.0285 28.0942L6.03413 28.1045L6.10276 28.2758L6.14116 28.3422L6.19188 28.3835L6.23781 28.3896L6.29007 28.3906L6.33274 28.4046L6.35064 28.4498L6.35082 28.453L6.35218 28.4999L6.35591 28.5252L6.36379 28.545L6.3824 28.5614L6.41209 28.5619L6.43242 28.5721L6.45173 28.5894L6.41772 28.6069L6.39929 28.6142L6.3853 28.6245L6.37932 28.6375L6.38595 28.6612L6.40083 28.6784L6.41813 28.6881L6.44664 28.7461L6.47206 28.7695L6.50157 28.7797L6.5341 28.7756L6.55852 28.799L6.57582 28.8122L6.59419 28.8191L6.64705 28.8214L6.67147 28.8173L6.72231 28.802L6.77464 28.7535L6.79105 28.7282L6.78489 28.6699L6.7843 28.6335L6.83816 28.7007L7.1613 29.1435L7.20178 29.1774L7.25801 29.1978L7.29179 29.2099L7.3392 29.188L7.37387 29.2196L7.43656 29.2776L7.54513 29.3598L7.64889 29.4107L7.70999 29.4114L7.79668 29.4085L8.05547 29.3997L8.13962 29.3607L8.16634 29.3148L8.23656 29.327L8.2656 29.3513L8.30442 29.3606L8.31929 29.37L8.32356 29.3656L8.39099 29.37L8.37476 29.3273L8.3427 29.2814L8.20474 29.2245L8.26596 29.2038L8.32693 29.215L8.38122 29.2587L8.46205 29.3081L8.53387 29.3308L8.57043 29.3398L8.60202 29.3436L8.64249 29.3529L8.67781 29.3649L8.69316 29.3772L8.75105 29.4019L8.82329 29.4421L8.8419 29.4623L9.056 29.829L9.17173 30.0069L9.27277 30.1625L9.34975 30.2389L9.56024 30.3711L9.79378 30.5955L9.90442 30.6754L9.89162 30.7873L9.90127 30.9521L9.87763 31.0193L9.82193 31.075L9.66661 31.1948L9.61487 31.2578L9.58347 31.3453L9.58246 31.4353L9.56913 31.516L9.50074 31.5756L9.47745 31.5908L9.46702 31.6087L9.45985 31.6274L9.44705 31.646L9.38572 31.6836L9.37464 31.6965L9.35793 31.7412L9.33322 31.7678L9.29896 31.7716L9.25428 31.7475L9.23609 31.7249L9.22287 31.6993L9.2064 31.6783L9.17867 31.6696L9.15342 31.6772L9.11739 31.7104L9.11538 31.7122L9.09458 31.7229L9.05102 31.7137L9.01837 31.6777L8.9773 31.5812L8.97837 31.5623L8.98489 31.5413L8.98424 31.5239L8.96427 31.5159L8.93973 31.5118L8.9235 31.5017L8.91224 31.485L8.90246 31.4612L8.86927 31.4169L8.82442 31.4063L8.77565 31.4175L8.70335 31.4456L8.47775 31.5334L8.40415 31.5812L8.32314 31.6199L8.24077 31.6347L8.17636 31.6686L8.15046 31.7641L8.14406 31.8111L8.12605 31.8537L8.09938 31.891L8.06696 31.922L7.96865 31.9814L7.91028 32L7.87514 31.9836L7.85108 31.9309L7.8192 31.878L7.77944 31.832L7.73227 31.8004L7.71147 31.7962L7.67159 31.798L7.65108 31.7899L7.63668 31.7732L7.61209 31.7236L7.59615 31.6985L7.58518 31.6813L7.58116 31.6573L7.58625 31.6326L7.6 31.609L7.68605 31.4339L7.72071 31.4116L7.76492 31.4028L7.80308 31.3886L7.81914 31.3499L7.82264 31.3102L7.83739 31.2412L7.84065 31.1212L7.85173 31.0386L7.8368 30.9968L7.79775 30.9673L7.76415 30.9356L7.7661 30.887L7.79431 30.8517L7.82187 30.8391L7.84107 30.8211L7.84498 30.7698L7.83923 30.7268L7.82536 30.6995L7.7987 30.6903L7.70246 30.7111L7.66768 30.6998L7.60012 30.6444L7.56 30.6528L7.50495 30.7119L7.46548 30.7221L7.37807 30.7002L7.3501 30.6965L7.32433 30.7049L7.31283 30.7191L7.3037 30.7202L7.28605 30.6889L7.28095 30.6712L7.27965 30.6103L7.28356 30.5914L7.28427 30.5895L7.2909 30.5716L7.29535 30.5522L7.29132 30.5347L7.26625 30.4919L7.25695 30.4689L7.25221 30.4446L7.24622 30.3442L7.22673 30.3038L7.17837 30.2756L7.15455 30.2721L7.13298 30.2725L7.11348 30.2697L7.09582 30.2565L7.09019 30.2389L7.09085 30.1918L7.08759 30.1788L7.05167 30.1791L6.9165 30.276L6.87929 30.281L6.84148 30.2718L6.76972 30.2399L6.64172 30.2026L6.60344 30.1849L6.53647 30.1365L6.50524 30.1288L6.45102 30.135L6.4157 30.1321L6.36895 30.1177L6.34856 30.1079L6.288 30.0786L6.24693 30.0424L6.22317 30.0024L6.1453 29.7654L6.13096 29.7499L6.10862 29.742L6.08433 29.7397L6.06524 29.7414L6.03348 29.7613V29.7654L6.00172 29.7648L5.9837 29.7548L5.9741 29.7432L5.96877 29.7367L5.94969 29.7252L5.91976 29.7348L5.90619 29.7523L5.90033 29.7764L5.8976 29.8241L5.88361 29.9097L5.88587 29.9458L5.9027 29.9948L5.9069 30.0247L5.89434 30.043L5.87591 30.0588L5.86181 30.0809L5.85997 30.0997L5.86679 30.1364L5.86768 30.1548L5.85902 30.2074L5.84059 30.2536L5.82323 30.2862L5.80788 30.2422L5.78311 30.2075L5.74519 30.1963L5.77079 30.1283L5.77333 30.0943L5.75236 30.0796L5.72521 30.0866L5.70916 30.1041L5.68901 30.1504L5.61902 30.0911L5.55893 30.0219L5.55176 30.0036L5.54596 29.9791L5.53778 29.9577L5.5229 29.9485L5.4963 29.9624L5.48095 29.9664L5.47431 29.9564L5.47893 29.9412L5.4979 29.9154L5.50163 29.9052L5.49653 29.884L5.47846 29.8485L5.47437 29.8252L5.46513 29.818L5.44516 29.8193L5.42483 29.8164L5.41594 29.7964L5.40622 29.7575L5.38317 29.7308L5.32853 29.689L5.27834 29.6097L5.24521 29.5804L5.20747 29.5938L5.18886 29.5948L5.17369 29.5673L5.1568 29.5131L5.14193 29.4936L5.13084 29.4849L4.94939 29.4162L4.89713 29.3672L4.89766 29.2824L4.9069 29.2443L4.91816 29.2397L4.94839 29.2391L4.95609 29.2302L4.95402 29.2102L4.94204 29.1904L4.91917 29.1814L4.88693 29.1638L4.88948 29.1236L4.89802 29.0798L4.88332 29.0515L4.91745 28.9815L4.93896 28.9486L4.96219 28.9348L4.96883 28.9209L5.02773 28.8416L5.01203 28.8182L4.976 28.8294L4.93707 28.8517L4.912 28.8626L4.87988 28.8475L4.86791 28.8218L4.86892 28.7471L4.79585 28.7891L4.76136 28.8184L4.74667 28.8191L4.73985 28.7891H4.7245L4.68356 28.7773L4.62874 28.6906L4.59135 28.5919L4.60261 28.5451L4.64735 28.5203L4.6861 28.4596L4.71378 28.3835L4.7245 28.3127H4.71153L4.65215 28.4268L4.61132 28.47L4.55905 28.4498L4.55034 28.4168L4.56059 28.3257L4.55242 28.2969L4.52444 28.2941L4.50276 28.324L4.48841 28.3659L4.48225 28.3993L4.49096 28.474L4.48278 28.5039L4.44593 28.5161L4.42388 28.51L4.3923 28.4955L4.36427 28.4784L4.35218 28.4642L4.34092 28.458L4.28148 28.4479L4.25179 28.4294L4.22602 28.3967L4.16456 28.2968L4.184 28.262L4.18726 28.2124L4.18009 28.1162L4.17547 28.1019L4.15461 28.0677L4.15034 28.0434L4.14062 28.0403L4.09487 28.0408L4.07846 28.0355L4.10631 27.9908L4.10323 27.9442L4.08788 27.8911L4.07253 27.7953L4.05819 27.7929L4.03959 27.802L4.02133 27.8043L4.0029 27.795L3.9824 27.7803L3.97606 27.7669L3.99976 27.761L4.00847 27.7475L3.99485 27.7176L3.9696 27.6878L3.94193 27.6744L3.90815 27.6697L3.89108 27.6572L3.8624 27.6165L3.82056 27.5857L3.77961 27.5625L3.74702 27.5336L3.73233 27.4852H3.71917L3.71419 27.5575L3.69369 27.6158L3.65031 27.6447L3.57588 27.6297L3.52806 27.5792L3.51645 27.4393L3.48859 27.384L3.57582 27.3155L3.58898 27.2901L3.59289 27.2504L3.60587 27.1873L3.60433 27.1514L3.56385 27.1925L3.5437 27.2002L3.51722 27.1961L3.50643 27.1838L3.47419 27.1297L3.45884 27.114L3.42507 27.1041L3.39076 27.0851L3.37541 27.0424L3.37778 27.021L3.38151 27.0079L3.38252 26.996L3.37535 26.978L3.36065 26.9596L3.32687 26.9408L3.31028 26.9266L3.29819 26.9046L3.29493 26.8895L3.28622 26.8836L3.25961 26.8898L3.24628 26.9019L3.23093 26.9397L3.22376 26.9478L3.19153 26.9569L3.1603 26.9745L3.13025 26.9863L3.10056 26.978L3.09031 26.962L3.07597 26.9149L3.06554 26.8971L3.03941 26.8813L3.02761 26.8897L3.02198 26.9071L3.01481 26.9188L2.9875 26.9427L2.97642 26.9422L2.97179 26.9115L2.96616 26.8925L2.93902 26.8649L2.92842 26.8476L2.92362 26.8068L2.92842 26.7029L2.92107 26.6747L2.92842 26.6067V26.5701L2.9216 26.5368L2.88575 26.4543L2.8557 26.5135H2.84273L2.83556 26.3596L2.82121 26.3384L2.78127 26.3497L2.72036 26.3886L2.69802 26.3819H2.68403V26.3964H2.66969L2.6656 26.3716L2.67431 26.2588L2.68557 26.2411L2.71988 26.2155L2.73559 26.1877L2.70756 26.1743L2.66252 26.1653L2.62667 26.1505L2.61695 26.1977L2.58809 26.2104L2.55123 26.2127L2.51864 26.2293L2.49713 26.2526L2.46418 26.2795L2.43141 26.2905L2.41055 26.2649H2.39621L2.39265 26.2903L2.38157 26.3038L2.36723 26.302L2.35325 26.2808H2.3389V26.3084L2.29553 26.3034L2.25902 26.3207L2.2464 26.3432L2.31129 26.3693L2.31899 26.4043L2.31846 26.445L2.33126 26.4768L2.33179 26.5344L2.29659 26.6213L2.25221 26.6779L2.22418 26.6439H2.21138L2.20984 26.6635L2.20403 26.6767L2.18151 26.7031L2.14785 26.6728L2.10945 26.6004L2.05553 26.5791L2.04907 26.5637L2.04036 26.5483L2.0163 26.5415L1.99324 26.5399L1.976 26.5351L1.96249 26.5265L1.95105 26.5138L1.94305 26.4824V26.3917L1.93025 26.3612L1.91111 26.3296L1.86845 26.131L1.77914 25.8597L1.77606 25.8137L1.78649 25.7759L1.80065 25.7598L1.80782 25.7787L1.8131 25.8195L1.8288 25.8469L1.87953 25.9018L1.89162 25.8591L1.87319 25.8332L1.8435 25.8126L1.82216 25.786L1.82116 25.7722L1.82679 25.7616L1.83324 25.7525L1.8365 25.7438L1.83532 25.7091L1.8365 25.6991L1.86009 25.6334L1.86518 25.6121L1.8611 25.5655L1.82815 25.482L1.82216 25.4526L1.83087 25.4333L1.84575 25.4216L1.86335 25.411L1.87959 25.3948L1.88676 25.381L1.89102 25.3673L1.89885 25.2354L1.90945 25.1884L1.95555 25.1156L1.97487 25.0319L2.0157 24.9746L2.04231 24.9239L2.05938 24.9137L2.06726 24.9188L2.09831 24.9269L2.12444 24.9266L2.11727 24.9064L2.112 24.8798L2.1325 24.85L2.18169 24.7963L2.11887 24.8223L2.07929 24.8325L2.05878 24.8159L2.0528 24.7607L2.0784 24.7377L2.12859 24.7355L2.16225 24.7185L2.13867 24.6513L2.07721 24.57L2.04972 24.5221L2.03846 24.4694L2.03692 24.4265L2.04664 24.4386L2.07342 24.4469L2.09049 24.4405L2.1072 24.4254L2.13861 24.3902L2.09985 24.3701L2.09902 24.3372L2.11834 24.3014L2.1245 24.2728L2.14963 24.2377L2.16498 24.1986L2.19402 24.0663L2.21055 24.0279L2.25339 23.9521L2.29061 23.7643L2.32 23.7054L2.38216 23.7489L2.4515 23.6942L2.47502 23.668L2.46957 23.6472L2.45351 23.6436L2.41339 23.649L2.3965 23.6472L2.38797 23.6376L2.38009 23.6094L2.37493 23.6036L2.33292 23.5864L2.35034 23.5509L2.38927 23.5215L2.41078 23.5225L2.41541 23.5143L2.43484 23.4891L2.43947 23.4795L2.43384 23.4639L2.39644 23.4135L2.43076 23.4117L2.43739 23.394L2.42359 23.3711L2.39644 23.354L2.41078 23.3407L2.44255 23.3614L2.47567 23.3748L2.50199 23.3693L2.51259 23.3329L2.52148 23.3308L2.53837 23.3128L2.54773 23.2924L2.5341 23.2826L2.49108 23.2821L2.4723 23.2776L2.45387 23.2668L2.44433 23.2814L2.44196 23.2877L2.43959 23.2971H2.42661L2.42898 23.2798L2.42833 23.2324L2.42661 23.2244L2.44421 23.2065L2.46056 23.2022L2.47745 23.2015L2.49689 23.1953L2.5261 23.1744L2.54862 23.1489L2.56705 23.1177L2.58394 23.079L2.56705 23.0944L2.53238 23.1383L2.51259 23.1505L2.49381 23.1468L2.48255 23.1319L2.4733 23.1157L2.43644 23.0917L2.45333 23.0543L2.48711 23.0149L2.51253 22.9919L2.52207 23.0069L2.53541 23.0148L2.55111 23.0143L2.56954 23.0051L2.55757 22.991L2.58898 22.9681L2.59822 22.9458L2.59105 22.9375L2.57517 22.9333L2.56 22.9244L2.56409 22.9129L2.5856 22.8929L2.60267 22.8665L2.6192 22.8549L2.66584 22.8556L2.68427 22.8452L2.68907 22.8233L2.66892 22.8143L2.64587 22.8169L2.64124 22.8294L2.61873 22.8001L2.61908 22.7861L2.6269 22.758L2.72012 22.5967L2.75016 22.5628L2.80753 22.3992L2.85636 22.3065L2.87224 22.2588L2.88249 22.2083L2.88605 22.1647L2.89393 22.1228L2.92634 22.0433L2.92871 21.9974L2.96859 21.868L2.98987 21.7595L3.0189 21.678L3.02086 21.635L2.99141 21.501L2.97778 21.478L2.93742 21.4431L2.92984 21.4158L2.9485 21.3241L2.9693 21.2757L3.0621 21.1522L3.10222 21.116L3.12219 21.1099L3.16687 21.1072L3.18228 21.1025L3.19721 21.0838L3.20527 21.0633L3.21452 21.0399L3.2323 21.02L3.26027 21.0074L3.27976 21.0119L3.29778 21.0209L3.3203 21.0217L3.39508 20.9888L3.40504 20.9865L3.42062 20.9689L3.42951 20.9521L3.43733 20.9091L3.4371 20.8777L3.42039 20.8342L3.41582 20.8082L3.41713 20.7861L3.4221 20.7627L3.43058 20.7406L3.44249 20.7221L3.46181 20.7015L3.47028 20.6989L3.48089 20.7044L3.50756 20.7084L3.53138 20.7157L3.55348 20.7273L3.5741 20.7279L3.59212 20.7019L3.61079 20.6374L3.61991 20.6183L3.65416 20.5831L3.73784 20.5395L3.75431 20.5266L3.77689 20.509L3.79052 20.4884L3.81025 20.4441L3.82584 20.4239L3.84646 20.4121L3.89114 20.3971L3.90542 20.3795L3.96895 20.1883L3.99603 20.1406L4.0637 20.0586L4.08907 20.0108L4.12095 19.9249L4.14329 19.8919L4.22287 19.8053L4.23585 19.7697L4.23911 19.7322L4.25084 19.6795L4.27058 19.6452L4.33108 19.5838L4.35686 19.5481L4.37618 19.5057L4.384 19.4699L4.38009 19.3832L4.38293 19.3332L4.40225 19.2978L4.4365 19.276L4.48486 19.2664L4.57203 19.2611L4.59698 19.2406L4.73185 19.0581L4.74963 19.0072L4.78044 18.865L4.77612 18.8444L4.74056 18.8341L4.70027 18.8082L4.66252 18.7751L4.6365 18.7425L4.6211 18.6951L4.62803 18.651L4.66056 18.5646L4.66293 18.5208L4.64818 18.4844L4.61956 18.4583L4.57967 18.4453L4.54631 18.4145L4.55325 18.355L4.58661 18.2537L4.5901 18.2293L4.59899 18.2074L4.60373 18.1872L4.59508 18.1684L4.57665 18.1601L4.5552 18.1607L4.43704 18.1998L4.40753 18.1925L4.40036 18.1543L4.41144 18.1335L4.43182 18.117L4.44895 18.0976L4.45262 18.0683L4.44504 18.0466L4.42252 18.0043L4.41452 17.9818L4.4128 17.9589L4.41778 17.9199L4.41215 17.8966L4.39781 17.8731L4.36551 17.834L4.35402 17.8077L4.34708 17.7666L4.34122 17.6472L4.32735 17.6003L4.27965 17.5141L4.27075 17.4699L4.27597 17.4483L4.29849 17.4021L4.30673 17.3793L4.31277 17.3317L4.31318 17.2861L4.30785 17.2529L4.30471 17.2335L4.28474 17.2038L4.18133 17.1458L4.1581 17.1272L4.13754 17.1057L4.12409 17.0832L4.10815 17.0667L4.05896 17.0527L4.03923 17.0407L4.03206 17.0236L4.02726 16.98L4.01796 16.9606L3.99609 16.9464L3.94815 16.9385L3.9293 16.9291L3.90761 16.8921L3.90566 16.8535L3.90827 16.8125L3.90044 16.7682L3.88439 16.7433L3.84279 16.7031L3.82607 16.6797L3.8189 16.6584L3.81173 16.5922L3.78418 16.5269L3.77961 16.5074L3.78181 16.4793L3.78963 16.4591L3.80047 16.4404L3.80936 16.416L3.80415 16.374L3.77529 16.3325L3.73624 16.2975L3.70027 16.2752L3.65387 16.2388L3.64368 16.1956L3.65517 16.1476L3.67336 16.0965L3.67923 16.0421L3.67271 15.9943L3.67247 15.9522L3.6976 15.9161L3.73772 15.9009L3.82074 15.8916L3.84948 15.8656L3.85114 15.8641L3.85719 15.8269L3.84853 15.7828L3.8221 15.702L3.8208 15.6729L3.82945 15.6527L3.8416 15.6345L3.85049 15.6121V15.5913L3.84356 15.5499L3.8544 15.4423L3.85244 15.4008L3.77719 15.0667L3.77197 14.8853L3.7789 14.8363L3.77825 14.7798L3.76616 14.7608L3.75461 14.7426L3.68652 14.6765L3.67046 14.6417L3.64664 14.5384L3.64598 14.5011L3.65096 14.4751L3.65161 14.4586L3.64705 14.4445L3.63621 14.4263L3.62667 14.4198L3.59739 14.4116L3.58631 14.4058L3.57807 14.3927L3.56747 14.3604L3.55816 14.3475L3.49227 14.2979L3.47319 14.2726L3.45191 14.2251L3.42631 14.1841L3.35953 14.1031L3.34827 14.0634L3.34347 14.0142L3.32243 13.9791L3.28557 13.9553L3.23526 13.9404L3.1904 13.9205L2.94151 13.7308L2.89404 13.6802L2.8435 13.5796L2.82335 13.5766L2.79864 13.5852L2.76676 13.5841L2.75248 13.5733L2.72557 13.5375L2.71194 13.524L2.69653 13.5169L2.66424 13.5094L2.64948 13.5035L2.62216 13.485L2.6048 13.4678L2.50939 13.3464L2.3635 13.0456L2.33618 13.0308L2.3104 13.0206L2.29499 12.9903L2.2835 12.9378L2.2653 12.8911L2.23775 12.8484L1.98453 12.6018L1.87093 12.4199L1.85422 12.3777L1.86139 12.3461L1.86205 12.3355L1.85535 12.3216L1.83283 12.303L1.82655 12.2915L1.82287 12.2459L1.82548 12.1678L1.81138 12.1202L1.76978 12.0455L1.76154 12.0226L1.76172 12.0116L1.76201 11.9944L1.77114 11.9736L1.78264 11.955L1.78933 11.9326L1.77807 11.8853L1.71318 11.8171L1.69719 11.7659L1.70673 11.7236L1.75028 11.6476L1.76071 11.6076L1.74803 11.5772L1.73381 11.5432L1.73233 11.5175L1.79633 11.5205L1.81256 11.5213L1.84919 11.5041L1.88018 11.4734L1.95431 11.3667L1.97967 11.3609L2.02738 11.3688L2.06554 11.3836L2.1373 11.4277L2.16871 11.44L2.18347 11.4357L2.18868 11.4212V11.3881L2.18305 11.3756L2.17049 11.3657L2.15769 11.3582L2.15248 11.3525L2.15532 11.3413L2.1603 11.3304L2.16551 11.3224L2.16788 11.3201L2.18631 11.3094L2.19781 11.2974L2.20042 11.2781L2.19176 11.2412L2.1933 11.2236L2.20693 11.2141L2.28237 11.1978L2.31597 11.1847L2.35609 11.1633L2.39899 11.1822L2.4419 11.2068L2.47289 11.2411L2.47982 11.2884L2.53511 11.2246L2.55419 11.1227L2.55028 11.013L2.50104 10.6887L2.50536 10.5643L2.50181 10.5284L2.49387 10.4481L2.49973 10.397L2.56539 10.1777L2.57019 10.1381L2.55479 10.0466L2.55325 9.99413L2.57861 9.90915L2.58513 9.87028L2.57079 9.82679L2.51443 9.74536L2.50791 9.71638L2.52658 9.6989L2.55129 9.70228L2.57707 9.71354L2.59834 9.72006L2.62566 9.71994L2.64344 9.71757L2.65926 9.70868L2.68243 9.68907L2.7117 9.64622L2.72474 9.60255L2.74228 9.56622L2.78607 9.54465L2.82293 9.54305L2.95153 9.55988L2.97648 9.5715L2.98839 9.58673L3.00314 9.59644L3.03544 9.59206L3.05387 9.57873L3.10329 9.52397L3.11307 9.50447L3.11153 9.45381L3.11562 9.40729L3.12907 9.36427L3.15532 9.32438L3.21428 9.25493L3.22471 9.22038L3.23467 9.12136L3.25547 9.02613L3.25375 8.98637L3.21754 8.93268L3.16895 8.90104L3.12972 8.86228L3.12172 8.78779L3.07793 8.82453L3.06056 8.85956L3.04302 8.94999L3.01481 9.00184L2.88818 9.10305L2.82554 9.19769L2.79194 9.22276L2.75182 9.19395L2.73861 9.16119L2.70803 9.00379L2.68095 8.94027L2.67834 8.91644L2.69938 8.87076L2.70264 8.8477L2.68551 8.80806L2.55716 8.63644L2.54418 8.61369L2.54376 8.59016L2.5507 8.56699L2.55159 8.54684L2.5475 8.52705L2.53861 8.50477L2.50827 8.46447L2.4352 8.41381L2.40616 8.37197L2.39141 8.31212L2.3808 8.28747L2.31858 8.23881L2.31449 8.19988L2.33096 8.15798L2.35609 8.12178L2.3869 8.11283L2.42092 8.09108L2.44628 8.064L2.45256 8.03965L2.43716 8.02199L2.41653 8.01363L2.39769 8.00231L2.38856 7.97594L2.39378 7.94477L2.41067 7.93422L2.43449 7.94068L2.46092 7.96006L2.4429 7.89754L2.42927 7.8675L2.40954 7.85381L2.37677 7.83852L2.36895 7.80634L2.3683 7.76972L2.35597 7.7408L2.33321 7.71188L2.29766 7.64012L2.27556 7.6067L2.23716 7.56836L2.19941 7.544L2.1571 7.53161L2.0541 7.52924L2.01766 7.51793L1.98904 7.49001L1.96083 7.44024L1.96907 7.43277L1.97991 7.41304L1.97796 7.39603L1.92332 7.39567L1.91876 7.37671L1.92853 7.35164L1.94566 7.33233L1.89796 7.29932L1.824 7.19141L1.78365 7.15864L1.75093 7.13991L1.57144 6.9677L1.55473 6.94661L1.55016 6.91798L1.55775 6.87164L1.55905 6.84462L1.54649 6.81351L1.52154 6.79763L1.49096 6.78708L1.46258 6.77233L1.43484 6.7427L1.42033 6.71247L1.39864 6.64954L1.35224 6.57612L1.34293 6.54329L1.32427 6.5219L1.30216 6.50815L1.2525 6.48462L1.22151 6.46394L1.16741 6.41322L0.875733 6.13962L0.855585 6.11253L0.842608 6.0819L0.839763 6.05393L0.839347 6.02868L0.835258 6.00604L0.817244 5.98329L0.766519 5.94015L0.754607 5.91478L0.744829 5.88516L0.723793 5.85908L0.697541 5.8371L0.681067 5.8067L0.729186 5.80012L0.7008 5.6957L0.714015 5.66287L0.773214 5.55793L0.830875 5.51881L0.837807 5.51277L0.844503 5.50092L0.839763 5.47502L0.830222 5.44913L0.823525 5.43739L0.814637 5.42613L0.784059 5.35153L0.77754 5.32468L0.773214 5.31556L0.744592 5.30181L0.735703 5.29618L0.726401 5.29861L0.719051 5.29689L0.716029 5.27793L0.717986 5.26684L0.727111 5.24581L0.729303 5.23259L0.724504 5.20847L0.705007 5.16824L0.700444 5.14222V5.12332L0.698252 5.11022L0.690015 5.09582L0.582282 4.94518L0.559112 4.8992L0.564979 4.8784L0.596386 4.864L0.612208 4.82993L0.613275 4.78951L0.600296 4.75633L0.573214 4.74068L0.466548 4.69719L0.442726 4.70287L0.438816 4.70785L0.399762 4.81399L0.390637 4.83087L0.37114 4.84693L0.328652 4.8221L0.283318 4.78767L0.241481 4.74501L0.212208 4.696L0.200059 4.64142L0.199408 4.59087L0.192237 4.54187L0.138903 4.45831L0.0905481 4.35668L0.0818965 4.32409L0.0580738 4.28213L0.0129774 4.23982L0 4.21487L0.0450964 4.2205L0.0602666 4.2224L0.0786965 4.23461L0.1216 4.30293L0.127467 4.32136L0.13677 4.33683L0.159526 4.35123L0.181866 4.35431L0.233718 4.34471L0.331734 4.34732L0.413275 4.30797L0.55917 4.21043L0.599941 4.19686L0.710933 4.19994L0.810904 4.17203L0.821097 4.17476L0.8272 4.17078L0.84 4.14554L0.85671 4.0563L0.841718 3.96634L0.817896 3.8784L0.807466 3.7955L0.806399 3.74661L0.799882 3.70702L0.774104 3.62477L0.772149 3.60652L0.780385 3.54868L0.771496 3.52059L0.749393 3.49718L0.698666 3.45884L0.651377 3.41161L0.642905 3.38513L0.664356 3.36356L0.708385 3.33179L0.738311 3.29938L0.753245 3.26495L0.766874 3.17973L0.789629 3.13813L0.919941 3.03716L0.94963 3.00302L0.963733 2.97138L0.97286 2.79739L0.967467 2.75763L0.952059 2.71567L0.933392 2.69493L0.877451 2.64919L0.865718 2.62892L0.873956 2.6051L0.893453 2.60178L0.917273 2.60373L0.937421 2.59556L0.953896 2.55182L0.934815 2.51342L0.90554 2.47182L0.892089 2.41843L0.88883 2.39627L0.873245 2.35336L0.871941 2.33742L0.941749 2.24119L1.01132 2.17902L1.02933 2.15526L1.0432 2.12279L1.0419 2.11034L1.0339 2.09932L1.02696 2.07123L1.02264 2.02684L1.02459 1.98631L1.04302 1.95887L1.08599 1.95253L1.12107 1.94738L1.25161 1.88142L1.2685 1.86596L1.29908 1.8291L1.31751 1.81262L1.3405 1.80545L1.36089 1.80604L1.37802 1.79976L1.3891 1.77161L1.38975 1.73221L1.37239 1.65156L1.37019 1.61084L1.39816 1.46489L1.41203 1.43461L1.45624 1.42424L1.48764 1.45481L1.51342 1.49185L1.54074 1.50104L1.59407 1.49215L1.63787 1.51686L1.72136 1.59372L1.79247 1.61618L1.80788 1.62447L1.81766 1.64628L1.81505 1.69197L1.82027 1.71532L1.85884 1.7427L1.91176 1.7312L2.00521 1.68634L2.08978 1.68492L2.18797 1.69446L2.28273 1.69138L2.35603 1.65221L2.3629 1.6515L2.38595 1.64913L2.40438 1.66246L2.42021 1.68296L2.4419 1.7011L2.47787 1.71787L2.4861 1.71508L2.48913 1.69991L2.51082 1.68041L2.55265 1.66406L2.5997 1.65493L2.61576 1.64379L2.65156 1.59769L2.6691 1.58044L2.70596 1.56385L2.89221 1.5363L2.93233 1.52249L3.05523 1.42655L3.11834 1.45576L3.14762 1.47674L3.17404 1.50086L3.2144 1.56273L3.24711 1.55567L3.32213 1.50027L3.40344 1.46773L3.43247 1.44255L3.46021 1.39425L3.47668 1.33873L3.47431 1.29641L3.46388 1.2547L3.45695 1.20083L3.46128 1.17819L3.47123 1.16243L3.48119 1.1507L3.48664 1.14009L3.4851 1.11941L3.47295 1.07876L3.47058 1.05665L3.49357 0.903407L3.53476 0.827141L3.61239 0.768889L3.70477 0.731911L3.79064 0.719052L3.83117 0.722963L3.91769 0.748326L3.95431 0.76557L4.03585 0.833778L4.07858 0.855407L4.13215 0.846992L4.3843 0.768059L4.45369 0.708919L4.48101 0.679467L4.50572 0.666904L4.52557 0.653689L4.52895 0.651437L4.5504 0.613096L4.56148 0.556741L4.54696 0.521007L4.47846 0.446518L4.45482 0.316267L4.4368 0.275022L4.35964 0.193363L4.3408 0.155615L4.38133 0.1408L4.41102 0.152119L4.51336 0.223467L4.67443 0.277096L4.69458 0.278163L4.73292 0.27283L4.75484 0.274548L4.77369 0.282667L4.80557 0.304889L4.82596 0.309393L4.86649 0.301985L4.94442 0.268681L4.98779 0.2608L5.07277 0.261037L5.10963 0.248356L5.14495 0.214992L5.16379 0.178548L5.19176 0.0977185L5.21558 0.0631111L5.25333 0.0379852L5.29997 0.022163L5.41446 0.00515555L5.4243 0L5.43461 0.00219263L5.4563 0.0195556L5.46975 0.0392297L5.47461 0.0608593L5.48219 0.0814223L5.50234 0.0989037L5.52664 0.129778L5.54927 0.137659L5.57387 0.137481L5.60421 0.143763L5.63194 0.160889L5.64557 0.179555L5.656 0.200889L5.67247 0.2256L5.76439 0.284622L5.76018 0.361956L5.77209 0.405867L5.80071 0.440711L5.83852 0.460622L5.87603 0.460504L5.90791 0.428148L5.90661 0.340978L5.9261 0.323081L5.93262 0.318933L5.97926 0.301392L5.99076 0.299556L5.9949 0.295407L6.01908 0.214874L6.06039 0.161541L6.12302 0.118993L6.19911 0.101393L6.27846 0.123141L6.32053 0.170133L6.44053 0.435793L6.49452 0.507674L6.50459 0.525096L6.51544 0.55603L6.52326 0.568711L6.5395 0.579852L6.57481 0.595378L6.58175 0.607526L6.59733 0.626489L6.63182 0.647881L6.66631 0.660267L6.6819 0.651911L6.69298 0.622281L6.70252 0.619615L6.70708 0.641718L6.71111 0.7568L6.69594 0.846044L6.64391 1.00492L6.58957 1.14726L6.57967 1.22465L6.57132 1.26098L6.55093 1.29523L6.53286 1.30767L6.49221 1.32474L6.47585 1.3357L6.4611 1.35561L6.43822 1.41766L6.41126 1.45375L6.36059 1.52154L6.35147 1.56207L6.36124 1.59253L6.37428 1.60948L6.39615 1.63787L6.41037 1.66394L6.41719 1.6989L6.42228 1.77173L6.43473 1.81007L6.45197 1.83804L6.49481 1.89156L6.5117 1.92071L6.51887 1.95769V1.99384L6.52516 2.02661L6.55093 2.05357L6.58779 2.07698L6.64818 2.10335L6.70833 2.1213L6.74477 2.11887L6.76178 2.09061L6.7853 2.05138L6.82945 2.01807L6.8845 2.01529L7.05547 2.08142L7.08581 2.09879L7.10453 2.12018L7.11994 2.14246L7.13564 2.14821L7.15579 2.11917L7.25197 2.02779L7.33707 1.92539L7.36267 1.88071L7.37067 1.87058L7.3907 1.85772L7.40166 1.85624L7.41393 1.85879L7.59982 1.85647L7.65914 1.86287L7.70477 1.88012L7.79692 1.93742L7.85482 1.95935L7.91532 1.96421L7.97404 1.95698L8.02477 1.94276L8.04883 1.92942L8.06768 1.91579L8.09002 1.90981L8.12581 1.91947L8.15354 1.93511L8.17025 1.95271L8.18044 1.97493L8.18845 2.00421L8.19277 2.05843L8.18181 2.12148L8.15354 2.17073L8.10542 2.18394L8.05837 2.2141L8.02673 2.29327L8.01535 2.38406L8.02815 2.45025L8.0419 2.46056L8.07745 2.46797L8.0896 2.4768L8.09695 2.49529L8.09618 2.50803L8.09268 2.51923L8.09322 2.53298L8.13594 2.71876L8.12942 2.84907L8.1344 2.90139L8.14815 2.93576L8.17274 2.96314L8.26447 3.0448L8.32053 3.10886L8.33843 3.17452L8.2493 3.26121L8.23479 3.29321L8.2144 3.36557L8.19336 3.39876L8.14228 3.45813L8.12545 3.49796L8.12208 3.54068L8.13321 3.67336L8.12344 3.71123L8.09245 3.78264L8.08539 3.81861L8.09677 3.85884L8.14608 3.9085L8.15722 3.94358L8.14596 3.97724L8.11905 4.01357L8.06074 4.06945L8.04231 4.07887L8.00545 4.09256L7.99105 4.10708L7.9853 4.12883L7.98738 4.17813L7.97944 4.20243L7.95159 4.22993L7.81695 4.30489L7.80836 4.3152L7.80444 4.33754L7.78927 4.38009L7.72824 4.44326L7.7171 4.48758L7.7312 4.52593L7.76059 4.56569L7.80901 4.61179L7.82619 4.62815L7.95888 4.68996L7.97956 4.71947L7.97327 4.73387L7.9376 4.77363L7.92652 4.78963L7.92196 4.81221L7.92285 4.89001L7.9299 4.90519L7.94649 4.94969L7.95882 4.96231L7.97399 4.97096L7.98762 4.98204L7.99496 5.00136L7.99022 5.03621L7.95899 5.11917L7.95052 5.15887L7.95757 5.2013L7.99342 5.28361L7.99994 5.31455L7.98388 5.34317L7.91656 5.38536L7.88901 5.40747L7.85244 5.46684L7.82536 5.52427L7.79218 5.57796L7.73689 5.62637L7.67076 5.66341L7.65517 5.6864L7.64735 5.73096L7.65399 5.8061L7.64249 5.83425L7.59947 5.85292L7.5843 5.86489L7.58038 5.87852L7.58572 5.8931L7.59947 5.90856L7.60142 5.91313L7.60207 5.91781L7.60142 5.92261L7.59947 5.92729L7.57973 5.93807L7.56652 5.9523L7.56196 5.97037L7.56681 5.99265L7.5709 6.03716L7.56083 6.07692L7.5565 6.09393L7.51271 6.1936L7.44249 6.27633L7.41357 6.32273L7.41434 6.37138L7.4477 6.39739L7.52279 6.41156L7.61464 6.42886L7.65517 6.44954L7.69333 6.47502L7.72782 6.50584L7.75686 6.54299L7.79218 6.5507L7.85482 6.58797L7.91484 6.61286L7.92373 6.61902L7.9309 6.6179L7.95087 6.60587L7.96213 6.59419L7.99793 6.54305L8.00314 6.51028L8.02459 6.49754L8.05256 6.49244L8.07751 6.48267L8.09085 6.46483L8.13304 6.38299L8.17162 6.3309L8.40296 6.13967L8.42933 6.13055L8.44527 6.13167L8.45849 6.12664L8.49588 6.07876L8.49902 6.07259L8.50098 6.05914L8.4899 6.05564L8.46809 6.05428L8.45452 6.04782L8.46732 6.02892L8.49636 6.01914L8.52812 6.02222L8.55964 6.0195L8.58738 5.99265L8.59692 5.98501L8.60462 5.98116L8.61001 5.98299L8.61274 5.99265L8.61642 6.00652L8.63573 6.04865L8.64018 6.04373L8.64812 6.02607L8.65819 6.00978L8.66655 5.99259L8.70797 5.94945L8.77884 5.91917L8.82027 5.89049L8.77363 5.85215L8.79769 5.84308L8.8365 5.82844L8.85013 5.80954L8.85967 5.78554L8.86489 5.75662V5.72314L8.91283 5.75342L8.93535 5.72883L8.95366 5.6867L8.98791 5.66424L9.1827 5.62596L9.19004 5.58222L9.24113 5.43716L9.25968 5.34341L9.2768 5.30317L9.31141 5.27004H9.3245L9.34424 5.29476L9.42631 5.31739L9.50726 5.36439L9.55028 5.35052L9.8675 5.00788L9.9005 4.97221L9.91568 4.96053L9.9763 4.96367L10.0731 4.96871L10.1117 4.9904L10.1253 5.02199L10.1331 5.05896L10.1529 5.09683L10.2164 5.14198L10.2242 5.14951L10.2401 5.1584L10.2892 5.22489L10.3944 5.31887L10.457 5.3507L10.5196 5.34684L10.559 5.39698L10.6158 5.44521L10.6856 5.48148L10.7623 5.49606L10.9416 5.49671L11.0089 5.53126L11.0356 5.6192L11.0004 5.76296L10.9998 5.78335L11.0295 5.79176L11.1372 5.84492L11.1836 5.85108V5.83502L11.1636 5.80326L11.1515 5.76296L11.1628 5.72924L11.1916 5.71123L11.266 5.69298L11.2979 5.67396L11.3749 5.60273L11.4962 5.5357L11.5091 5.51224L11.5399 5.49398L11.7201 5.41262L11.7543 5.40557L11.7921 5.41523L11.8569 5.45754L11.8918 5.46714L11.9284 5.45292L11.9525 5.42133L11.9711 5.38987L11.9919 5.37553L12.0021 5.35401L11.9848 5.22489L11.988 5.18471L11.9985 5.15532L12.0165 5.13493L12.0328 5.12634L12.0421 5.12148L12.0434 5.12077L12.0389 5.13037L12.0378 5.13191L12.0364 5.13399L12.0357 5.13493L12.0798 5.11941L12.1145 5.09724L12.1396 5.06447L12.1532 5.01748L12.1654 4.94353L12.1788 4.90921L12.2017 4.88107L12.2196 4.86981L12.2374 4.86341L12.2997 4.85339L12.3455 4.83639L12.4227 4.82299L12.4496 4.81357L12.4686 4.79716L12.4709 4.77701L12.4581 4.75881L12.3705 4.69807L12.3528 4.69067L12.3482 4.67834L12.3426 4.67016L12.3391 4.66133L12.3397 4.64693L12.3609 4.59324L12.3959 4.54874L12.4417 4.51473L12.4926 4.49238L12.66 4.45748L12.6812 4.4576L12.7962 4.49321L12.8347 4.50056L12.8449 4.50015L12.875 4.49511L12.8931 4.49665L12.9464 4.51004L13.0002 4.51508L13.1226 4.54827L13.1524 4.56954L13.1704 4.58619L13.1886 4.59787L13.308 4.6525L13.3364 4.66027L13.4583 4.66696L13.4948 4.67313L13.53 4.68557L13.5633 4.70305L13.5944 4.72444L13.6157 4.74999L13.6299 4.77819L13.6484 4.8L13.6823 4.80717L13.6977 4.80456L13.7075 4.79887L13.715 4.78969L13.7237 4.77624L13.758 4.73636L13.7984 4.70921L13.8444 4.6973L13.8952 4.70246L13.9468 4.72948L13.9858 4.77221L14.0903 4.95716L14.1795 5.17979L14.2034 5.22234L14.2314 5.25677L14.3624 5.37612L14.3733 5.39141L14.3892 5.41351L14.482 5.62003L14.5013 5.68693L14.5138 5.7104L14.5305 5.73102L14.5384 5.73801L14.5501 5.7485L14.6866 5.83093L14.7183 5.87224L14.7656 5.96788L14.7962 6.00581L14.8047 6.01956L14.8104 6.03342L14.8235 6.07704L14.8328 6.09422L14.8951 6.16877L14.9563 6.22495L15.2819 6.39656L15.3211 6.41055L15.4209 6.4739L15.4458 6.50039L15.4872 6.56278L15.5195 6.62596L15.5345 6.64403L15.5509 6.65618L15.5866 6.67627L15.6019 6.69013L15.6098 6.70216L15.6596 6.81363L15.6656 6.83941L15.667 6.86607L15.6596 6.97339L15.6636 7.10483L15.6555 7.20628L15.6459 7.25541L15.5104 7.57772L15.5 7.62649L15.5125 7.75603L15.5195 7.82779L15.5265 7.85179L15.5472 7.89736L15.5546 7.92124L15.556 7.94761L15.5521 7.97274L15.5378 8.02258L15.5367 8.02921L15.5334 8.04895L15.5343 8.07396L15.5796 8.25499L15.581 8.27899L15.578 8.30275L15.5489 8.38435L15.5265 8.47621L15.5168 8.57007L15.5191 8.6195L15.5295 8.66418L15.5519 8.70264L15.5887 8.73387L15.7065 8.7981L15.7414 8.82797L15.7696 8.86222L15.7917 8.89849L15.8091 8.93772L15.8286 9.00587L15.8381 9.02833L15.8517 9.04818L15.8711 9.06524L15.9273 9.09742L15.9441 9.11141L15.9849 9.15538L16.0012 9.16782L16.0196 9.17807L16.0603 9.20083L16.0772 9.21576L16.1 9.25742L16.1071 9.30471L16.1052 9.40201L16.1131 9.45926L16.1337 9.51129L16.1666 9.55556L16.211 9.58998L16.2691 9.6109L16.5423 9.70927L16.5637 9.71289L16.65 9.71674L16.8941 9.77914L16.9141 9.78702L16.9301 9.79864L16.9325 9.80919L16.934 9.81553L16.9218 9.83164L16.8993 9.84438L16.8555 9.8621L16.805 9.91881L16.8011 9.99603L16.8262 10.0773L16.909 10.2569L16.932 10.2915L16.9586 10.3182L16.9844 10.333L17.0146 10.3375L17.1007 10.3301L17.1468 10.336L17.2373 10.3668L17.3304 10.4276L17.3892 10.5136L17.4103 10.6168L17.389 10.7285L17.3374 10.8636L17.3285 10.9111L17.325 11.0032L17.3122 11.0423L17.287 11.0677L17.2789 11.0759L17.2043 11.1232L17.1065 11.1546L17.0647 11.1822L17.0462 11.2303L17.0585 11.27L17.0914 11.2914L17.1342 11.2993L17.1744 11.2983L17.2153 11.2904L17.2226 11.2997L17.2295 11.3463L17.2278 11.4049L17.22 11.4084L17.1598 11.4476L17.1018 11.4951L17.0162 11.5855L16.998 11.6158L16.9839 11.6597L16.9756 11.7064L16.9754 11.7552L16.9928 11.7912L17.0388 11.8002L17.0901 11.8535L17.1012 11.8561L17.1284 11.8513L17.1375 11.8535L17.1423 11.8642L17.1416 11.8884L17.1447 11.8973L17.206 11.9855L17.2324 12.006L17.2889 12.0171L17.2689 12.0458L17.1858 12.099L17.1653 12.1404L17.1998 12.2093L17.1839 12.2575L17.1725 12.262L17.1396 12.2605L17.1309 12.2628L17.1269 12.2758L17.1291 12.3086L17.1441 12.339L17.1447 12.3505L17.1356 12.3587L17.1066 12.3653L17.0968 12.372L17.0807 12.4119L17.0708 12.461L17.074 12.5099L17.0968 12.5487L17.1042 12.5695L17.088 12.6691L17.0846 12.7353L17.1147 12.8791L17.1093 12.9431L17.084 13.0015L17.0173 13.0907L16.9684 13.1353L16.9548 13.1514L16.9444 13.1726L16.9263 13.2223L16.9172 13.2376L16.8956 13.2487L16.8401 13.2591L16.8158 13.2671L16.7991 13.2807L16.7596 13.32L16.7476 13.3295L16.7205 13.328L16.6837 13.3024L16.6629 13.3005L16.6481 13.3131L16.623 13.3589L16.6081 13.3756L16.57 13.3912L16.4604 13.4171L16.4313 13.4159L16.3698 13.449L16.322 13.5567L16.2574 13.6654L16.1439 13.701L16.0979 13.6787L16.0609 13.6366L15.9943 13.5126L15.9908 13.4942L16.0007 13.396L16.0001 13.3667L15.9898 13.3404L15.9506 13.3282L15.8677 13.3132L15.8311 13.3065L15.8144 13.298L15.7809 13.2756L15.7647 13.2686L15.7454 13.2679L15.7058 13.2737L15.691 13.273L15.6567 13.2555L15.629 13.2333L15.6005 13.2156L15.5657 13.2121L15.5368 13.2268L15.474 13.2769L15.4423 13.2836L15.4283 13.2719L15.4175 13.2332L15.4004 13.2248L15.3831 13.2322L15.3623 13.2667L15.349 13.2775L15.3133 13.2791L15.2613 13.2566L15.2274 13.2572L15.1943 13.2767L15.1708 13.3074L15.1507 13.3404L15.1275 13.3666L15.0856 13.3841L15.0514 13.3773L15.0184 13.3621L14.9803 13.3546L14.9579 13.3607L14.941 13.3726L14.9276 13.3848L14.916 13.3912L14.9087 13.3913L14.8964 13.3916L14.8825 13.3878L14.8682 13.3819L14.6295 13.3468L14.5159 13.3003L14.4661 13.2959L14.4344 13.3132L14.4067 13.3354L14.3692 13.346L14.3438 13.3366L14.3319 13.3169L14.33 13.2975L14.3365 13.2897L14.3184 13.2892L14.3137 13.2954L14.3105 13.307L14.2584 13.3641L14.2426 13.372L14.2163 13.3712L14.2014 13.3601L14.1907 13.3471L14.1783 13.3407L14.1017 13.3617L14.043 13.3908L14.0416 13.3915L14.0225 13.401L13.9499 13.4173L13.8924 13.3692L13.7788 13.3751L13.7593 13.3931L13.754 13.4103L13.7431 13.423L13.7061 13.4274L13.675 13.4212L13.6516 13.4075L13.6308 13.3913L13.6081 13.3777L13.5779 13.3676L13.56 13.3678L13.5428 13.372L13.5153 13.3745L13.4756 13.3699L13.3524 13.3384L13.2804 13.3335L13.265 13.3276L13.2583 13.3079L13.2629 13.2565L13.2579 13.2344L13.2451 13.2206L13.2279 13.2092L13.2069 13.2031L13.1857 13.2046L13.1655 13.2165L13.1592 13.2321L13.156 13.2497L13.1432 13.2668L13.0998 13.2889L13.0693 13.2823L13.0411 13.2638L13.0036 13.251L12.9682 13.2571L12.8874 13.2985L12.808 13.3538L12.7926 13.3599L12.7707 13.3572L12.7545 13.3471L12.7434 13.3363L12.7356 13.3313L12.7054 13.34L12.6469 13.3827L12.6105 13.3992L12.5654 13.4047L12.4234 13.4044L12.3596 13.4242L12.2659 13.4532L12.1393 13.4722L12.0969 13.4863L12.0276 13.524L11.8848 13.6472L11.8595 13.6691L11.8237 13.6903L11.7463 13.7127L11.711 13.7292L11.6786 13.7627L11.6689 13.7977L11.6687 13.8072L11.6683 13.8357L11.6632 13.8783L11.6481 13.9132L11.6044 13.976L11.5897 14.0098L11.5826 14.0594L11.5836 14.0917L11.5761 14.1194L11.5451 14.1553L11.4244 14.2504L11.3727 14.3022L11.334 14.3713L11.298 14.4891L11.2811 14.5268L11.2437 14.5737L11.2336 14.592L11.2284 14.614L11.2255 14.6584L11.2171 14.6788L11.1674 14.7217L10.9564 14.8254L10.8892 14.8776L10.8865 14.9231L10.9315 14.9675L11.0055 15.0163L10.9673 15.027L10.8686 15.0846L10.8281 15.099L10.7001 15.1097L10.5304 15.0952L10.4484 15.1045L10.4089 15.1554L10.4118 15.1784L10.4343 15.2149L10.4424 15.2345L10.444 15.2517L10.4427 15.2771L10.4424 15.283L10.4513 15.4461L10.4376 15.5772L10.4399 15.7288L10.442 15.7342L10.5529 16.0273L10.5945 16.0997L10.6897 16.2121L10.723 16.28L10.7439 16.3083L10.7796 16.33L10.7795 16.3319L10.7787 16.3432L10.7722 16.3543L10.7611 16.3634L10.7458 16.3711L10.7348 16.3788L10.7314 16.3873L10.7353 16.3964L10.7532 16.4135L10.7559 16.4214L10.7532 16.4293L10.7294 16.4552L10.7264 16.4775L10.7328 16.5016L10.7458 16.5255L10.7565 16.5753L10.7652 16.6577L10.7786 16.7022L10.7908 16.7246L10.8012 16.7379L10.8092 16.7525L10.814 16.7788L10.8118 16.7998L10.7902 16.8679L10.7639 16.8913L10.7539 16.9247L10.7512 16.9703L10.7566 17.0162L10.7716 17.0504L10.7915 17.0655L10.8039 17.075L10.9231 17.1148L10.9858 17.1608L11.1458 17.3233L11.1981 17.3545L11.2129 17.3688L11.2207 17.3864L11.2242 17.4224L11.2298 17.4392L11.2583 17.4702L11.3259 17.5065L11.3499 17.5342L11.3534 17.5575L11.3563 17.5767L11.3382 17.6069L11.284 17.6545L11.2617 17.6951L11.2513 17.7359L11.2033 18.0873L11.2196 18.1726L11.3271 18.3395L11.356 18.3747L11.3688 18.3902L11.4025 18.4647L11.4234 18.5711L11.5196 18.7575L11.6081 18.8825L11.6681 18.9729L11.6919 19.0581L11.6996 19.1804L11.6682 19.2289ZM2.23882 27.1961L2.24563 27.1863L2.25843 27.1761L2.26613 27.1672L2.28284 27.2L2.2832 27.2324L2.26649 27.2571L2.19905 27.2791L2.18999 27.3089L2.19579 27.3841L2.12065 27.3472L2.08207 27.3462L2.06566 27.392L2.05813 27.4456L2.03834 27.4773L2.00907 27.4842L1.97286 27.4635L1.96195 27.4335L1.95105 27.2974L1.94317 27.2816L1.93327 27.2663L1.9251 27.2484L1.92237 27.2252L1.93126 27.218L1.94815 27.2107L1.95923 27.1962L1.95105 27.1672L1.93908 27.1596L1.90187 27.1482L1.89387 27.1442L1.90323 27.123L1.92202 27.1061L1.93564 27.0904L1.93019 27.0726L1.91858 27.0479L1.92711 27.0263L1.94299 27.006L1.95099 26.9858L1.94892 26.9622L1.93985 26.9207L1.9363 26.8456L1.93784 26.8321L1.94299 26.8162L1.95923 26.7829L1.96539 26.7611L1.96948 26.7167L1.96676 26.6708L1.95105 26.586L1.96059 26.5873L1.96705 26.5904L1.98086 26.6004L1.99603 26.5938L2.0141 26.5992L2.03354 26.6128L2.05298 26.6311L2.06477 26.6609L2.08119 26.7609H2.09399L2.11603 26.7405L2.14453 26.7573L2.17695 26.7901L2.21126 26.8175L2.22661 26.7925L2.24711 26.7819L2.26708 26.7891L2.28178 26.8175L2.28042 26.853L2.26661 26.8868L2.23876 26.9345L2.23686 26.9518L2.24148 26.99L2.23876 27.0068L2.22969 27.0157L2.21689 27.0226L2.20427 27.0324L2.19573 27.0502L2.19437 27.0875L2.2029 27.1283L2.21843 27.1666L2.23882 27.1961ZM1.98086 24.5628L2.00646 24.5886L2.02643 24.6223L2.03769 24.6631L2.03822 24.7092L1.99419 24.754L2.00954 24.7672L1.97831 24.7829L1.93582 24.7948L1.89399 24.7929L1.86513 24.7671L1.86412 24.738L1.88172 24.5665L1.88136 24.5522L1.88682 24.5438L1.90797 24.5351L1.93393 24.5312L1.95271 24.5381L1.98086 24.5628ZM1.96569 24.8617L1.98803 24.8768L2.0128 24.9176L2.00462 24.9606L1.9773 25.01L1.92812 25.132L1.90933 25.1291L1.89156 25.0882L1.88711 25.0444L1.89701 24.9992L1.89736 24.9426L1.88966 24.8776L1.90791 24.8438L1.94649 24.8514L1.96569 24.8617Z" fill="#000000"></path></svg>